<svg width="636" height="471" viewBox="0 0 636 471" fill="none" xmlns="http://www.w3.org/2000/svg">
<path d="M159.988 195.407C159.734 195.445 159.475 195.417 159.236 195.325C158.997 195.234 158.785 195.082 158.622 194.885C158.458 194.688 158.348 194.452 158.303 194.2C158.257 193.948 158.277 193.688 158.361 193.446C159.318 187.783 188.102 60.028 189.006 56.0049H136.743C136.488 56.3396 143.992 48.193 8.36522 194.668C8.14767 196.696 4.5463 230.963 2.95312 246.078C4.04425 245.961 5.23243 245.994 6.22314 245.91C9.43961 245.626 115.258 236.294 119.164 235.956C119.381 235.96 119.594 236.012 119.788 236.11C119.981 236.209 120.149 236.349 120.28 236.522C120.411 236.695 120.5 236.896 120.542 237.109C120.583 237.321 120.576 237.541 120.52 237.75C120.416 238.015 117.333 250.904 86.1863 372.327C87.659 372.142 99.5074 370.599 103.949 370.03C103.899 368.605 103.865 367.199 103.798 365.773C103.731 363.946 106.546 363.962 106.63 365.773C106.68 367.065 106.713 368.37 106.764 369.662C110.971 369.107 115.191 368.571 119.415 368.019L119.466 364.802C119.466 364.427 119.615 364.067 119.88 363.801C120.146 363.536 120.506 363.387 120.881 363.387C121.257 363.387 121.617 363.536 121.882 363.801C122.148 364.067 122.297 364.427 122.297 364.802C122.28 365.756 122.28 366.697 122.264 367.651L133.878 366.141C133.901 365.807 150.706 233.918 150.75 233.577C150.752 233.268 150.855 232.969 151.043 232.724C151.231 232.479 151.493 232.303 151.791 232.221C153.715 231.903 183.962 226.976 197.166 224.814C197.4 223.783 202.491 200.046 204.958 188.218C204.623 188.268 160.322 195.407 159.988 195.407ZM110.984 202.66C103.597 203.782 47.8799 212.293 45.7177 212.628V193.178C48.8673 189.962 140.411 96.691 140.411 96.691C140.301 97.0291 111.701 199.725 110.984 202.66ZM575.555 195.407C575.301 195.445 575.042 195.417 574.803 195.325C574.564 195.234 574.352 195.082 574.189 194.885C574.025 194.688 573.915 194.452 573.869 194.2C573.824 193.948 573.844 193.688 573.928 193.446C574.885 187.783 603.673 60.028 604.576 56.0049H552.313C552.062 56.3396 559.563 48.193 423.939 194.668C423.721 196.696 420.116 230.963 418.527 246.078C419.614 245.961 420.803 245.994 421.793 245.91C425.01 245.626 530.832 236.294 534.734 235.956C534.951 235.959 535.165 236.011 535.359 236.109C535.552 236.207 535.721 236.348 535.852 236.521C535.983 236.694 536.072 236.895 536.113 237.108C536.155 237.321 536.147 237.541 536.09 237.75C535.99 238.021 532.482 252.544 501.757 372.327C503.233 372.142 515.078 370.599 519.519 370.03C519.469 368.605 519.435 367.199 519.368 365.773C519.301 363.946 522.116 363.962 522.2 365.773C522.25 367.065 522.284 368.37 522.334 369.662C526.541 369.107 530.765 368.571 534.986 368.019C534.986 366.945 535.022 365.873 535.036 364.802C535.053 364.438 535.21 364.095 535.474 363.844C535.738 363.592 536.089 363.452 536.453 363.452C536.818 363.452 537.168 363.592 537.432 363.844C537.696 364.095 537.853 364.438 537.871 364.802C537.851 365.756 537.851 366.697 537.834 367.651L549.448 366.141C549.471 365.807 566.277 233.915 566.32 233.577C566.322 233.268 566.425 232.969 566.613 232.724C566.801 232.479 567.064 232.303 567.361 232.221C569.289 231.903 599.536 226.976 612.736 224.814C612.967 223.81 618.038 200.167 620.531 188.218C620.2 188.268 575.893 195.407 575.555 195.407ZM526.558 202.66C519.168 203.782 463.45 212.293 461.271 212.628V193.178L555.965 96.691C555.871 97.0324 527.281 199.688 526.558 202.66Z" fill="#BFF747"/>
<path d="M390.591 106.996C385.313 90.6924 377.839 74.4528 364.92 63.2102C358.752 57.9003 351.576 53.889 343.823 51.4161C336.069 48.9432 327.896 48.0596 319.792 48.8181C265.698 54.0729 237.075 126.505 227.88 179.686C218.763 232.354 214.107 303.471 265.333 337.303C282.005 348.311 303.924 352.2 322.49 344.827C337.957 338.695 349.654 325.709 359.274 312.117C379.813 282.589 393.316 248.749 398.745 213.192C404.173 177.635 401.384 141.307 390.591 106.996ZM331.249 281.217C325.148 290.719 317.895 299.699 308.864 303.572C298.003 308.211 285.824 304.576 276.941 295.914C249.679 269.372 255.811 217.895 263.553 179.974C270.036 148.177 287.263 97.0417 316.171 89.3503C321.802 87.9395 327.728 88.2596 333.175 90.2688C338.622 92.278 343.336 95.883 346.702 100.613C366.808 126.475 373 216.215 331.249 281.217Z" fill="black"/>
<path d="M206.466 185.119C191.493 187.495 176.523 189.89 161.556 192.305L192.188 54.917C192.243 54.7076 192.25 54.4884 192.209 54.2759C192.167 54.0634 192.077 53.8632 191.947 53.6904C191.816 53.5176 191.648 53.3767 191.455 53.2784C191.262 53.1802 191.049 53.127 190.833 53.123H136.792C134.934 53.1699 134.988 53.7389 131.966 57.0123C-2.23245 202.065 5.82378 192.69 5.61627 194.467C5.14769 198.791 0.087026 246.867 3.99432e-06 247.721C-0.000437409 247.906 0.0357092 248.09 0.106366 248.261C0.177023 248.432 0.280798 248.587 0.411732 248.718C0.542666 248.849 0.698177 248.953 0.869334 249.024C1.04049 249.094 1.22392 249.13 1.40909 249.13C23.6533 247.219 106.11 239.789 117.316 239.042C98.1809 313.315 83.1161 373.257 82.9822 373.592C82.7813 374.381 83.4006 375.503 84.3377 375.386L104.062 372.818C104.69 395.022 103.755 417.241 101.263 439.313C94.6911 438.919 88.1069 439.859 81.9078 442.078C80.2343 442.68 80.9372 445.425 82.6642 444.809C89.0175 442.521 95.7906 441.635 102.519 442.212C102.891 442.207 103.247 442.058 103.51 441.794C103.774 441.531 103.923 441.175 103.928 440.803C106.556 418.12 107.536 395.277 106.86 372.454C111.033 371.918 115.204 371.362 119.377 370.827C119.057 393.077 120.014 415.328 122.242 437.469C122.868 441.757 125.924 442.403 136.437 447.607C138.06 448.41 139.503 445.964 137.86 445.16C125.81 439.216 125.372 439.561 124.99 436.883C122.811 414.795 121.882 392.602 122.209 370.409C124.438 370.124 133.1 368.999 135.195 368.715C135.564 368.702 135.915 368.549 136.176 368.289C136.437 368.028 136.59 367.678 136.604 367.309C136.645 366.975 153.453 235.046 153.477 234.711C166.63 232.566 196.76 227.639 198.688 227.321C199.993 227.127 199.063 228.754 208.157 186.752C208.444 185.721 207.537 184.948 206.466 185.119ZM197.165 224.814C183.961 226.976 153.714 231.903 151.79 232.221C151.492 232.303 151.23 232.479 151.042 232.724C150.854 232.969 150.751 233.268 150.749 233.577C150.705 233.911 133.9 365.803 133.877 366.141L122.263 367.651C122.263 366.697 122.263 365.756 122.296 364.802C122.296 364.427 122.147 364.067 121.881 363.801C121.616 363.536 121.256 363.387 120.88 363.387C120.505 363.387 120.145 363.536 119.879 363.801C119.614 364.067 119.464 364.427 119.464 364.802L119.414 368.019C115.19 368.571 110.97 369.107 106.763 369.662C106.712 368.37 106.679 367.065 106.629 365.773C106.545 363.962 103.73 363.946 103.797 365.773C103.864 367.199 103.898 368.605 103.948 370.03C99.5063 370.599 87.6613 372.142 86.1853 372.326C117.332 250.904 120.415 238.015 120.519 237.75C120.575 237.541 120.582 237.321 120.541 237.109C120.499 236.896 120.41 236.695 120.279 236.522C120.148 236.349 119.98 236.208 119.786 236.11C119.593 236.012 119.38 235.96 119.163 235.956C115.257 236.291 9.43854 245.626 6.22208 245.91C5.21798 245.994 4.04318 245.96 2.95206 246.078C4.54523 230.963 8.1466 196.696 8.36416 194.668C143.991 48.1929 136.491 56.3395 136.742 56.0048H189.005C188.101 60.0212 159.314 187.783 158.357 193.446C158.273 193.688 158.253 193.948 158.298 194.2C158.344 194.452 158.454 194.688 158.617 194.885C158.781 195.082 158.992 195.234 159.232 195.325C159.471 195.417 159.73 195.445 159.983 195.407H160.033C173.79 193.212 203.735 188.419 204.957 188.218C202.395 200.424 199.798 212.623 197.165 224.814Z" fill="black"/>
<path d="M142.221 90.7768C141.056 91.9583 48.7657 186.022 45.8839 188.938C44.7962 190.045 42.9018 191.334 42.8716 193.011C42.7913 198.031 42.8716 214.606 42.8716 214.258C42.877 214.474 42.931 214.686 43.0297 214.878C43.1283 215.071 43.269 215.239 43.4414 215.369C43.6138 215.5 43.8133 215.59 44.0253 215.633C44.2372 215.675 44.4561 215.67 44.6656 215.617C52.3236 214.442 109.731 205.679 112.513 205.261C112.788 205.237 113.044 205.113 113.233 204.911C113.422 204.71 113.53 204.446 113.537 204.17C114.541 200.468 144.587 92.1825 144.604 92.1156C144.672 91.816 144.641 91.5024 144.516 91.2216C144.391 90.9408 144.179 90.7079 143.912 90.5574C143.644 90.4069 143.334 90.347 143.03 90.3865C142.725 90.426 142.441 90.5629 142.221 90.7768ZM110.983 202.66C103.596 203.782 47.8788 212.293 45.7166 212.628V193.178C48.8661 189.962 140.41 96.6909 140.41 96.6909C140.299 97.029 111.699 199.725 110.983 202.66ZM622.023 185.119C608.257 187.274 578.318 192.104 577.113 192.305C577.983 188.385 607.725 55.0007 607.742 54.917C607.797 54.7076 607.805 54.4882 607.763 54.2754C607.722 54.0626 607.632 53.8621 607.502 53.6891C607.371 53.5162 607.203 53.3753 607.009 53.2772C606.816 53.1791 606.603 53.1264 606.386 53.123H552.345C550.488 53.1699 550.551 53.7255 547.519 57.0123C413.057 202.242 421.367 192.76 421.173 194.467C420.701 198.791 415.64 246.867 415.56 247.721C415.56 247.906 415.596 248.089 415.666 248.26C415.737 248.431 415.84 248.586 415.971 248.717C416.101 248.848 416.256 248.952 416.427 249.023C416.598 249.094 416.781 249.13 416.966 249.13C439.304 247.212 521.62 239.792 532.872 239.042C513.279 315.093 498.68 373.257 498.539 373.592C498.338 374.381 498.957 375.503 499.898 375.386L519.645 372.818C520.273 395.022 519.338 417.241 516.847 439.313C510.275 438.919 503.69 439.859 497.491 442.078C495.818 442.68 496.521 445.425 498.248 444.809C504.601 442.521 511.374 441.635 518.102 442.212C518.475 442.207 518.83 442.058 519.094 441.794C519.357 441.531 519.507 441.175 519.511 440.803C522.141 418.121 523.121 395.277 522.443 372.454C526.617 371.918 530.787 371.362 534.961 370.827C534.64 393.078 535.598 415.328 537.829 437.469C538.452 441.76 541.494 442.403 552.021 447.607C553.644 448.41 555.086 445.964 553.443 445.16C541.394 439.216 540.959 439.561 540.574 436.883C538.396 414.795 537.467 392.602 537.793 370.409C540.022 370.124 548.684 368.999 550.779 368.715C551.148 368.703 551.499 368.551 551.76 368.29C552.022 368.029 552.175 367.678 552.188 367.309C552.231 366.975 569.037 235.063 569.06 234.711C582.217 232.566 612.344 227.639 614.271 227.321C615.573 227.127 614.67 228.66 623.74 186.752C624.015 185.721 623.108 184.948 622.023 185.119ZM612.735 224.814C599.535 226.976 569.288 231.903 567.36 232.221C567.062 232.303 566.8 232.479 566.612 232.724C566.424 232.969 566.321 233.268 566.319 233.577C566.276 233.911 549.47 365.806 549.447 366.141L537.833 367.651C537.833 366.697 537.833 365.756 537.87 364.802C537.852 364.438 537.695 364.095 537.431 363.844C537.167 363.592 536.816 363.452 536.452 363.452C536.088 363.452 535.737 363.592 535.473 363.844C535.209 364.095 535.052 364.438 535.035 364.802L534.984 368.019C530.764 368.571 526.54 369.107 522.333 369.662C522.283 368.37 522.249 367.065 522.199 365.773C522.115 363.962 519.3 363.946 519.367 365.773C519.434 367.199 519.468 368.605 519.518 370.03C515.076 370.599 503.231 372.142 501.755 372.326C532.481 252.544 535.988 238.021 536.089 237.75C536.145 237.541 536.152 237.321 536.111 237.109C536.069 236.896 535.98 236.695 535.849 236.522C535.718 236.349 535.55 236.208 535.357 236.11C535.163 236.012 534.95 235.96 534.733 235.956C530.831 236.291 425.009 245.626 421.792 245.91C420.788 245.994 419.613 245.96 418.526 246.078C420.115 230.963 423.72 196.696 423.938 194.668C559.561 48.1929 552.061 56.3395 552.312 56.0048H604.575C603.672 60.0212 574.884 187.783 573.927 193.446C573.843 193.688 573.823 193.948 573.868 194.2C573.914 194.452 574.024 194.688 574.187 194.885C574.351 195.082 574.563 195.234 574.802 195.325C575.041 195.417 575.3 195.445 575.553 195.407H575.604C589.36 193.212 619.305 188.419 620.53 188.218C618.034 200.167 612.966 223.797 612.735 224.814Z" fill="black"/>
<path d="M557.792 90.7767C556.627 91.9582 464.337 186.022 461.455 188.937C460.368 190.045 458.473 191.334 458.443 193.011C458.363 198.031 458.443 214.606 458.443 214.258C458.448 214.474 458.503 214.686 458.601 214.878C458.7 215.071 458.841 215.238 459.013 215.369C459.185 215.5 459.385 215.59 459.597 215.632C459.809 215.675 460.028 215.67 460.237 215.616C467.895 214.442 525.303 205.679 528.088 205.261C528.362 205.237 528.619 205.112 528.807 204.911C528.995 204.709 529.103 204.445 529.108 204.17C530.129 200.468 560.158 92.1824 560.175 92.1155C560.243 91.8158 560.212 91.5023 560.088 91.2215C559.963 90.9407 559.751 90.7078 559.483 90.5573C559.215 90.4068 558.906 90.3468 558.601 90.3864C558.296 90.4259 558.013 90.5628 557.792 90.7767ZM526.558 202.66C519.168 203.781 463.45 212.293 461.271 212.628V193.178L555.965 96.6908C555.871 97.0322 527.281 199.688 526.558 202.66ZM156.062 66.7117C151.292 64.2617 146.603 70.862 151.436 76.9335C152.107 77.8714 153.11 78.5173 154.242 78.7389C155.373 78.9604 156.546 78.7408 157.521 78.125C158.225 77.3012 158.749 76.339 159.059 75.3005C159.369 74.2619 159.458 73.17 159.321 72.095C159.183 71.0199 158.822 69.9856 158.261 69.0584C157.7 68.1313 156.951 67.3319 156.062 66.7117ZM577.533 75.6282C577.433 75.9903 577.481 76.3773 577.666 76.704C577.852 77.0308 578.16 77.2704 578.522 77.3703C578.884 77.4701 579.271 77.422 579.598 77.2365C579.924 77.0511 580.164 76.7434 580.264 76.3812C580.881 74.3852 580.851 72.2449 580.177 70.2673C579.503 68.2897 578.22 66.5763 576.512 65.3729C570.199 60.744 561.283 66.8456 562.033 74.1019C562.05 74.4633 562.206 74.8041 562.468 75.0536C562.73 75.3032 563.078 75.4424 563.44 75.4424C563.802 75.4424 564.15 75.3032 564.412 75.0536C564.674 74.8041 564.83 74.4633 564.848 74.1019C564.764 73.0632 564.917 72.019 565.294 71.0475C565.671 70.076 566.262 69.2023 567.025 68.4916C567.787 67.781 568.7 67.2517 569.695 66.9435C570.691 66.6353 571.743 66.5561 572.773 66.7117C573.682 66.967 574.531 67.4035 575.267 67.9951C576.003 68.5868 576.611 69.3212 577.056 70.1543C577.501 70.9873 577.772 71.9017 577.854 72.8424C577.936 73.7832 577.827 74.7308 577.533 75.6282ZM303.591 334.823C303.537 333.012 300.709 332.996 300.759 334.823C301.817 368.956 300.956 403.121 298.179 437.158C291.389 436.669 284.594 438.037 278.522 441.114C276.895 441.917 278.321 444.364 279.944 443.561C285.975 440.528 292.761 439.321 299.467 440.09C300.271 440.193 300.826 439.37 300.876 438.681C303.76 404.141 304.667 369.466 303.591 334.823ZM341.83 440.157C338.363 437.934 331.026 439.855 326.578 439.086C325.488 438.871 324.483 438.347 323.683 437.576C323.061 436.895 322.581 436.097 322.273 435.228C321.965 434.358 321.834 433.436 321.889 432.515C319.578 399.563 318.695 366.526 319.241 333.498C319.241 333.122 319.092 332.762 318.827 332.497C318.561 332.231 318.201 332.082 317.826 332.082C317.45 332.082 317.09 332.231 316.825 332.497C316.559 332.762 316.41 333.122 316.41 333.498C315.955 361.613 316.507 389.707 318.12 417.601C319.124 434.892 319.231 435.648 320.028 437.348C320.831 438.846 322.038 440.088 323.512 440.933C327.699 443.561 337.272 440.598 340.404 442.607C341.944 443.577 343.36 441.137 341.83 440.157ZM367.1 95.3688C369.594 97.3602 370.4 100.513 372.211 103.027C372.992 104.323 374.12 105.375 375.467 106.064C376.814 106.754 378.327 107.053 379.835 106.929C387.142 105.517 383.119 96.0415 395.436 61.6176C395.888 60.3625 396.39 58.4681 398.013 59.6261C399.352 60.5633 399.623 62.5414 400.229 63.9304C400.964 65.434 402.072 66.7244 403.448 67.6788C404.823 68.6332 406.419 69.2198 408.085 69.3828C409.751 69.5459 411.431 69.2799 412.965 68.6103C414.5 67.9406 415.837 66.8895 416.85 65.557C417.904 64.0643 415.444 62.6585 414.403 64.1312C413.734 64.9161 412.903 65.547 411.968 65.9806C411.032 66.4143 410.013 66.6404 408.982 66.6436C407.951 66.6468 406.931 66.4269 405.993 65.999C405.054 65.5711 404.22 64.9454 403.546 64.1647C401.785 61.8519 401.986 58.602 399.154 57.0289C398.587 56.6821 397.944 56.4794 397.281 56.4385C396.617 56.3977 395.954 56.5199 395.349 56.7946C394.075 57.6416 393.18 58.9512 392.855 60.4462C380.722 93.8459 383.982 104.754 378.493 104.215C373.868 103.716 372.87 96.3863 369.122 93.3907C367.686 92.2494 365.674 94.2174 367.1 95.3688ZM272.591 95.5863C271.797 97.4211 270.684 99.1005 269.304 100.547C268.267 101.618 266.372 103.612 264.695 103.479C263.497 103.392 263.33 102.106 262.252 98.1836C261.613 95.921 254.996 72.7129 252.332 63.3748C252.265 63.1371 252.137 62.921 251.961 62.7479C251.785 62.5748 251.566 62.4509 251.327 62.3883C251.089 62.3257 250.837 62.3266 250.599 62.3911C250.361 62.4555 250.143 62.5812 249.969 62.7556C247.984 64.8822 245.265 66.1758 242.363 66.3746C239.461 66.5734 236.591 65.6627 234.335 63.8266C232.581 62.0529 231.242 59.9133 230.412 57.561C229.676 55.8875 227.246 57.3435 227.965 58.9835C228.937 61.6973 230.544 64.1394 232.651 66.1059C235.154 68.058 238.227 69.1376 241.401 69.1799C244.575 69.2222 247.675 68.2249 250.23 66.3402C261.097 104.382 260.518 104.392 262.647 105.721C263.374 106.1 264.186 106.288 265.005 106.267C265.825 106.246 266.626 106.016 267.333 105.601C270.791 103.68 273.496 100.644 275.007 96.9887C275.774 95.3654 273.331 93.9262 272.591 95.5863ZM318.388 31.4042C319.581 30.9163 320.895 30.8025 322.154 31.0781C323.414 31.3536 324.56 32.0055 325.44 32.9472C327.545 35.2584 329.093 38.0211 329.965 41.0235C330.601 42.7171 333.332 41.9774 332.696 40.2704C330.752 35.0926 328.011 28.9743 321.805 28.1208C319.564 27.9796 317.346 28.648 315.556 30.0044C313.766 31.3608 312.522 33.3149 312.052 35.511C311.276 37.984 310.82 40.5464 310.697 43.1355C310.576 44.9462 313.394 44.9462 313.528 43.1355C313.779 39.263 314.452 33.4058 318.388 31.4042ZM75.6133 413.397C75.987 413.397 76.3454 413.249 76.6096 412.985C76.8739 412.72 77.0223 412.362 77.0223 411.988C77.0223 411.615 76.8739 411.256 76.6096 410.992C76.3454 410.728 75.987 410.579 75.6133 410.579H70.8036C70.4299 410.579 70.0715 410.728 69.8072 410.992C69.543 411.256 69.3945 411.615 69.3945 411.988C69.3945 412.362 69.543 412.72 69.8072 412.985C70.0715 413.249 70.4299 413.397 70.8036 413.397H75.6133ZM394.144 423.853C378.135 424.955 362.09 425.376 346.034 424.941C345.67 424.959 345.327 425.116 345.075 425.38C344.824 425.644 344.684 425.994 344.684 426.359C344.684 426.723 344.824 427.074 345.075 427.337C345.327 427.601 345.67 427.758 346.034 427.776C362.079 428.224 378.136 427.86 394.144 426.685C395.951 426.551 395.971 423.73 394.144 423.853ZM417.252 436.354L387.44 437.693C385.633 437.777 385.616 440.608 387.44 440.525C397.376 440.09 407.313 439.643 417.252 439.186C419.062 439.102 419.062 436.281 417.252 436.354ZM606.103 431.746H566.648C566.273 431.746 565.913 431.895 565.647 432.16C565.382 432.426 565.233 432.786 565.233 433.161C565.233 433.537 565.382 433.897 565.647 434.163C565.913 434.428 566.273 434.577 566.648 434.577H606.109C606.485 434.576 606.845 434.426 607.11 434.16C607.374 433.894 607.523 433.534 607.522 433.158C607.521 432.783 607.371 432.423 607.105 432.158C606.839 431.893 606.478 431.745 606.103 431.746ZM110.315 15.4524C110.687 15.4481 111.042 15.2987 111.305 15.0361C111.569 14.7735 111.719 14.4185 111.724 14.0467C111.79 12.129 112.559 10.3024 113.885 8.91537C115.21 7.52832 117.001 6.67779 118.913 6.526C119.275 6.50837 119.616 6.35239 119.865 6.09038C120.115 5.82837 120.254 5.48041 120.254 5.11858C120.254 4.75676 120.115 4.40879 119.865 4.14678C119.616 3.88477 119.275 3.7288 118.913 3.71117C109.88 4.01575 106.77 15.6097 110.315 15.4524ZM193.615 2.80078C195.573 3.10077 197.407 3.94248 198.911 5.23072C200.416 6.51897 201.529 8.20237 202.127 10.0906C202.176 10.2699 202.26 10.4377 202.375 10.5845C202.489 10.7312 202.631 10.854 202.793 10.9459C202.954 11.0377 203.133 11.0968 203.317 11.1197C203.502 11.1427 203.689 11.129 203.869 11.0796C204.048 11.0301 204.216 10.9459 204.363 10.8315C204.509 10.7172 204.632 10.5751 204.724 10.4134C204.816 10.2516 204.875 10.0733 204.898 9.88872C204.921 9.70412 204.907 9.5168 204.858 9.33747C204.129 6.97938 202.768 4.86653 200.921 3.22931C199.074 1.59208 196.813 0.493343 194.385 0.0528991C194.204 0.00235262 194.016 -0.0121639 193.83 0.0101844C193.644 0.0325327 193.464 0.091309 193.301 0.18315C193.137 0.27499 192.994 0.398097 192.878 0.545449C192.762 0.6928 192.677 0.861508 192.626 1.04194C192.576 1.22237 192.561 1.41099 192.583 1.59702C192.606 1.78306 192.664 1.96287 192.756 2.1262C192.848 2.28952 192.971 2.43315 193.119 2.5489C193.266 2.66465 193.435 2.75024 193.615 2.80078ZM535.672 24.5027L538.349 22.8292C537.649 24.779 537.477 26.8795 537.852 28.917C538.227 30.9546 539.135 32.8566 540.483 34.4296C541.831 36.0026 543.572 37.1905 545.528 37.8725C547.484 38.5546 549.586 38.7063 551.62 38.3125C554.385 37.7828 556.869 36.2789 558.619 34.0738C560.37 31.8687 561.271 29.1089 561.16 26.2957C561.049 23.4824 559.932 20.8025 558.012 18.7428C556.093 16.683 553.498 15.3802 550.7 15.0709C551.905 14.0333 550.583 11.8712 549.107 12.7916L534.263 22.0427C532.706 23.0267 534.115 25.4734 535.672 24.5027ZM558.328 26.7486C558.326 28.589 557.758 30.3844 556.7 31.8904C555.642 33.3964 554.146 34.5399 552.415 35.1655C550.684 35.791 548.803 35.8681 547.026 35.3863C545.25 34.9045 543.665 33.8872 542.488 32.4728C541.31 31.0584 540.597 29.3156 540.445 27.4814C540.293 25.6473 540.71 23.8108 541.639 22.2219C542.568 20.6331 543.963 19.3689 545.636 18.6014C547.309 17.8339 549.177 17.6004 550.988 17.9326C553.049 18.3121 554.912 19.4019 556.253 21.0126C557.594 22.6232 558.328 24.6528 558.328 26.7486ZM133.212 42.0979C135.067 41.7435 136.81 40.948 138.293 39.7784C139.777 38.6088 140.957 37.0994 141.734 35.3779C142.512 33.6563 142.863 31.7729 142.76 29.8868C142.656 28.0007 142.1 26.1672 141.139 24.541C140.178 22.9148 138.84 21.5438 137.237 20.5436C135.635 19.5434 133.816 18.9434 131.932 18.7942C130.049 18.6451 128.158 18.9512 126.418 19.6867C124.678 20.4222 123.141 21.5654 121.936 23.02C120.457 24.9039 119.582 27.1904 119.424 29.5801C119.267 31.9698 119.834 34.3514 121.053 36.4131C122.271 38.4748 124.084 40.1206 126.254 41.1349C128.423 42.1492 130.848 42.4849 133.212 42.0979ZM132.593 21.7046C134.645 22.102 136.496 23.1964 137.834 24.8024C139.171 26.4084 139.913 28.4273 139.933 30.5173C139.932 32.3579 139.364 34.1536 138.307 35.66C137.249 37.1665 135.753 38.3106 134.022 38.9367C132.292 39.5627 130.41 39.6403 128.633 39.1589C126.857 38.6775 125.272 37.6605 124.094 36.2462C122.916 34.8319 122.202 33.089 122.05 31.2548C121.898 29.4205 122.315 27.5838 123.243 25.9947C124.172 24.4056 125.568 23.1413 127.241 22.3737C128.913 21.606 130.782 21.3724 132.593 21.7046ZM195.389 42.0812C197.244 41.7268 198.987 40.9312 200.471 39.7616C201.954 38.592 203.134 37.0827 203.911 35.3611C204.689 33.6395 205.041 31.7562 204.937 29.8701C204.833 27.9839 204.278 26.1504 203.317 24.5243C202.355 22.8981 201.017 21.5271 199.415 20.5269C197.812 19.5267 195.993 18.9267 194.11 18.7775C192.227 18.6284 190.335 18.9345 188.595 19.6699C186.856 20.4054 185.318 21.5487 184.113 23.0033C182.636 24.8876 181.762 27.1738 181.606 29.5628C181.449 31.9517 182.017 34.3324 183.235 36.3934C184.453 38.4544 186.265 40.0999 188.434 41.1147C190.602 42.1295 193.026 42.4663 195.389 42.0812ZM194.787 21.7046C196.838 22.102 198.69 23.1964 200.028 24.8024C201.365 26.4084 202.107 28.4273 202.127 30.5173C202.125 32.3582 201.557 34.1541 200.499 35.6606C199.441 37.167 197.944 38.3107 196.213 38.9361C194.481 39.5616 192.599 39.6382 190.823 39.1557C189.046 38.6733 187.461 37.655 186.284 36.2397C185.107 34.8243 184.394 33.0806 184.243 31.2459C184.093 29.4111 184.511 27.5744 185.441 25.9859C186.372 24.3973 187.769 23.134 189.443 22.368C191.117 21.6019 192.986 21.3703 194.797 21.7046H194.787Z" fill="black"/>
<path d="M131.916 35.7157C134.258 35.7157 136.157 33.8171 136.157 31.475C136.157 29.133 134.258 27.2344 131.916 27.2344C129.574 27.2344 127.676 29.133 127.676 31.475C127.676 33.8171 129.574 35.7157 131.916 35.7157Z" fill="black"/>
<path d="M193.178 35.7157C195.52 35.7157 197.419 33.8171 197.419 31.475C197.419 29.133 195.52 27.2344 193.178 27.2344C190.836 27.2344 188.938 29.133 188.938 31.475C188.938 33.8171 190.836 35.7157 193.178 35.7157Z" fill="black"/>
<path d="M545.137 27.7016C545.137 28.5404 545.386 29.3605 545.852 30.0579C546.318 30.7554 546.98 31.2989 547.755 31.6198C548.53 31.9406 549.383 32.0244 550.206 31.8605C551.029 31.6966 551.784 31.2924 552.377 30.699C552.97 30.1056 553.374 29.3497 553.537 28.5268C553.7 27.704 553.616 26.8513 553.294 26.0764C552.973 25.3016 552.429 24.6396 551.731 24.174C551.033 23.7084 550.213 23.4603 549.374 23.4609C548.817 23.4605 548.266 23.5699 547.751 23.7829C547.237 23.9959 546.769 24.3083 546.376 24.7022C545.982 25.0961 545.67 25.5638 545.457 26.0785C545.245 26.5932 545.136 27.1447 545.137 27.7016ZM604.372 43.0342C606.227 42.6734 607.967 41.8702 609.445 40.6929C610.923 39.5155 612.095 37.9989 612.862 36.2717C613.628 34.5445 613.967 32.6578 613.848 30.7719C613.729 28.886 613.157 27.0565 612.18 25.439C613.114 25.8373 614.45 26.6807 615.193 25.439C615.286 25.2792 615.347 25.1026 615.372 24.9193C615.398 24.7359 615.386 24.5494 615.339 24.3704C615.293 24.1914 615.211 24.0233 615.099 23.8759C614.987 23.7285 614.847 23.6045 614.687 23.5111C609.007 21.119 603.523 18.2843 598.287 15.0332C596.727 14.0793 595.322 16.526 596.861 17.4798C598.17 18.2831 599.475 19.073 600.801 19.8227C598.851 20.053 596.99 20.766 595.386 21.897C593.781 23.0281 592.484 24.5415 591.612 26.3002C590.74 28.0589 590.32 30.0073 590.391 31.9691C590.462 33.9308 591.021 35.8439 592.018 37.5351C593.28 39.5929 595.136 41.2199 597.342 42.2016C599.547 43.1833 601.998 43.4736 604.372 43.0342ZM603.753 22.6409C605.804 23.0389 607.656 24.1334 608.993 25.7393C610.331 27.3451 611.072 29.3638 611.093 31.4536C611.092 33.2942 610.524 35.0898 609.467 36.5963C608.409 38.1028 606.913 39.2469 605.183 39.8729C603.452 40.499 601.57 40.5766 599.794 40.0952C598.017 39.6138 596.432 38.5967 595.254 37.1824C594.076 35.7682 593.362 34.0253 593.21 32.191C593.058 30.3567 593.475 28.5201 594.403 26.931C595.332 25.3419 596.728 24.0776 598.401 23.3099C600.074 22.5423 601.942 22.3087 603.753 22.6409Z" fill="black"/>
<path d="M602.147 36.6522C604.489 36.6522 606.388 34.7536 606.388 32.4115C606.388 30.0695 604.489 28.1709 602.147 28.1709C599.805 28.1709 597.906 30.0695 597.906 32.4115C597.906 34.7536 599.805 36.6522 602.147 36.6522Z" fill="black"/>
<path d="M289.631 47.7438C291.486 47.3894 293.229 46.5938 294.713 45.4242C296.196 44.2546 297.376 42.7453 298.153 41.0237C298.931 39.3021 299.283 37.4188 299.179 35.5326C299.075 33.6465 298.52 31.813 297.558 30.1868C296.597 28.5607 295.259 27.1896 293.657 26.1894C292.054 25.1892 290.235 24.5892 288.352 24.4401C286.469 24.2909 284.577 24.597 282.837 25.3325C281.097 26.068 279.56 27.2113 278.355 28.6659C276.878 30.5502 276.004 32.8363 275.848 35.2253C275.691 37.6143 276.259 39.995 277.477 42.056C278.695 44.117 280.507 45.7625 282.675 46.7773C284.844 47.792 287.268 48.1289 289.631 47.7438ZM279.73 31.571C280.748 29.8752 282.299 28.5641 284.14 27.8426C285.981 27.1211 288.01 27.0298 289.909 27.5831C291.807 28.1364 293.469 29.303 294.635 30.9007C295.801 32.4984 296.404 34.4371 296.352 36.4141C296.297 35.0201 295.728 33.6957 294.754 32.6969C293.78 31.6982 292.47 31.0959 291.078 31.0065C289.685 30.9172 288.309 31.3471 287.215 32.2131C286.122 33.0792 285.388 34.3199 285.155 35.6956C284.923 37.0713 285.209 38.4842 285.958 39.6614C286.706 40.8386 287.865 41.6965 289.209 42.0693C290.554 42.4421 291.989 42.3033 293.237 41.6798C294.485 41.0563 295.457 39.9923 295.967 38.6935C295.611 39.9141 294.998 41.0448 294.171 42.01C293.343 42.9751 292.319 43.7526 291.166 44.2905C290.014 44.8284 288.761 45.1144 287.489 45.1292C286.218 45.1441 284.958 44.8876 283.793 44.3768C282.629 43.866 281.587 43.1127 280.737 42.1671C279.887 41.2215 279.248 40.1055 278.863 38.8935C278.479 37.6815 278.357 36.4014 278.507 35.1387C278.656 33.876 279.074 32.6597 279.73 31.571ZM357.481 47.7438C359.336 47.3888 361.079 46.5927 362.562 45.4228C364.044 44.2529 365.224 42.7435 366.001 41.0219C366.778 39.3003 367.129 37.4171 367.025 35.5312C366.921 33.6453 366.365 31.8121 365.404 30.1863C364.443 28.5604 363.105 27.1897 361.502 26.1897C359.9 25.1897 358.081 24.5899 356.198 24.4408C354.315 24.2917 352.424 24.5978 350.684 25.3331C348.944 26.0685 347.407 27.2115 346.202 28.6659C344.723 30.55 343.847 32.8368 343.69 35.2269C343.532 37.6171 344.1 39.999 345.319 42.0609C346.538 44.1228 348.352 45.7685 350.522 46.7825C352.692 47.7965 355.118 48.1316 357.481 47.7438ZM356.879 27.3505C358.93 27.7491 360.78 28.844 362.117 30.4498C363.454 32.0556 364.195 34.0738 364.215 36.1631C364.212 38.0133 363.637 39.8172 362.567 41.327C361.498 42.8368 359.987 43.9786 358.243 44.5955C356.499 45.2124 354.606 45.2741 352.825 44.7723C351.044 44.2705 349.463 43.2297 348.297 41.7928C347.424 40.7244 346.82 39.4617 346.537 38.1111C346.905 39.4867 347.778 40.6735 348.981 41.4356C350.184 42.1977 351.629 42.4794 353.031 42.2249C354.432 41.9703 355.686 41.198 356.544 40.0614C357.402 38.9249 357.802 37.5071 357.663 36.0897C357.524 34.6724 356.857 33.3591 355.794 32.4107C354.732 31.4624 353.352 30.9483 351.928 30.9706C350.504 30.9929 349.14 31.55 348.108 32.5312C347.076 33.5123 346.45 34.8459 346.356 36.2669C346.337 34.9484 346.61 33.642 347.155 32.4415C347.701 31.2411 348.506 30.1764 349.512 29.3239C350.518 28.4714 351.7 27.8524 352.974 27.5112C354.248 27.17 355.581 27.1151 356.879 27.3505ZM247.824 456.931H222.152C221.777 456.931 221.416 457.08 221.151 457.346C220.885 457.611 220.736 457.971 220.736 458.347C220.736 458.722 220.885 459.083 221.151 459.348C221.416 459.614 221.777 459.763 222.152 459.763H247.824C248.199 459.763 248.559 459.614 248.825 459.348C249.09 459.083 249.239 458.722 249.239 458.347C249.239 457.971 249.09 457.611 248.825 457.346C248.559 457.08 248.199 456.931 247.824 456.931ZM114.623 456.931H19.7791C19.4036 456.931 19.0435 457.08 18.778 457.346C18.5124 457.611 18.3633 457.971 18.3633 458.347C18.3633 458.722 18.5124 459.083 18.778 459.348C19.0435 459.614 19.4036 459.763 19.7791 459.763H114.623C114.998 459.763 115.359 459.614 115.624 459.348C115.89 459.083 116.039 458.722 116.039 458.347C116.039 457.971 115.89 457.611 115.624 457.346C115.359 457.08 114.998 456.931 114.623 456.931ZM127.091 461.573C126.903 461.57 126.718 461.605 126.545 461.678C126.372 461.75 126.216 461.857 126.086 461.992C125.394 462.685 124.637 463.297 125.082 464.268C125.179 464.556 125.383 464.795 125.651 464.937C125.983 465.125 126.373 465.179 126.742 465.088C127.208 464.954 127.342 464.753 128.081 463.997C128.278 463.798 128.411 463.547 128.466 463.273C128.52 462.999 128.493 462.716 128.387 462.457C128.282 462.199 128.102 461.978 127.872 461.82C127.641 461.663 127.37 461.577 127.091 461.573ZM139.642 462.721C139.443 462.526 139.191 462.394 138.917 462.341C138.643 462.288 138.36 462.317 138.103 462.424C137.845 462.531 137.625 462.712 137.47 462.943C137.314 463.175 137.23 463.447 137.229 463.726C137.176 464.154 137.216 464.589 137.346 465.001C137.473 465.297 137.7 465.54 137.986 465.689C138.273 465.837 138.602 465.881 138.918 465.814C139.234 465.747 139.516 465.573 139.718 465.321C139.919 465.069 140.027 464.754 140.023 464.432C140.027 463.746 140.07 463.056 139.642 462.721ZM111.222 467.337C111.035 467.334 110.85 467.37 110.677 467.442C110.504 467.514 110.348 467.621 110.218 467.755C109.515 468.462 108.772 469.061 109.214 470.035C109.313 470.322 109.516 470.561 109.783 470.704C110.113 470.896 110.504 470.951 110.874 470.858C111.34 470.724 111.453 470.523 112.213 469.767C112.409 469.568 112.541 469.316 112.595 469.042C112.649 468.768 112.622 468.485 112.517 468.226C112.411 467.968 112.233 467.746 112.003 467.588C111.773 467.43 111.501 467.343 111.222 467.337ZM429.535 426.199H418.711C418.336 426.199 417.976 426.348 417.71 426.614C417.445 426.879 417.296 427.239 417.296 427.615C417.296 427.99 417.445 428.35 417.71 428.616C417.976 428.881 418.336 429.031 418.711 429.031H429.535C429.911 429.031 430.271 428.881 430.537 428.616C430.802 428.35 430.951 427.99 430.951 427.615C430.951 427.239 430.802 426.879 430.537 426.614C430.271 426.348 429.911 426.199 429.535 426.199ZM433.86 439.922H428.799C428.609 439.912 428.418 439.942 428.239 440.009C428.06 440.075 427.897 440.177 427.759 440.309C427.62 440.44 427.51 440.599 427.435 440.774C427.36 440.95 427.321 441.138 427.321 441.329C427.321 441.52 427.36 441.709 427.435 441.884C427.51 442.06 427.62 442.218 427.759 442.35C427.897 442.481 428.06 442.583 428.239 442.65C428.418 442.716 428.609 442.746 428.799 442.737H433.86C434.221 442.719 434.562 442.563 434.811 442.301C435.061 442.039 435.2 441.691 435.2 441.329C435.2 440.967 435.061 440.619 434.811 440.357C434.562 440.095 434.221 439.939 433.86 439.922ZM227.43 446.358H235.373C235.563 446.367 235.754 446.338 235.933 446.271C236.111 446.205 236.275 446.103 236.413 445.971C236.551 445.839 236.661 445.681 236.737 445.506C236.812 445.33 236.85 445.141 236.85 444.951C236.85 444.76 236.812 444.571 236.737 444.396C236.661 444.22 236.551 444.062 236.413 443.93C236.275 443.799 236.111 443.697 235.933 443.63C235.754 443.563 235.563 443.534 235.373 443.543H227.43C227.069 443.561 226.728 443.717 226.479 443.979C226.229 444.241 226.09 444.589 226.09 444.951C226.09 445.312 226.229 445.66 226.479 445.922C226.728 446.184 227.069 446.34 227.43 446.358ZM246.197 443.456C246.387 443.465 246.578 443.436 246.757 443.369C246.936 443.303 247.099 443.201 247.237 443.069C247.376 442.938 247.486 442.779 247.561 442.604C247.636 442.428 247.675 442.24 247.675 442.049C247.675 441.858 247.636 441.669 247.561 441.494C247.486 441.318 247.376 441.16 247.237 441.028C247.099 440.897 246.936 440.795 246.757 440.728C246.578 440.662 246.387 440.632 246.197 440.641H241.136C240.775 440.659 240.434 440.815 240.185 441.077C239.935 441.339 239.796 441.687 239.796 442.049C239.796 442.411 239.935 442.759 240.185 443.021C240.434 443.283 240.775 443.439 241.136 443.456H246.197ZM621.519 443.808C617.433 443.888 613.359 443.962 609.269 444.045C608.894 444.045 608.534 444.194 608.268 444.46C608.003 444.725 607.854 445.086 607.854 445.461C607.854 445.837 608.003 446.197 608.268 446.462C608.534 446.728 608.894 446.877 609.269 446.877C613.359 446.793 617.433 446.726 621.519 446.642C621.883 446.625 622.227 446.468 622.478 446.204C622.729 445.94 622.87 445.59 622.87 445.225C622.87 444.861 622.729 444.51 622.478 444.246C622.227 443.982 621.883 443.825 621.519 443.808ZM634.522 442.804H630.198C629.837 442.821 629.496 442.977 629.246 443.239C628.997 443.501 628.858 443.849 628.858 444.211C628.858 444.573 628.997 444.921 629.246 445.183C629.496 445.445 629.837 445.601 630.198 445.618H634.522C634.713 445.628 634.904 445.598 635.082 445.532C635.261 445.465 635.425 445.363 635.563 445.231C635.701 445.1 635.811 444.941 635.886 444.766C635.962 444.591 636 444.402 636 444.211C636 444.02 635.962 443.831 635.886 443.656C635.811 443.48 635.701 443.322 635.563 443.191C635.425 443.059 635.261 442.957 635.082 442.89C634.904 442.824 634.713 442.794 634.522 442.804Z" fill="black"/>
<path d="M610.157 73.2309C608.67 65.8932 606.074 58.8248 602.459 52.2686C601.602 50.6587 599.173 52.0845 600.013 53.6911C600.18 54.009 600.331 54.3605 600.498 54.6651C600.377 54.7216 600.264 54.7949 600.163 54.8826C590.614 64.3881 588.834 78.1978 592.639 85.2968C597.934 95.1771 613.116 89.7516 610.157 73.2309ZM605.348 84.9085C599.484 91.3716 591.29 85.2265 594.135 71.6712C595.278 66.2507 597.927 61.2624 601.777 57.2791C603.649 61.2554 605.191 65.3796 606.385 69.6094C607.761 74.4693 609.11 80.765 605.348 84.9085Z" fill="black"/>
</svg>
