<svg width="121" height="24" viewBox="0 0 121 24" fill="none" xmlns="http://www.w3.org/2000/svg">
<path d="M33.9432 23.0646H29L36.532 1.24645H42.4766L49.9979 23.0646H45.0547L39.5895 6.23224H39.419L33.9432 23.0646ZM33.6342 14.4886H45.3104V18.0895H33.6342V14.4886Z" fill="#FDFDE1"/>
<path d="M56.3313 6.70099L59.3356 12.4219L62.4144 6.70099H67.07L62.3292 14.8828L67.1978 23.0646H62.5636L59.3356 17.4077L56.1609 23.0646H51.4734L56.3313 14.8828L51.6438 6.70099H56.3313Z" fill="#FDFDE1"/>
<path d="M69.7653 23.0646V6.70099H74.3036V23.0646H69.7653ZM72.0451 4.59162C71.3704 4.59162 70.7915 4.3679 70.3086 3.92045C69.8327 3.46591 69.5948 2.92259 69.5948 2.29048C69.5948 1.66548 69.8327 1.12926 70.3086 0.681819C70.7915 0.227273 71.3704 0 72.0451 0C72.7198 0 73.2951 0.227273 73.771 0.681819C74.2539 1.12926 74.4954 1.66548 74.4954 2.29048C74.4954 2.92259 74.2539 3.46591 73.771 3.92045C73.2951 4.3679 72.7198 4.59162 72.0451 4.59162Z" fill="#FDFDE1"/>
<path d="M77.9391 23.0646V6.70099H82.2644V9.58807H82.4561C82.7971 8.62926 83.3652 7.87287 84.1607 7.31889C84.9561 6.76492 85.9078 6.48793 87.0158 6.48793C88.138 6.48793 89.0932 6.76847 89.8816 7.32955C90.6699 7.88352 91.1955 8.63636 91.4583 9.58807H91.6287C91.9625 8.65057 92.5662 7.90128 93.4398 7.3402C94.3205 6.77202 95.361 6.48793 96.5613 6.48793C98.0882 6.48793 99.3276 6.97443 100.279 7.94744C101.238 8.91335 101.718 10.2841 101.718 12.0597V23.0646H97.1898V12.9545C97.1898 12.0455 96.9483 11.3636 96.4654 10.9091C95.9824 10.4545 95.3787 10.2273 94.6543 10.2273C93.8304 10.2273 93.1877 10.4901 92.726 11.0156C92.2644 11.5341 92.0336 12.2195 92.0336 13.0717V23.0646H87.6337V12.8587C87.6337 12.0561 87.4029 11.4169 86.9412 10.9411C86.4867 10.4652 85.8865 10.2273 85.1408 10.2273C84.6365 10.2273 84.182 10.3551 83.7772 10.6108C83.3794 10.8594 83.0634 11.2109 82.829 11.6655C82.5946 12.1129 82.4775 12.6385 82.4775 13.2422V23.0646H77.9391Z" fill="#FDFDE1"/>
<path d="M112.696 23.3842C111.041 23.3842 109.61 23.0327 108.403 22.3295C107.202 21.6193 106.275 20.6321 105.622 19.3679C104.969 18.0966 104.642 16.6229 104.642 14.9467C104.642 13.2564 104.969 11.7791 105.622 10.5149C106.275 9.24361 107.202 8.25639 108.403 7.55327C109.61 6.84304 111.041 6.48793 112.696 6.48793C114.351 6.48793 115.778 6.84304 116.979 7.55327C118.186 8.25639 119.116 9.24361 119.77 10.5149C120.423 11.7791 120.75 13.2564 120.75 14.9467C120.75 16.6229 120.423 18.0966 119.77 19.3679C119.116 20.6321 118.186 21.6193 116.979 22.3295C115.778 23.0327 114.351 23.3842 112.696 23.3842ZM112.717 19.8686C113.47 19.8686 114.099 19.6555 114.603 19.2294C115.107 18.7962 115.487 18.2067 115.743 17.4609C116.006 16.7152 116.137 15.8665 116.137 14.9148C116.137 13.9631 116.006 13.1143 115.743 12.3686C115.487 11.6229 115.107 11.0334 114.603 10.6001C114.099 10.1669 113.47 9.95028 112.717 9.95028C111.957 9.95028 111.318 10.1669 110.8 10.6001C110.288 11.0334 109.901 11.6229 109.638 12.3686C109.383 13.1143 109.255 13.9631 109.255 14.9148C109.255 15.8665 109.383 16.7152 109.638 17.4609C109.901 18.2067 110.288 18.7962 110.8 19.2294C111.318 19.6555 111.957 19.8686 112.717 19.8686Z" fill="#FDFDE1"/>
<path fill-rule="evenodd" clip-rule="evenodd" d="M0 0C0 6.62742 5.37258 12 12 12C5.37258 12 0 17.3726 0 24H1.44C1.44 18.1679 6.16787 13.44 12 13.44C17.8321 13.44 22.56 18.1679 22.56 24H24C24 17.3726 18.6274 12 12 12C18.6274 12 24 6.62742 24 0H22.56C22.56 5.83213 17.8321 10.56 12 10.56C6.16787 10.56 1.44 5.83213 1.44 0H0ZM2.88 0C2.88 5.03683 6.96317 9.12 12 9.12C17.0369 9.12 21.12 5.03683 21.12 0H19.68C19.68 4.24154 16.2415 7.68 12 7.68C7.75846 7.68 4.32 4.24154 4.32 0H2.88ZM5.76 0C5.76 3.44626 8.55374 6.24 12 6.24C15.4463 6.24 18.24 3.44626 18.24 0H16.8C16.8 2.65097 14.6509 4.8 12 4.8C9.34903 4.8 7.2 2.65097 7.2 0H5.76ZM12 14.88C17.0369 14.88 21.12 18.9631 21.12 24H19.68C19.68 19.7585 16.2415 16.32 12 16.32C7.75846 16.32 4.32 19.7585 4.32 24H2.88C2.88 18.9631 6.96317 14.88 12 14.88ZM12 17.76C15.4463 17.76 18.24 20.5537 18.24 24H16.8C16.8 21.3491 14.6509 19.2 12 19.2C9.34903 19.2 7.2 21.3491 7.2 24H5.76C5.76 20.5537 8.55374 17.76 12 17.76Z" fill="#FDFDE1"/>
</svg>
