<svg width="32" height="30" viewBox="0 0 32 30" fill="none" xmlns="http://www.w3.org/2000/svg">
<path d="M29.0642 13.2737C29.8487 12.7047 29.4462 11.4641 28.4771 11.4641H20.2295C19.7959 11.4641 19.4117 11.1847 19.2782 10.7721L16.7392 2.92992C16.4408 2.00811 15.137 2.00699 14.837 2.92827L12.2824 10.7725C12.1481 11.1848 11.7633 11.4636 11.3297 11.4628L3.08402 11.4478C2.11469 11.446 1.71006 12.6862 2.49392 13.2564L9.16353 18.1084C9.51388 18.3633 9.66026 18.8148 9.5261 19.2267L6.97271 27.0672C6.67253 27.9889 7.72794 28.7557 8.51184 28.1855L15.1804 23.3343C15.5311 23.0791 16.0063 23.0791 16.3569 23.3343L23.0328 28.1908C23.816 28.7606 24.8708 27.9956 24.5725 27.0742L22.0319 19.2269C21.8985 18.8149 22.0456 18.3637 22.3962 18.1094L29.0642 13.2737Z" fill="#02854C"/>
<path d="M21.6179 21.3928C22.1743 21.2484 22.4947 20.6656 22.3184 20.1184L22.2316 19.8486C22.023 19.201 21.2426 18.9462 20.6921 19.3461L20.0657 19.801C19.1719 20.4501 19.8354 21.8556 20.9046 21.578L21.6179 21.3928Z" fill="#02854C"/>
</svg>
