<svg width="30" height="31" viewBox="0 0 30 31" fill="none" xmlns="http://www.w3.org/2000/svg">
<rect x="9" y="10.3486" width="12" height="11" fill="#FEF6E0"/>
<path fill-rule="evenodd" clip-rule="evenodd" d="M15 27.3486C21.6274 27.3486 27 21.9761 27 15.3486C27 8.72122 21.6274 3.34863 15 3.34863C8.37258 3.34863 3 8.72122 3 15.3486C3 21.9761 8.37258 27.3486 15 27.3486ZM20.5607 13.4093C21.1464 12.8235 21.1464 11.8738 20.5607 11.288C19.9749 10.7022 19.0251 10.7022 18.4393 11.288L13.5 16.2273L11.5607 14.288C10.9749 13.7022 10.0251 13.7022 9.43934 14.288C8.85355 14.8738 8.85355 15.8235 9.43934 16.4093L12.4393 19.4093C13.0251 19.9951 13.9749 19.9951 14.5607 19.4093L20.5607 13.4093Z" fill="#FF5317"/>
</svg>
