<svg width="26" height="24" viewBox="0 0 26 24" fill="none" xmlns="http://www.w3.org/2000/svg">
<path d="M5.93455 3.40214C5.93422 4.07567 5.66634 4.72148 5.18984 5.1975C4.71335 5.67351 4.06727 5.94075 3.39374 5.94041C2.72021 5.94008 2.0744 5.67219 1.59839 5.1957C1.12237 4.71921 0.855132 4.07313 0.855469 3.3996C0.855806 2.72607 1.12369 2.08026 1.60018 1.60425C2.07668 1.12823 2.72275 0.860992 3.39628 0.861328C4.06981 0.861665 4.71562 1.12955 5.19164 1.60604C5.66765 2.08254 5.93489 2.72861 5.93455 3.40214ZM6.01074 7.82094H0.931655V23.7185H6.01074V7.82094ZM14.0357 7.82094H8.982V23.7185H13.9849V15.3761C13.9849 10.7287 20.0417 10.297 20.0417 15.3761V23.7185H25.0573V13.6492C25.0573 5.8147 16.0927 6.10675 13.9849 9.95416L14.0357 7.82094Z" fill="#FF4612"/>
</svg>
