<svg width="21" height="22" viewBox="0 0 21 22" fill="none" xmlns="http://www.w3.org/2000/svg">
<path d="M11.7042 0.822546C12.4496 0.819685 13.1951 0.827178 13.9404 0.845021L14.1386 0.852172C14.3674 0.860345 14.5932 0.870561 14.866 0.88282C15.9529 0.933899 16.6946 1.10553 17.3454 1.35786C18.0196 1.61734 18.5876 1.96877 19.1556 2.53677C19.675 3.04716 20.0769 3.66455 20.3335 4.346C20.5858 4.99675 20.7575 5.73945 20.8086 6.82642C20.8208 7.09816 20.831 7.32495 20.8392 7.55379L20.8453 7.75198C20.8635 8.49691 20.8713 9.24206 20.8688 9.98721L20.8698 10.7493V12.0876C20.8724 12.8331 20.8645 13.5786 20.8464 14.3238L20.8402 14.522C20.8321 14.7509 20.8218 14.9766 20.8096 15.2494C20.7585 16.3364 20.5848 17.078 20.3335 17.7288C20.0778 18.411 19.6757 19.0289 19.1556 19.5391C18.6448 20.0583 18.0271 20.4603 17.3454 20.7169C16.6946 20.9693 15.9529 21.1409 14.866 21.192C14.5932 21.2042 14.3674 21.2145 14.1386 21.2226L13.9404 21.2288C13.1951 21.2469 12.4497 21.2548 11.7042 21.2523L10.9421 21.2533H9.6048C8.85931 21.2558 8.11382 21.248 7.36854 21.2298L7.17035 21.2237C6.92784 21.2149 6.68538 21.2046 6.44298 21.193C5.35601 21.1419 4.61434 20.9683 3.96257 20.7169C3.28085 20.4609 2.66335 20.0589 2.15334 19.5391C1.63339 19.0286 1.23107 18.4108 0.974423 17.7288C0.722091 17.078 0.550464 16.3364 0.499385 15.2494C0.488007 15.007 0.477791 14.7645 0.468737 14.522L0.463629 14.3238C0.444795 13.5786 0.436281 12.8331 0.438089 12.0876V9.98721C0.435238 9.24206 0.442731 8.49691 0.460564 7.75198L0.467716 7.55379C0.475888 7.32495 0.486104 7.09816 0.498363 6.82642C0.549443 5.73843 0.721069 4.99778 0.973401 4.346C1.2302 3.66421 1.63331 3.047 2.15436 2.53779C2.66402 2.01755 3.28113 1.61486 3.96257 1.35786C4.61434 1.10553 5.35499 0.933899 6.44298 0.88282L7.17035 0.852172L7.36854 0.847064C8.11347 0.828239 8.85862 0.819725 9.60378 0.821525L11.7042 0.822546ZM10.654 5.93048C9.97717 5.92091 9.30522 6.04595 8.67717 6.29833C8.04912 6.5507 7.47749 6.92539 6.9955 7.40061C6.51352 7.87582 6.13079 8.4421 5.86955 9.06652C5.60832 9.69094 5.47379 10.361 5.47379 11.0379C5.47379 11.7148 5.60832 12.3849 5.86955 13.0093C6.13079 13.6337 6.51352 14.2 6.9955 14.6752C7.47749 15.1504 8.04912 15.5251 8.67717 15.7775C9.30522 16.0299 9.97717 16.1549 10.654 16.1453C12.0087 16.1453 13.3079 15.6072 14.2658 14.6493C15.2238 13.6913 15.7619 12.3921 15.7619 11.0374C15.7619 9.68269 15.2238 8.38347 14.2658 7.42554C13.3079 6.46762 12.0087 5.93048 10.654 5.93048ZM10.654 7.97366C11.0611 7.96616 11.4656 8.03986 11.8439 8.19045C12.2222 8.34104 12.5667 8.56551 12.8573 8.85074C13.1479 9.13597 13.3787 9.47624 13.5363 9.85169C13.6939 10.2271 13.7751 10.6302 13.7752 11.0374C13.7753 11.4446 13.6942 11.8477 13.5367 12.2232C13.3792 12.5987 13.1485 12.939 12.858 13.2244C12.5675 13.5097 12.2231 13.7343 11.8449 13.885C11.4666 14.0357 11.0621 14.1095 10.655 14.1022C9.84217 14.1022 9.06263 13.7793 8.48788 13.2045C7.91312 12.6298 7.59023 11.8502 7.59023 11.0374C7.59023 10.2246 7.91312 9.44504 8.48788 8.87029C9.06263 8.29553 9.84217 7.97264 10.655 7.97264L10.654 7.97366ZM16.0173 4.3981C15.6877 4.41129 15.376 4.5515 15.1475 4.78934C14.919 5.02719 14.7914 5.34423 14.7914 5.67407C14.7914 6.0039 14.919 6.32094 15.1475 6.55879C15.376 6.79664 15.6877 6.93684 16.0173 6.95003C16.356 6.95003 16.6808 6.81549 16.9203 6.57601C17.1598 6.33653 17.2943 6.01172 17.2943 5.67304C17.2943 5.33437 17.1598 5.00956 16.9203 4.77008C16.6808 4.5306 16.356 4.39606 16.0173 4.39606V4.3981Z" fill="#FF4612"/>
</svg>
