<svg width="41" height="45" viewBox="0 0 41 45" fill="none" xmlns="http://www.w3.org/2000/svg">
<path d="M28.8748 39.9517C29.2552 42.3365 31.8104 43.7263 34.0199 42.7461C36.3512 43.4688 38.5827 44.2774 40.9141 45.0001C40.722 44.2387 40.5299 43.4771 40.3379 42.7157C37.892 42.0058 35.4043 41.3192 32.9565 40.6105C33.8064 37.6253 32.7058 31.5485 31.9618 29.7361C33.7908 30.7585 34.5166 31.0441 37.2144 31.5219C37.4956 31.5713 37.7575 31.383 37.8059 31.1085C37.855 30.8307 37.67 30.5662 37.3925 30.5171C34.3919 29.9857 34.0359 29.7417 31.3329 28.2078C31.194 28.129 31.0365 28.1295 30.8984 28.1834C30.4812 27.7707 29.9988 27.4736 29.5347 27.5286C28.5723 27.6331 28.3976 29.1543 28.2754 30.2317C27.4488 30.0438 26.7308 29.8701 25.9923 29.6924C23.2494 29.0334 22.2531 29.8829 19.0721 27.815C18.6571 27.5453 14.7424 23.6464 12.6467 25.3503C10.98 26.7083 13.1598 29.3841 15.15 30.8826C15.9807 31.5072 16.9082 32.2223 17.7404 33.2007C17.5085 33.3959 16.5485 33.7042 14.6891 33.1859C13.319 32.8043 11.8564 32.5521 10.5281 32.106L2.66592 29.4698C0.755942 28.8285 -0.127176 29.8328 0.0147346 30.8945C0.0950675 31.492 0.514415 32.0648 0.929351 32.516C6.44931 40.0424 17.226 43.7031 28.8748 39.9517ZM32.3477 38.3859C32.321 38.7588 32.0009 40.461 31.8546 40.7078C31.5246 40.5367 30.8824 39.8274 30.7562 38.7252C31.2902 38.6175 31.8208 38.5045 32.3477 38.3859ZM29.6848 28.5507C29.9882 28.6322 30.8057 29.3587 31.2378 30.8248C30.6354 30.7287 29.9737 30.6005 29.2958 30.4563C29.2755 30.3164 29.4877 28.816 29.6848 28.5507ZM2.34163 30.4373L10.2035 33.0736C11.6015 33.5431 13.0211 33.7816 14.4153 34.1694C17.7126 35.0861 21.3023 34.2347 15.7637 30.0665C14.4365 29.0684 12.3821 26.8851 13.265 26.1597C15.1878 25.2412 17.4176 27.9573 18.5159 28.671C21.9377 30.8959 23.1572 30.0597 25.7534 30.6852C27.4443 31.0921 29.7807 31.6579 31.4894 31.8973C31.5007 31.899 31.5109 31.8947 31.5221 31.8953C31.9329 33.6554 32.1191 35.4691 32.2873 37.3539C21.3921 39.8364 9.40818 40.0909 1.69968 31.871C1.31463 31.4604 1.06974 31.0812 1.0265 30.759C0.940823 30.1195 1.7155 30.2281 2.34163 30.4373Z" fill="black"/>
<path d="M10.0036 0.192487C9.85687 0.0138579 9.57938 -0.013807 9.46262 0.00508588C6.92806 0.439696 3.86552 2.28313 3.18304 4.84228C3.16482 4.91052 2.95839 6.17092 2.95377 6.23898C2.94019 6.38186 3.14433 6.69502 3.22598 6.80384C5.57286 9.726 7.66058 12.6919 10.0631 15.6105C9.63056 16.1073 11.3699 14.0827 7.10416 19.0894C7.02454 19.1829 6.99165 19.2971 6.98953 19.411C6.98891 19.4178 6.98492 19.4233 6.98455 19.4303C6.95996 19.9201 6.38114 24.2064 6.04588 25.5886C5.99804 25.7866 6.07213 25.994 6.23494 26.1169C6.40064 26.2412 6.62207 26.2515 6.79449 26.1521C7.80939 25.5744 11.245 23.9706 12.2414 23.476C12.3255 23.4345 12.3856 23.3687 12.4337 23.2956C12.4354 23.2938 12.4378 23.2933 12.4394 23.2913C13.0448 22.5854 13.7428 21.7683 14.4984 20.8674C16.3466 23.0168 18.1969 25.1706 19.8776 27.3003C20.2803 27.7879 21.1886 27.8288 21.8221 27.8288C23.6927 27.8288 26.9503 25.9496 28.2362 22.9397C28.4996 22.3271 28.2151 22.2843 28.1452 22.1237C27.0585 20.797 20.9133 13.375 20.8552 13.3049C27.1248 5.87593 24.9624 8.43818 25.4302 7.88389C26.5295 6.59926 25.7934 4.35657 24.4341 3.45804C23.4446 2.77615 21.3564 2.34542 20.4834 3.34175C20.4236 3.41207 16.2227 8.35444 16.4865 8.04404C13.9103 4.93132 11.7829 2.36267 10.0036 0.192487ZM9.39604 1.06021C10.0858 1.90086 10.7897 2.74931 11.4866 3.59361C11.4819 3.59726 11.4759 3.59826 11.4712 3.60225L9.96136 4.90674C9.74771 5.09082 9.72412 5.41312 9.9082 5.62644C10.0928 5.84021 10.416 5.86305 10.6279 5.67894L12.1344 4.37843C12.6858 5.04563 13.2305 5.70884 13.7844 6.37771L12.2849 7.66459C12.0709 7.848 12.0464 8.17031 12.2298 8.38429C12.4128 8.59741 12.7342 8.62356 12.9495 8.43944L14.4349 7.16519L15.8151 8.83335C15.8064 8.84481 15.7965 8.85528 15.7887 8.86741L11.5283 13.8917C6.3854 7.55354 4.74047 5.56079 4.2267 4.93166C4.80091 3.19738 6.9978 1.55147 9.39604 1.06021ZM9.66564 23.5827C9.57164 23.3559 8.19582 22.2528 7.65698 22.2174C7.75849 21.517 7.84795 20.8552 7.91088 20.349C8.21191 20.3457 8.51133 20.355 8.74392 20.461C8.92501 20.5434 9.06323 20.7242 9.04031 20.8478C8.97855 21.1809 9.25361 21.4753 9.56961 21.4512C10.2696 21.4086 10.9639 21.8262 11.1591 22.8673C10.6268 23.1234 10.2418 23.3066 9.66564 23.5827ZM23.1502 17.6809L21.7463 18.8196C21.5274 18.997 21.4941 19.3187 21.6716 19.5373C21.8481 19.7545 22.1695 19.7909 22.3896 19.6117L23.8004 18.4674C24.5377 19.3589 25.2769 20.2515 26.0116 21.1425L24.1819 22.5696C23.9596 22.743 23.9201 23.064 24.0935 23.286C24.2681 23.5096 24.588 23.5471 24.8099 23.375L26.6623 21.93C26.8587 22.1662 27.0532 22.4025 27.2468 22.6387C26.3013 24.7513 24.2733 26.3352 21.9994 26.759C19.9031 24.204 18.4263 22.3941 15.8715 19.2412C16.2331 18.8122 17.7096 17.0433 20.1994 14.1135L20.8404 14.8877C20.6546 14.9768 20.9557 14.7786 18.9725 16.4232C18.7566 16.604 18.7283 16.9263 18.9094 17.1423C19.0912 17.3587 19.414 17.3856 19.6284 17.2047C21.61 15.5204 21.3389 15.8013 21.4597 15.6358C22.0252 16.3187 22.586 16.9991 23.1502 17.6809ZM12.0449 22.1828C11.8355 21.5335 11.3985 20.9916 10.7331 20.6765C11.3812 19.922 10.9978 20.3631 21.9056 7.6194C22.7596 8.17613 22.952 8.16383 23.5509 8.52484C22.1288 10.1936 13.8769 20.0412 12.0449 22.1828ZM19.8481 5.65934C20.2667 6.18133 20.6524 6.61794 21.0905 7.00188C19.348 9.03554 9.91349 20.0649 9.854 20.134C9.49001 19.5589 8.91175 19.3652 8.2355 19.3351C12.1105 14.7897 14.543 11.9148 19.8481 5.65934Z" fill="black"/>
</svg>
