<svg width="17" height="18" viewBox="0 0 17 18" fill="none" xmlns="http://www.w3.org/2000/svg">
<path d="M9.5163 0.74418C10.1188 0.741868 10.7214 0.747924 11.3237 0.762345L11.4839 0.768125C11.6689 0.77473 11.8513 0.782987 12.0718 0.792895C12.9503 0.83418 13.5498 0.972895 14.0757 1.17684C14.6207 1.38656 15.0798 1.6706 15.5389 2.12968C15.9586 2.5422 16.2835 3.04119 16.4909 3.59197C16.6948 4.11793 16.8335 4.71821 16.8748 5.59674C16.8847 5.81637 16.893 5.99967 16.8996 6.18463L16.9045 6.34481C16.9192 6.94689 16.9255 7.54915 16.9235 8.15141L16.9244 8.76737V9.84902C16.9264 10.4516 16.9201 11.0541 16.9054 11.6564L16.9004 11.8166C16.8938 12.0016 16.8856 12.1841 16.8756 12.4045C16.8344 13.2831 16.694 13.8825 16.4909 14.4085C16.2842 14.9598 15.9592 15.4592 15.5389 15.8716C15.126 16.2913 14.6267 16.6161 14.0757 16.8236C13.5498 17.0275 12.9503 17.1663 12.0718 17.2075C11.8513 17.2174 11.6689 17.2257 11.4839 17.2323L11.3237 17.2373C10.7214 17.2519 10.1188 17.2583 9.5163 17.2563L8.90034 17.2571H7.81951C7.21698 17.2591 6.61445 17.2528 6.01209 17.2381L5.8519 17.2331C5.6559 17.226 5.45993 17.2178 5.26402 17.2084C4.38549 17.1671 3.78604 17.0267 3.25925 16.8236C2.70826 16.6166 2.20917 16.2917 1.79696 15.8716C1.37672 15.459 1.05155 14.9597 0.844118 14.4085C0.640174 13.8825 0.501458 13.2831 0.460174 12.4045C0.450978 12.2086 0.442721 12.0126 0.435403 11.8166L0.431275 11.6564C0.416052 11.0541 0.409171 10.4516 0.410633 9.84902V8.15141C0.408328 7.54916 0.414384 6.9469 0.428798 6.34481L0.434578 6.18463C0.441183 5.99967 0.44944 5.81637 0.459348 5.59674C0.500632 4.71738 0.639348 4.11876 0.843292 3.59197C1.05085 3.04093 1.37666 2.54207 1.79779 2.13051C2.20972 1.71003 2.70849 1.38456 3.25925 1.17684C3.78604 0.972895 4.38466 0.83418 5.26402 0.792895L5.8519 0.768125L6.01209 0.763997C6.61416 0.748782 7.21642 0.7419 7.81869 0.743354L9.5163 0.74418ZM8.66749 4.87261C8.12048 4.86487 7.57739 4.96593 7.06977 5.16991C6.56216 5.37389 6.10014 5.67673 5.71058 6.06082C5.32102 6.44491 5.01169 6.90259 4.80055 7.40727C4.58941 7.91195 4.48068 8.45356 4.48068 9.00063C4.48068 9.5477 4.58941 10.0893 4.80055 10.594C5.01169 11.0987 5.32102 11.5564 5.71058 11.9404C6.10014 12.3245 6.56216 12.6274 7.06977 12.8313C7.57739 13.0353 8.12048 13.1364 8.66749 13.1286C9.76242 13.1286 10.8125 12.6937 11.5867 11.9195C12.361 11.1452 12.7959 10.0951 12.7959 9.00022C12.7959 7.90529 12.361 6.85521 11.5867 6.08097C10.8125 5.30674 9.76242 4.87261 8.66749 4.87261ZM8.66749 6.52398C8.99654 6.51792 9.32349 6.57749 9.62925 6.6992C9.93501 6.82091 10.2135 7.00234 10.4483 7.23287C10.6832 7.46341 10.8697 7.73843 10.9971 8.04188C11.1245 8.34532 11.1901 8.67111 11.1902 9.00021C11.1902 9.32931 11.1247 9.65512 10.9974 9.95861C10.8702 10.2621 10.6837 10.5372 10.4489 10.7678C10.2141 10.9984 9.93574 11.1799 9.63002 11.3017C9.3243 11.4236 8.99736 11.4832 8.66832 11.4773C8.01136 11.4773 7.38131 11.2163 6.91678 10.7518C6.45224 10.2872 6.19126 9.65717 6.19126 9.00022C6.19126 8.34326 6.45224 7.71321 6.91678 7.24867C7.38131 6.78413 8.01136 6.52316 8.66832 6.52316L8.66749 6.52398ZM13.0023 3.63408C12.736 3.64474 12.4841 3.75806 12.2994 3.9503C12.1147 4.14253 12.0115 4.39878 12.0115 4.66536C12.0115 4.93195 12.1147 5.18819 12.2994 5.38043C12.4841 5.57267 12.736 5.68598 13.0023 5.69665C13.2761 5.69665 13.5386 5.58791 13.7322 5.39435C13.9257 5.20079 14.0345 4.93827 14.0345 4.66454C14.0345 4.39081 13.9257 4.12829 13.7322 3.93473C13.5386 3.74117 13.2761 3.63243 13.0023 3.63243V3.63408Z" fill="black"/>
</svg>
