<svg width="23" height="19" viewBox="0 0 23 19" fill="none" xmlns="http://www.w3.org/2000/svg">
<path d="M22.9177 2.11439C22.0813 2.48611 21.1985 2.71844 20.2692 2.85784C21.1985 2.30025 21.9419 1.4174 22.2672 0.348697C21.3844 0.859818 20.4086 1.23154 19.3399 1.46387C18.5035 0.581024 17.2954 0.0234375 15.9944 0.0234375C13.4852 0.0234375 11.4407 2.06792 11.4407 4.57706C11.4407 4.94879 11.4872 5.27404 11.5801 5.5993C7.81642 5.41344 4.42443 3.60129 2.14762 0.813352C1.7759 1.51034 1.54357 2.25378 1.54357 3.09016C1.54357 4.66999 2.33348 6.06396 3.58805 6.90034C2.8446 6.85387 2.14762 6.66801 1.4971 6.34275V6.38922C1.4971 8.61956 3.07693 10.4782 5.16788 10.8964C4.79616 10.9893 4.37797 11.0358 3.95978 11.0358C3.68098 11.0358 3.35573 10.9893 3.07693 10.9428C3.68098 12.755 5.35374 14.1025 7.35176 14.1025C5.77193 15.3106 3.82038 16.0541 1.68297 16.0541C1.31124 16.0541 0.939517 16.0541 0.614258 16.0076C2.65874 17.3086 5.02849 18.0521 7.63056 18.0521C16.0408 18.0521 20.6409 11.0822 20.6409 5.04172C20.6409 4.85585 20.6409 4.62353 20.6409 4.43766C21.5238 3.83361 22.3137 3.0437 22.9177 2.11439Z" fill="#FF4612"/>
</svg>
