<svg width="18" height="17" viewBox="0 0 18 17" fill="none" xmlns="http://www.w3.org/2000/svg">
<path d="M4.19596 2.47092C4.19574 2.92892 4.01358 3.36807 3.68956 3.69176C3.36554 4.01545 2.92621 4.19717 2.46821 4.19694C2.01021 4.19671 1.57106 4.01455 1.24737 3.69054C0.923678 3.36652 0.741959 2.92719 0.742188 2.46919C0.742417 2.01119 0.924576 1.57204 1.24859 1.24835C1.57261 0.924655 2.01194 0.742935 2.46994 0.743164C2.92794 0.743393 3.36709 0.925552 3.69078 1.24957C4.01447 1.57358 4.19619 2.01292 4.19596 2.47092ZM4.24777 5.4757H0.793994V16.286H4.24777V5.4757ZM9.70474 5.4757H6.26823V16.286H9.6702V10.6132C9.6702 7.45299 13.7888 7.15942 13.7888 10.6132V16.286H17.1994V9.43891C17.1994 4.11146 11.1035 4.31005 9.6702 6.92629L9.70474 5.4757Z" fill="black"/>
</svg>
