<svg width="19" height="15" viewBox="0 0 19 15" fill="none" xmlns="http://www.w3.org/2000/svg">
<path d="M18.5567 1.73969C17.8608 2.04897 17.1263 2.24227 16.3531 2.35825C17.1263 1.89433 17.7448 1.15979 18.0155 0.270619C17.2809 0.695876 16.4691 1.00515 15.5799 1.19845C14.884 0.463917 13.8789 0 12.7964 0C10.7088 0 9.00773 1.70103 9.00773 3.78866C9.00773 4.09794 9.04639 4.36856 9.12371 4.63917C5.99227 4.48454 3.1701 2.9768 1.27577 0.657217C0.966495 1.23711 0.773196 1.85567 0.773196 2.55155C0.773196 3.86598 1.43041 5.02577 2.47423 5.72165C1.85567 5.68299 1.27577 5.52835 0.734536 5.25773V5.29639C0.734536 7.15206 2.04897 8.69845 3.78866 9.04639C3.47938 9.12371 3.13144 9.16237 2.7835 9.16237C2.55155 9.16237 2.28093 9.12371 2.04897 9.08505C2.55155 10.5928 3.9433 11.7139 5.60567 11.7139C4.29124 12.7191 2.66753 13.3376 0.889175 13.3376C0.579897 13.3376 0.270619 13.3376 0 13.299C1.70103 14.3814 3.67268 15 5.83763 15C12.8351 15 16.6624 9.20103 16.6624 4.17526C16.6624 4.02062 16.6624 3.82732 16.6624 3.67268C17.3969 3.1701 18.0541 2.51289 18.5567 1.73969Z" fill="#FBD718"/>
</svg>
