<svg width="30" height="30" viewBox="0 0 30 30" fill="none" xmlns="http://www.w3.org/2000/svg">
<path d="M3 4.5C3 3.67157 3.67157 3 4.5 3H7.72931C8.46257 3 9.08835 3.53012 9.2089 4.2534L10.3179 10.9072C10.4261 11.5568 10.0981 12.201 9.5091 12.4955L7.18689 13.6566C8.86134 17.8175 12.1825 21.1387 16.3434 22.8131L17.5045 20.4909C17.799 19.9019 18.4432 19.5739 19.0928 19.6821L25.7466 20.7911C26.4699 20.9116 27 21.5374 27 22.2707V25.5C27 26.3284 26.3284 27 25.5 27H22.5C11.7304 27 3 18.2696 3 7.5V4.5Z" fill="#FCF9F0"/>
</svg>
