<svg width="37" height="35" viewBox="0 0 37 35" fill="none" xmlns="http://www.w3.org/2000/svg">
<path d="M31.8288 16.9939C33.3979 15.8559 32.5929 13.3748 30.6546 13.3748H24.2071C23.3399 13.3748 22.5714 12.8159 22.3043 11.9908L20.3194 5.85984C19.7225 4.01623 17.115 4.01397 16.5149 5.85655L14.517 11.9915C14.2484 12.8162 13.4789 13.3737 12.6116 13.3722L6.16788 13.3604C4.2292 13.3569 3.41995 15.8373 4.98768 16.9777L10.201 20.7703C10.9017 21.28 11.1944 22.183 10.9261 23.0069L8.93061 29.1343C8.33025 30.9778 10.4411 32.5115 12.0089 31.371L17.22 27.5799C17.9214 27.0697 18.8718 27.0697 19.5732 27.5799L24.799 31.3816C26.3654 32.5211 28.475 30.9911 27.8784 29.1483L25.8902 23.0073C25.6234 22.1831 25.9175 21.2809 26.6188 20.7723L31.8288 16.9939Z" fill="black"/>
<path d="M25.0817 24.996C25.8063 24.8079 26.2235 24.049 25.994 23.3364C25.7224 22.4931 24.7061 22.1613 23.9892 22.6819C22.8253 23.5273 23.6894 25.3575 25.0817 24.996Z" fill="black"/>
</svg>
