<svg width="45" height="40" viewBox="0 0 45 40" fill="none" xmlns="http://www.w3.org/2000/svg">
<path d="M19.3714 3.15774C11.6973 8.06978 7.86122 13.9896 7.86122 20.9093C7.86122 23.0632 8.23742 24.1392 8.98592 24.1392L9.75781 23.9306C10.366 23.6967 10.8552 23.5797 11.2314 23.5797C13.4282 23.5797 15.2663 24.3789 16.738 25.9773C18.2116 27.5757 18.9484 29.5444 18.9484 31.8951C18.9484 34.1504 18.1492 36.0665 16.5606 37.6395C14.97 39.2125 13.052 39.9981 10.8065 39.9981C7.67214 39.9981 5.08552 38.7116 3.04858 36.1327C1.01555 33.5598 0 30.3241 0 26.4315C0 22.0262 0.861556 17.9972 2.59247 14.3404C4.32727 10.6856 6.96652 7.38171 10.5219 4.42863C14.0773 1.47751 16.3462 0 17.3286 0C17.9835 0 18.5215 0.315774 18.9425 0.947322C19.3636 1.57692 19.5741 2.1266 19.5741 2.59442L19.3655 3.15579L19.3714 3.15774ZM44.6333 3.15774C36.9592 8.06978 33.1251 13.9876 33.1251 20.9113C33.1251 23.0652 33.5013 24.1411 34.2498 24.1411L35.0217 23.9326C35.6298 23.6987 36.1191 23.5817 36.4953 23.5817C38.6453 23.5817 40.4717 24.3809 41.9668 25.9792C43.4677 27.5776 44.2123 29.5463 44.2123 31.8971C44.2123 34.1523 43.4131 36.0684 41.8245 37.6414C40.2339 39.2145 38.3159 40 36.0704 40C32.936 40 30.3494 38.7135 28.3125 36.1347C26.2794 33.5617 25.2639 30.326 25.2639 26.4334C25.2639 21.9814 26.1371 17.9153 27.8953 14.2391C29.6496 10.5609 32.2908 7.2667 35.8228 4.36236C39.3607 1.45607 41.6159 0.00195001 42.5964 0.00195001C43.2533 0.00195001 43.7912 0.317723 44.2142 0.949272C44.6333 1.58082 44.8438 2.1305 44.8438 2.59831L44.6333 3.15774Z" fill="#3256D2"/>
</svg>
