<svg width="26" height="26" viewBox="0 0 26 26" fill="none" xmlns="http://www.w3.org/2000/svg">
<path d="M14.2469 0.862822C15.1329 0.859422 16.019 0.868327 16.9048 0.889536L17.1404 0.898035C17.4124 0.907749 17.6807 0.919892 18.0049 0.934463C19.2969 0.995175 20.1784 1.19917 20.9519 1.49909C21.7533 1.8075 22.4284 2.2252 23.1036 2.90032C23.7208 3.50697 24.1986 4.24079 24.5036 5.05075C24.8035 5.82422 25.0075 6.70698 25.0682 7.99894C25.0828 8.32192 25.0949 8.59149 25.1046 8.86348L25.1119 9.09904C25.1335 9.98446 25.1428 10.8701 25.1398 11.7558L25.1411 12.6616V14.2523C25.1441 15.1384 25.1347 16.0245 25.1131 16.9103L25.1059 17.1458C25.0961 17.4178 25.084 17.6862 25.0694 18.0104C25.0087 19.3023 24.8023 20.1839 24.5036 20.9574C24.1996 21.7682 23.7217 22.5026 23.1036 23.109C22.4964 23.7262 21.7622 24.2039 20.9519 24.509C20.1784 24.8089 19.2969 25.0129 18.0049 25.0736C17.6807 25.0882 17.4124 25.1004 17.1404 25.1101L16.9048 25.1174C16.019 25.1389 15.1329 25.1482 14.2469 25.1453L13.341 25.1465H11.7516C10.8655 25.1495 9.97943 25.1402 9.09361 25.1186L8.85804 25.1113C8.56979 25.1008 8.28161 25.0887 7.9935 25.0749C6.70154 25.0141 5.82 24.8077 5.04531 24.509C4.23503 24.2047 3.50108 23.7268 2.89489 23.109C2.27689 22.5022 1.7987 21.7679 1.49365 20.9574C1.19373 20.1839 0.989736 19.3023 0.929024 18.0104C0.915501 17.7223 0.903358 17.4341 0.892597 17.1458L0.886526 16.9103C0.864139 16.0245 0.854019 15.1384 0.856169 14.2523V11.7558C0.85278 10.8701 0.861686 9.98446 0.882883 9.09904L0.891383 8.86348C0.901096 8.59149 0.913239 8.32192 0.92781 7.99894C0.988522 6.70577 1.19252 5.82544 1.49243 5.05075C1.79766 4.24039 2.27679 3.50677 2.8961 2.90154C3.50188 2.28319 4.23537 1.80456 5.04531 1.49909C5.82 1.19917 6.70033 0.995175 7.9935 0.934463L8.85804 0.898035L9.09361 0.891964C9.97901 0.869589 10.8647 0.859469 11.7504 0.861608L14.2469 0.862822ZM12.9986 6.93404C12.1942 6.92267 11.3955 7.07128 10.649 7.37125C9.90253 7.67123 9.2231 8.11657 8.65022 8.68141C8.07733 9.24625 7.62243 9.91931 7.31193 10.6615C7.00143 11.4037 6.84153 12.2001 6.84153 13.0047C6.84153 13.8092 7.00143 14.6057 7.31193 15.3478C7.62243 16.09 8.07733 16.7631 8.65022 17.3279C9.2231 17.8927 9.90253 18.3381 10.649 18.6381C11.3955 18.938 12.1942 19.0867 12.9986 19.0753C14.6088 19.0753 16.153 18.4356 17.2916 17.2971C18.4302 16.1585 19.0698 14.6142 19.0698 13.0041C19.0698 11.3939 18.4302 9.84962 17.2916 8.71105C16.153 7.57247 14.6088 6.93404 12.9986 6.93404ZM12.9986 9.36253C13.4825 9.35362 13.9633 9.44121 14.413 9.6202C14.8626 9.7992 15.2721 10.066 15.6175 10.405C15.9629 10.744 16.2372 11.1485 16.4245 11.5947C16.6119 12.041 16.7084 12.5201 16.7085 13.004C16.7085 13.488 16.6122 13.9671 16.425 14.4134C16.2378 14.8598 15.9636 15.2643 15.6183 15.6034C15.2731 15.9426 14.8637 16.2095 14.4141 16.3886C13.9645 16.5678 13.4837 16.6555 12.9998 16.6468C12.0337 16.6468 11.1072 16.263 10.424 15.5799C9.74088 14.8967 9.3571 13.9702 9.3571 13.0041C9.3571 12.0379 9.74088 11.1114 10.424 10.4282C11.1072 9.7451 12.0337 9.36132 12.9998 9.36132L12.9986 9.36253ZM19.3734 5.11268C18.9817 5.12836 18.6112 5.295 18.3396 5.5777C18.068 5.8604 17.9163 6.23723 17.9163 6.62927C17.9163 7.02131 18.068 7.39814 18.3396 7.68084C18.6112 7.96354 18.9817 8.13018 19.3734 8.14586C19.7759 8.14586 20.162 7.98595 20.4467 7.7013C20.7313 7.41666 20.8912 7.0306 20.8912 6.62805C20.8912 6.22551 20.7313 5.83945 20.4467 5.5548C20.162 5.27016 19.7759 5.11025 19.3734 5.11025V5.11268Z" fill="#1B1B1B"/>
</svg>
