<svg width="40" height="40" viewBox="0 0 40 40" fill="none" xmlns="http://www.w3.org/2000/svg">
<path d="M29.4274 27.7614C27.6295 29.5594 23.5717 33.6171 21.4127 35.7761C20.6317 36.5572 19.3678 36.558 18.5868 35.777C16.4632 33.6533 12.4926 29.6828 10.5713 27.7614C5.36427 22.5544 5.36427 14.1122 10.5713 8.90524C15.7782 3.69825 24.2204 3.69825 29.4274 8.90524C34.6344 14.1122 34.6344 22.5544 29.4274 27.7614Z" stroke="#FDFDE1" stroke-width="3" stroke-linecap="round" stroke-linejoin="round"/>
<path d="M24.9993 18.3333C24.9993 21.0948 22.7608 23.3333 19.9993 23.3333C17.2379 23.3333 14.9993 21.0948 14.9993 18.3333C14.9993 15.5719 17.2379 13.3333 19.9993 13.3333C22.7608 13.3333 24.9993 15.5719 24.9993 18.3333Z" stroke="#FDFDE1" stroke-width="3" stroke-linecap="round" stroke-linejoin="round"/>
</svg>
