<svg width="30" height="30" viewBox="0 0 30 30" fill="none" xmlns="http://www.w3.org/2000/svg">
<path d="M3 4.50024C3 3.67182 3.67157 3.00024 4.5 3.00024H7.72931C8.46257 3.00024 9.08835 3.53036 9.2089 4.25365L10.3179 10.9075C10.4261 11.557 10.0981 12.2012 9.5091 12.4957L7.18689 13.6568C8.86134 17.8177 12.1825 21.1389 16.3434 22.8134L17.5045 20.4911C17.799 19.9022 18.4432 19.5741 19.0928 19.6824L25.7466 20.7913C26.4699 20.9119 27 21.5377 27 22.2709V25.5002C27 26.3287 26.3284 27.0002 25.5 27.0002H22.5C11.7304 27.0002 3 18.2698 3 7.50024V4.50024Z" fill="#FDFDE1"/>
</svg>
