<svg width="24" height="24" viewBox="0 0 24 24" fill="none" xmlns="http://www.w3.org/2000/svg">
<path d="M2.40039 3.60039C2.40039 2.93765 2.93765 2.40039 3.60039 2.40039H6.18384C6.77045 2.40039 7.27107 2.82449 7.36751 3.40311L8.25469 8.72616C8.34129 9.2458 8.07886 9.76116 7.60767 9.99675L5.7499 10.9256C7.08946 14.2544 9.74641 16.9113 13.0751 18.2509L14.004 16.3931C14.2396 15.9219 14.755 15.6595 15.2746 15.7461L20.5977 16.6333C21.1763 16.7297 21.6004 17.2303 21.6004 17.8169V20.4004C21.6004 21.0631 21.0631 21.6004 20.4004 21.6004H18.0004C9.38475 21.6004 2.40039 14.616 2.40039 6.00039V3.60039Z" fill="#073D30"/>
</svg>
