<svg width="17" height="17" viewBox="0 0 17 17" fill="none" xmlns="http://www.w3.org/2000/svg">
<path d="M9.37397 0.0010458C9.99422 -0.00133431 10.6145 0.00489948 11.2346 0.0197452L11.3995 0.025695C11.5898 0.0324948 11.7777 0.0409945 12.0046 0.0511941C12.909 0.0936927 13.5261 0.236488 14.0675 0.446431C14.6285 0.662323 15.1011 0.954713 15.5737 1.4273C16.0058 1.85195 16.3402 2.36562 16.5537 2.9326C16.7636 3.47403 16.9064 4.09196 16.9489 4.99633C16.9591 5.22242 16.9676 5.41111 16.9744 5.60151L16.9795 5.7664C16.9946 6.38619 17.0011 7.00616 16.9991 7.62614L16.9999 8.26022V9.37368C17.002 9.99393 16.9955 10.6142 16.9804 11.2343L16.9753 11.3992C16.9685 11.5896 16.96 11.7774 16.9498 12.0043C16.9073 12.9087 16.7628 13.5258 16.5537 14.0672C16.3409 14.6348 16.0064 15.1489 15.5737 15.5734C15.1486 16.0054 14.6347 16.3398 14.0675 16.5534C13.5261 16.7633 12.909 16.9061 12.0046 16.9486C11.7777 16.9588 11.5898 16.9673 11.3995 16.9741L11.2346 16.9792C10.6145 16.9943 9.99423 17.0008 9.37397 16.9988L8.73989 16.9996H7.62728C7.00702 17.0017 6.38677 16.9952 5.76669 16.9801L5.6018 16.975C5.40003 16.9677 5.19829 16.9592 4.99662 16.9495C4.09225 16.907 3.47517 16.7625 2.93289 16.5534C2.36569 16.3403 1.85193 16.0059 1.42759 15.5734C0.994995 15.1486 0.660259 14.6346 0.446725 14.0672C0.236782 13.5258 0.0939872 12.9087 0.0514886 12.0043C0.0420224 11.8027 0.0335227 11.6009 0.0259895 11.3992L0.0217398 11.2343C0.00606937 10.6142 -0.00101448 9.99394 0.000490434 9.37368V7.62614C-0.00188181 7.00617 0.00435198 6.3862 0.0191899 5.7664L0.0251396 5.60151C0.0319394 5.41111 0.0404391 5.22242 0.0506387 4.99633C0.0931373 4.09111 0.235932 3.47488 0.445875 2.9326C0.659535 2.36534 0.994926 1.85181 1.42844 1.42815C1.85249 0.995301 2.36593 0.66026 2.93289 0.446431C3.47517 0.236488 4.0914 0.0936927 4.99662 0.0511941L5.6018 0.025695L5.76669 0.0214452C6.38648 0.00578267 7.00645 -0.00130118 7.62643 0.000195891L9.37397 0.0010458ZM8.5002 4.2509C7.9371 4.24294 7.37803 4.34697 6.85549 4.55695C6.33294 4.76693 5.85734 5.07867 5.45632 5.47406C5.05531 5.86944 4.73687 6.34059 4.51952 6.86011C4.30217 7.37963 4.19025 7.93717 4.19025 8.50033C4.19025 9.06349 4.30217 9.62103 4.51952 10.1406C4.73687 10.6601 5.05531 11.1312 5.45632 11.5266C5.85734 11.922 6.33294 12.2337 6.85549 12.4437C7.37803 12.6537 7.9371 12.7577 8.5002 12.7498C9.62733 12.7498 10.7083 12.302 11.5053 11.505C12.3023 10.708 12.7501 9.62704 12.7501 8.49991C12.7501 7.37278 12.3023 6.29181 11.5053 5.4948C10.7083 4.6978 9.62733 4.2509 8.5002 4.2509ZM8.5002 5.95084C8.83892 5.9446 9.17549 6.00592 9.49024 6.13121C9.805 6.25651 10.0916 6.44327 10.3334 6.68058C10.5752 6.9179 10.7672 7.20101 10.8983 7.51338C11.0295 7.82575 11.097 8.16112 11.0971 8.4999C11.0971 8.83868 11.0297 9.17407 10.8987 9.48648C10.7677 9.7989 10.5757 10.0821 10.334 10.3195C10.0923 10.5569 9.80575 10.7437 9.49103 10.8691C9.17632 10.9945 8.83977 11.0559 8.50105 11.0498C7.82477 11.0498 7.17619 10.7812 6.69799 10.303C6.21979 9.82477 5.95114 9.17619 5.95114 8.49991C5.95114 7.82363 6.21979 7.17505 6.69799 6.69685C7.17619 6.21864 7.82477 5.94999 8.50105 5.94999L8.5002 5.95084ZM12.9625 2.97594C12.6883 2.98692 12.429 3.10357 12.2389 3.30146C12.0488 3.49935 11.9426 3.76313 11.9426 4.03756C11.9426 4.31198 12.0488 4.57577 12.2389 4.77366C12.429 4.97155 12.6883 5.0882 12.9625 5.09917C13.2443 5.09917 13.5146 4.98723 13.7138 4.78798C13.9131 4.58873 14.025 4.31849 14.025 4.03671C14.025 3.75493 13.9131 3.48468 13.7138 3.28543C13.5146 3.08618 13.2443 2.97424 12.9625 2.97424V2.97594Z" fill="#FBD718"/>
</svg>
