<svg width="17" height="16" viewBox="0 0 17 16" fill="none" xmlns="http://www.w3.org/2000/svg">
<path d="M3.55536 1.77857C3.55512 2.25004 3.36761 2.7021 3.03406 3.03532C2.70051 3.36853 2.24826 3.55559 1.77679 3.55536C1.30532 3.55512 0.853254 3.36761 0.520042 3.03406C0.186829 2.70051 -0.000235512 2.24826 2.22531e-07 1.77679C0.000235957 1.30532 0.187753 0.853255 0.521299 0.520042C0.854845 0.186829 1.3071 -0.000235512 1.77857 2.22531e-07C2.25004 0.000235957 2.7021 0.187753 3.03532 0.521299C3.36853 0.854845 3.55559 1.3071 3.55536 1.77857ZM3.60869 4.87173H0.0533305V16H3.60869V4.87173ZM9.22615 4.87173H5.68857V16H9.1906V10.1603C9.1906 6.90717 13.4304 6.60497 13.4304 10.1603V16H16.9413V8.9515C16.9413 3.46736 10.6661 3.6718 9.1906 6.36498L9.22615 4.87173Z" fill="#FBD718"/>
</svg>
