<svg width="38" height="44" viewBox="0 0 38 44" fill="none" xmlns="http://www.w3.org/2000/svg">
<path d="M0.157253 25.4723C0.184325 25.4981 0.217839 25.5123 0.24907 25.5309C0.425242 25.8905 0.755733 26.1726 1.14404 26.2723C4.29459 25.1576 7.71961 24.9976 10.9797 25.7205C11.0469 26.1104 11.0442 26.2082 11.1494 26.3461C9.61744 27.0622 9.18706 29.2057 10.6509 30.3499C10.3546 30.5994 10.0224 31.4647 10.1791 32.3017C10.4048 33.5158 11.3442 33.9032 11.4408 33.9915C12.0473 34.6364 12.7196 35.2452 13.3031 35.7372C14.1057 36.414 14.9915 37.0515 16.0186 37.2611C17.0457 37.4705 18.2441 37.1487 18.796 36.2542C20.4451 36.9272 22.1907 35.4903 21.8712 33.7414C22.1937 33.6908 22.5125 33.6261 22.8292 33.5545C24.2972 36.1439 25.0026 39.1312 24.8254 42.092C24.8177 42.2224 24.8652 42.3452 24.9464 42.4418C24.942 42.4455 24.938 42.4498 24.9336 42.4537C25.0328 42.5227 24.679 42.2761 25.7557 43.0274C31.0424 39.1114 34.0935 32.3703 33.5596 25.814C37.3186 20.2524 38.179 13.1955 37.6104 6.45567C37.4704 4.79563 37.0196 2.20144 36.2523 0.970641C35.4915 -0.981793 31.7546 0.494402 29.7519 1.22359C23.8179 3.27399 18.3475 6.66868 14.6915 11.6802C8.3428 13.0733 2.31971 18.5158 0.029394 24.94C-0.0377962 25.1272 0.0124339 25.336 0.157253 25.4723ZM16.4514 35.5046C16.0854 35.5953 15.7168 35.5399 15.4128 35.3455L11.7421 32.9944C11.4381 32.8 11.2327 32.4889 11.1635 32.1184C11.0516 31.5155 11.3278 31.1385 11.4212 30.9215C13.2273 32.2648 15.2131 33.5181 17.4445 34.7199C17.3848 34.7867 17.141 35.3304 16.4514 35.5046ZM20.188 33.697C19.8077 34.2632 19.1096 34.4759 18.5649 34.1908C15.769 32.7302 13.3678 31.2044 11.2242 29.5279C10.2492 28.7661 10.898 27.1273 12.1192 27.1273C12.3103 27.1273 12.5015 27.171 12.6802 27.2636C15.1663 28.5527 17.6164 30.1255 19.9629 31.9383C20.4822 32.3395 20.5813 33.1119 20.188 33.697ZM25.8535 40.9999C25.8208 38.3172 25.1121 35.6576 23.821 33.2924C27.0491 32.324 29.9144 30.2871 32.1422 27.6787C31.857 32.5906 29.5308 37.5951 25.8535 40.9999ZM30.0794 2.17078C31.197 1.76524 35.1131 0.278805 35.3496 1.42451C35.649 2.87465 35.8943 4.92756 36.0228 7.05549C36.4881 14.7543 34.6664 20.6078 31.8263 24.7626C29.6043 28.0129 25.4301 30.7636 21.1476 31.8175C21.0073 31.5621 20.8174 31.3316 20.5761 31.1451C18.182 29.2957 15.6803 27.6903 13.1408 26.3739C12.7889 26.192 12.41 26.1211 12.0365 26.1348C12.0476 26.0738 12.0494 26.0099 12.0363 25.9453C10.3572 17.6827 15.9358 7.05842 30.0794 2.17078ZM13.8416 12.9331C11.5423 16.5758 10.6132 20.4304 10.7752 23.8653C7.67696 23.0797 4.39505 23.2064 1.38169 24.2361C3.65734 18.9346 8.55567 14.4954 13.8416 12.9331Z" fill="black"/>
<path d="M28.9977 13.3109C32.1545 13.3109 34.0317 9.97201 32.4799 7.51227C31.6854 6.25065 30.1589 5.47045 28.6696 5.55395C27.2971 5.63745 26.1914 6.42482 25.556 7.7706C24.4735 10.0653 26.0334 13.3109 28.9977 13.3109Z" fill="black"/>
<path d="M10.2381 35.3261C10.4449 35.1421 10.4638 34.8257 10.2799 34.6189C10.0959 34.4121 9.77955 34.3945 9.57275 34.5772C8.49052 35.5387 7.50093 36.6118 6.63071 37.7678C6.38112 38.0996 6.62184 38.5702 7.03059 38.5702C7.18258 38.5702 7.33327 38.501 7.43178 38.3705C8.26155 37.2674 9.20549 36.2433 10.2381 35.3261Z" fill="black"/>
<path d="M8.73916 42.7591C8.97175 42.9056 9.28178 42.8374 9.42998 42.6019L12.1815 38.2234C12.329 37.9892 12.2585 37.6793 12.0243 37.5326C11.7895 37.3838 11.4803 37.4562 11.3335 37.6898L8.58194 42.0683C8.43451 42.3031 8.50497 42.6123 8.73916 42.7591Z" fill="black"/>
<path d="M14.4824 38.6662L13.7948 42.8471C13.7498 43.1204 13.9351 43.3781 14.2078 43.4231C14.4805 43.4675 14.7387 43.2835 14.7838 43.0102L15.4713 38.8293C15.5163 38.556 15.3311 38.2983 15.0584 38.2533C14.7779 38.2063 14.5274 38.3942 14.4824 38.6662Z" fill="black"/>
</svg>
