<svg width="22" height="21" viewBox="0 0 22 21" fill="none" xmlns="http://www.w3.org/2000/svg">
<path d="M5.02224 2.95897C5.02196 3.52563 4.79658 4.06897 4.39569 4.46946C3.9948 4.86996 3.45123 5.09479 2.88456 5.09451C2.3179 5.09422 1.77456 4.86885 1.37407 4.46795C0.973575 4.06706 0.74874 3.52349 0.749024 2.95683C0.749307 2.39017 0.974685 1.84682 1.37558 1.44633C1.77647 1.04584 2.32004 0.821006 2.8867 0.821289C3.45336 0.821573 3.99671 1.04695 4.3972 1.44784C4.79769 1.84874 5.02252 2.3923 5.02224 2.95897ZM5.08634 6.67666H0.813122V20.0518H5.08634V6.67666ZM11.838 6.67666H7.58617V20.0518H11.7953V13.0331C11.7953 9.12308 16.8911 8.75986 16.8911 13.0331V20.0518H21.1109V11.5802C21.1109 4.98874 13.5687 5.23445 11.7953 8.47142L11.838 6.67666Z" fill="#FF4612"/>
</svg>
