<svg width="24" height="24" viewBox="0 0 24 24" fill="none" xmlns="http://www.w3.org/2000/svg">
<path d="M2.3999 3.60039C2.3999 2.93765 2.93716 2.40039 3.5999 2.40039H6.18335C6.76996 2.40039 7.27059 2.82449 7.36702 3.40311L8.2542 8.72616C8.3408 9.2458 8.07837 9.76116 7.60718 9.99675L5.74941 10.9256C7.08897 14.2544 9.74592 16.9113 13.0747 18.2509L14.0035 16.3931C14.2391 15.9219 14.7545 15.6595 15.2741 15.7461L20.5972 16.6333C21.1758 16.7297 21.5999 17.2303 21.5999 17.8169V20.4004C21.5999 21.0631 21.0626 21.6004 20.3999 21.6004H17.9999C9.38426 21.6004 2.3999 14.616 2.3999 6.00039V3.60039Z" fill="#FF8064"/>
</svg>
