<svg width="38" height="40" viewBox="0 0 38 40" fill="none" xmlns="http://www.w3.org/2000/svg">
<path d="M11.0971 1.83593C7.14208 2.85744 3.60864 5.79086 1.71572 9.41304C-0.452748 13.5626 -0.573761 18.7437 1.39858 22.992C5.03911 30.8335 14.6637 34.2301 22.8528 29.7984C24.7259 32.8716 27.0663 35.7772 29.3745 38.3272C30.5141 39.5862 32.5735 40.4289 34.2155 39.7702C35.6167 39.4616 36.6162 38.2457 36.6162 36.7922C36.6162 36.0567 36.3543 35.3466 35.8795 34.7915C33.1505 31.6089 30.561 28.3912 28.1567 25.2133C29.3253 23.6304 30.1775 21.8325 30.5886 19.9017C34.3959 8.3698 22.6736 -2.68243 11.0971 1.83593ZM35.1759 35.3948C36.4209 36.8484 35.2695 39.0818 33.3719 38.9125C32.7504 38.8582 32.1869 38.5354 31.8272 38.0279C29.6221 34.9011 27.2343 31.7392 24.732 28.6091C25.7796 27.8429 26.7362 26.9555 27.5661 25.9669C29.9407 29.0967 32.4904 32.2628 35.1759 35.3948ZM30.1945 17.6498C29.2708 23.3438 24.468 28.1466 18.7746 29.0709C12.8617 30.0323 6.42035 26.7164 3.94234 21.0262C0.718157 13.1765 4.67341 4.03671 13.5259 2.05571C22.7272 -0.00320816 31.7663 7.95764 30.1945 17.6498Z" fill="black"/>
<path d="M32.6877 36.3022C32.7656 36.3534 32.8536 36.3776 32.9405 36.3776C33.4003 36.3776 33.5794 35.7777 33.1946 35.5262C32.8506 35.3012 32.5821 34.9657 32.4391 34.5819C32.3492 34.3424 32.0819 34.2205 31.843 34.3092C31.6029 34.3985 31.481 34.6658 31.5703 34.9054C31.7821 35.4731 32.1791 35.9691 32.6877 36.3022Z" fill="black"/>
<path d="M18.6711 4.7732C18.4286 4.68993 18.1649 4.82026 18.0835 5.06282C18.0008 5.30537 18.1311 5.56844 18.3731 5.6505C22.444 7.03161 25.5067 11.152 25.6551 15.4486C25.6642 15.6984 25.8699 15.8957 26.1185 15.8957H26.1348C26.39 15.8866 26.5903 15.6718 26.5819 15.416C26.4172 10.6741 23.1644 6.29731 18.6711 4.7732Z" fill="black"/>
<path d="M25.7892 16.9014L25.7144 16.9762C25.5321 17.1554 25.5297 17.4492 25.7095 17.6314C25.8894 17.8137 26.1826 17.816 26.3648 17.6363L26.4843 17.5168L26.1566 17.1892L25.7892 16.9014Z" fill="black"/>
<path d="M30.8929 0.0252235C30.648 -0.0580414 30.3873 0.0716829 30.3041 0.313634L28.8922 4.43645C28.8095 4.6784 28.9386 4.94208 29.1806 5.02534C29.4244 5.10758 29.6863 4.97822 29.7695 4.73693L31.1814 0.614111C31.264 0.371557 31.1349 0.108488 30.8929 0.0252235Z" fill="black"/>
<path d="M31.2497 6.81559C31.3149 6.81559 31.3807 6.80232 31.4434 6.77336C32.7564 6.16999 34.0186 5.44112 35.1952 4.60726C35.4039 4.45884 35.4534 4.16982 35.3056 3.96106C35.1578 3.75289 34.8694 3.70281 34.6594 3.85064C33.5293 4.65191 32.3171 5.35182 31.0561 5.93105C30.6069 6.13755 30.7536 6.81559 31.2497 6.81559Z" fill="black"/>
<path d="M37.4303 9.83035C35.6872 9.32835 33.8885 9.14915 32.0838 9.3018C31.8286 9.32292 31.6392 9.54677 31.6609 9.80199C31.682 10.0572 31.9082 10.2527 32.1611 10.225C35.0476 9.98107 37.1158 10.739 37.3024 10.739C37.5039 10.739 37.6891 10.6069 37.7477 10.4036C37.8183 10.158 37.6765 9.90094 37.4303 9.83035Z" fill="black"/>
</svg>
