<svg width="19" height="16" viewBox="0 0 19 16" fill="none" xmlns="http://www.w3.org/2000/svg">
<path d="M18.798 2.40483C18.122 2.70527 17.4084 2.89305 16.6573 3.00571C17.4084 2.55505 18.0093 1.8415 18.2722 0.97773C17.5587 1.39084 16.77 1.69128 15.9062 1.87906C15.2302 1.16551 14.2538 0.714844 13.2023 0.714844C11.1743 0.714844 9.52185 2.36727 9.52185 4.39526C9.52185 4.6957 9.55941 4.95858 9.63452 5.22147C6.59254 5.07125 3.85101 3.6066 2.01081 1.35328C1.71036 1.91661 1.52259 2.51749 1.52259 3.19349C1.52259 4.47037 2.16103 5.59702 3.17502 6.27302C2.57414 6.23546 2.01081 6.08524 1.48503 5.82235V5.85991C1.48503 7.66256 2.76191 9.16477 4.4519 9.50277C4.15145 9.57788 3.81346 9.61543 3.47546 9.61543C3.25013 9.61543 2.98724 9.57788 2.76191 9.54032C3.25013 11.005 4.60212 12.0941 6.21699 12.0941C4.94011 13.0705 3.36279 13.6714 1.63525 13.6714C1.33481 13.6714 1.03437 13.6714 0.771484 13.6338C2.42391 14.6854 4.33923 15.2863 6.44232 15.2863C13.2398 15.2863 16.9578 9.65299 16.9578 4.77081C16.9578 4.62059 16.9578 4.43281 16.9578 4.28259C17.6713 3.79437 18.3098 3.15593 18.798 2.40483Z" fill="black"/>
</svg>
