<svg width="75" height="50" viewBox="0 0 75 50" fill="none" xmlns="http://www.w3.org/2000/svg">
<path d="M58.8643 22.1657L60.9637 22.2146C83.9595 22.6052 76.2942 56.3911 51.6872 47.4564C33.5249 40.8652 36.8937 10.5459 56.3255 5.56588C64.9184 3.36883 74.4878 4.93118 67.3595 7.37235C61.2566 9.42294 56.3254 15.3304 56.6672 20.1639C56.7649 21.238 57.6925 22.1657 58.8643 22.1657Z" fill="#191931"/>
<path d="M13.9964 48.6779C-8.12065 40.1827 0.862829 3.07676 25.421 1.46558C31.8169 1.02618 33.4769 2.5397 28.6434 4.34617C23.9563 6.10381 18.0487 14.4038 17.414 20.0185C17.2675 21.1414 18.1462 22.0692 19.2692 22.0692C25.7139 22.0692 28.3993 22.069 32.1587 27.2443C41.3863 40.036 29.1316 54.4879 13.9964 48.6779Z" fill="#191931"/>
<path d="M59.559 21.8267L59.5527 21.8266L57.4639 21.778C55.7575 21.7713 54.4256 20.4283 54.2836 18.8667L54.2827 18.8567L54.282 18.8467C54.0864 16.0802 55.3929 13.1476 57.4415 10.6956C59.5034 8.22788 62.4124 6.1264 65.6503 5.03775C66.2322 4.83839 66.6649 4.65578 66.9757 4.49653C66.7622 4.43726 66.5005 4.37994 66.1889 4.32898C63.7729 3.93396 59.3733 4.07627 55.1855 5.14702C45.972 7.50855 40.4822 15.9048 39.5148 24.6295C38.547 33.3575 42.1288 42.0397 50.6407 45.1287L50.6408 45.1287C56.5777 47.2844 61.3799 46.8295 64.9153 45.0551C68.4656 43.2732 70.8396 40.1115 71.8276 36.6689C72.8175 33.2201 72.3997 29.5589 70.4656 26.7607C68.5505 23.9898 65.0468 21.9199 59.559 21.8267ZM67.5377 4.12358C67.537 4.12355 67.5323 4.12859 67.5255 4.13873C67.535 4.12868 67.5383 4.1236 67.5377 4.12358ZM67.5844 4.73804C67.5957 4.74942 67.6034 4.75471 67.6044 4.75453C67.6055 4.75435 67.5998 4.74865 67.5844 4.73804Z" fill="#FFF7EA" stroke="#191931" stroke-width="2"/>
<path d="M24.0983 1.07574L24.1013 1.07554C25.6647 0.968132 26.9039 0.982925 27.8044 1.08251C28.141 1.11974 28.418 1.16753 28.6396 1.22071C28.2786 1.44429 27.7176 1.71811 26.9051 2.02176L26.9041 2.02214C24.2803 3.00607 21.4877 5.71677 19.3074 8.76669C17.1173 11.8303 15.3793 15.4679 15.033 18.5106C14.8088 20.2717 16.2024 21.6815 17.881 21.6815C21.1599 21.6815 23.2576 21.6926 25.0174 22.2773C26.6948 22.8346 28.1512 23.9527 29.9603 26.4427C34.3147 32.4799 33.5559 38.7811 30.0626 42.9025C26.5554 47.0401 20.1675 49.1208 12.9667 46.3567L24.0983 1.07574ZM24.0983 1.07574C12.368 1.84533 4.26657 11.1024 1.78924 21.3378M24.0983 1.07574L1.78924 21.3378M1.78924 21.3378C-0.688494 31.5748 2.53598 42.3501 12.9665 46.3567L1.78924 21.3378ZM29.0991 0.857018C29.099 0.857006 29.0983 0.857979 29.0972 0.859943C29.0985 0.858006 29.0991 0.857029 29.0991 0.857018Z" fill="#FFF7EA" stroke="#191931" stroke-width="2"/>
</svg>
