<svg width="27" height="22" viewBox="0 0 27 22" fill="none" xmlns="http://www.w3.org/2000/svg">
<path d="M26.9373 2.77824C25.9432 3.22007 24.8939 3.49621 23.7893 3.66189C24.8939 2.99915 25.7775 1.94982 26.1641 0.679567C25.1148 1.28708 23.955 1.7289 22.6847 2.00505C21.6906 0.955708 20.2547 0.292969 18.7083 0.292969C15.726 0.292969 13.2959 2.72301 13.2959 5.70534C13.2959 6.14717 13.3512 6.53376 13.4616 6.92036C8.98812 6.69945 4.95645 4.54555 2.25027 1.23185C1.80844 2.06027 1.5323 2.94393 1.5323 3.93804C1.5323 5.8158 2.47118 7.47264 3.96234 8.46675C3.07869 8.41153 2.25027 8.19061 1.47707 7.80402V7.85924C1.47707 10.5102 3.35483 12.7193 5.84011 13.2164C5.39828 13.3268 4.90122 13.3821 4.40417 13.3821C4.0728 13.3821 3.6862 13.3268 3.35483 13.2716C4.0728 15.4255 6.06102 17.0271 8.43583 17.0271C6.55807 18.4631 4.23849 19.3467 1.69798 19.3467C1.25616 19.3467 0.814332 19.3467 0.427734 19.2915C2.85778 20.8379 5.67442 21.7215 8.7672 21.7215C18.7635 21.7215 24.2311 13.4373 24.2311 6.25762C24.2311 6.03671 24.2311 5.76057 24.2311 5.53966C25.2805 4.82169 26.2193 3.88281 26.9373 2.77824Z" fill="#1B1B1B"/>
</svg>
