<svg width="55" height="70" viewBox="0 0 55 70" fill="none" xmlns="http://www.w3.org/2000/svg">
<path d="M17.5253 56.5938C17.6069 56.703 17.679 57.0304 18.1126 57.1465C19.6739 57.5697 21.2358 57.6323 22.7563 57.0814C25.4857 56.9498 27.691 55.1512 28.4473 52.9212C29.5747 52.6214 30.3357 51.0802 29.9955 49.7758C29.7816 48.9548 30.0307 48.9791 30.275 48.712C31.6264 47.2339 30.8966 45.1581 30.0442 45.3387C30.9419 44.565 31.324 43.1356 30.4891 41.893C31.2259 41.4577 31.8934 40.8524 32.0744 40.3562C32.8237 38.3033 32.407 36.0929 33.3678 33.9528C34.2873 31.9047 35.7466 30.1455 36.9328 28.2542C40.0532 23.2789 40.5227 16.9608 38.1819 11.5426C36.7587 8.24813 34.7431 5.05787 31.6609 3.22317C28.6308 1.41925 26.0945 0.556609 22.271 0.103853C16.3098 -0.598776 10.0042 2.31272 6.58036 7.35656C3.10548 12.4759 2.65424 19.5978 5.45785 25.0807C7.68592 29.4379 10.4211 31.0966 10.8121 36.3716C11.1786 41.3057 12.6538 40.995 13.2963 42.0118C12.7054 43.249 12.4916 44.6028 13.2925 45.7152C12.5322 46.8373 12.578 48.3088 13.3207 49.3687C12.9279 50.5849 13.3334 51.9125 14.2402 52.597C15.5336 54.3495 16.7985 55.8953 17.5253 56.5938ZM14.7579 44.9063C14.5171 44.7298 14.3768 44.3227 14.4081 43.8933C14.4631 43.1331 14.9286 42.4821 15.0007 42.2233C18.3369 42.7644 22.6579 42.6857 26.0924 42.2733C26.3576 42.7272 26.6058 43.214 26.6653 43.7104C26.7164 44.1378 26.5947 44.5523 26.3613 44.7426C25.9874 45.0466 25.87 45.8581 26.3427 46.234C26.8847 46.6659 27.0535 47.5789 26.6303 48.2494C26.2002 48.476 26.0589 49.0334 26.3401 49.4367C26.606 49.8214 26.6827 50.4594 26.3453 50.9578C22.7069 52.1959 18.3842 52.3386 15.2705 51.3309C14.7306 50.9106 14.6867 50.0991 14.9997 49.5951C15.2606 49.1788 15.0935 48.6275 14.6516 48.4237C14.2018 47.7775 14.3263 46.8559 14.8487 46.3945C15.2949 46.0024 15.1507 45.1964 14.7579 44.9063ZM18.0132 28.0315C19.622 28.2111 21.2787 28.1229 22.8354 27.7998C22.3916 30.3775 21.9779 34.8029 21.6028 40.944C20.9284 40.9613 20.2562 40.9637 19.5848 40.9512C19.4438 38.1737 19.052 32.7931 18.0132 28.0315ZM18.8721 55.6541C18.6838 55.3592 18.4157 55.3556 16.9204 53.3886C19.3979 53.7854 21.8342 53.6652 24.2661 53.1816C22.1508 55.7141 22.3341 55.3015 22.1057 55.5882C21.157 55.9071 20.0733 55.9305 18.8721 55.6541ZM12.4406 36.2515C12.0151 30.5047 9.08956 28.5955 6.91201 24.3366C4.37095 19.3693 4.78073 12.9138 7.9314 8.27285C11.021 3.72117 16.7026 1.07967 22.0786 1.72596C27.4525 2.36268 32.3757 6.13307 34.6207 11.33C36.744 16.2441 36.0876 22.6528 32.9491 27.6563C31.1081 30.5902 28.6171 33.3336 28.3565 37.0998C28.2742 38.2815 28.5256 39.8905 27.5489 40.4179C27.202 40.4641 25.882 40.7197 23.243 40.8757C23.5076 36.5759 23.848 31.5451 24.5798 27.3246C27.8113 26.2204 30.709 23.7596 31.0066 20.4365C31.3089 17.0616 28.6554 15.0632 26.136 17.5622C24.1497 19.53 23.5838 23.2463 23.1363 26.0512C21.3861 26.5008 19.4387 26.6124 17.6035 26.3233C16.6835 22.8325 14.33 16.5242 10.8466 17.9215C10.0063 18.2585 9.45837 18.8824 9.26066 19.7275C8.8461 21.4995 10.102 23.7339 10.9912 24.7256C12.3603 26.2553 14.2317 27.2311 16.2758 27.7275C17.3762 32.4115 17.7947 37.9813 17.9466 40.8853C13.96 40.6414 12.7875 40.977 12.4406 36.2515ZM24.8864 25.457C25.2952 22.977 25.8585 20.1357 27.2851 18.7219C27.6307 18.3781 28.2266 17.9205 28.6685 18.1277C29.09 18.3265 29.4822 19.1514 29.3802 20.2909C29.1652 22.6953 27.0388 24.534 24.8864 25.457ZM15.7911 25.8875C14.398 25.4261 13.148 24.6874 12.2072 23.6371C11.4839 22.8293 10.6181 21.0924 10.8503 20.0985C10.9253 19.7785 11.1113 19.5744 11.4536 19.4373C13.2728 18.7126 15.2441 24.0327 15.7911 25.8875Z" fill="black"/>
<path d="M0 62.9036C0 66.2842 2.52212 69.0793 5.78141 69.5249C10.4031 71.3094 14.9173 67.8162 14.9731 63.2284C15.005 60.6118 13.4604 58.0511 11.1583 56.8072C9.52516 55.9246 6.92896 55.4702 5.20959 56.3493C5.21929 56.3594 5.23444 56.3652 5.24467 56.3748C2.2492 57.0378 0 59.7107 0 62.9036ZM6.68986 57.846C9.47859 57.846 11.7475 60.1144 11.7475 62.9036C11.7475 65.6929 9.47859 67.9613 6.68986 67.9613C3.90113 67.9613 1.63274 65.6929 1.63274 62.9036C1.63274 60.1144 3.90113 57.846 6.68986 57.846Z" fill="black"/>
<path d="M16.8573 66.3041C33.595 70.9427 50.6022 57.4656 49.6853 39.9709C49.6614 39.5202 49.2755 39.1471 48.8275 39.1982C48.3773 39.2215 48.0313 39.6063 48.0547 40.056C48.9087 56.3501 33.0385 69.0871 17.2931 64.7309C16.861 64.6076 16.4087 64.8638 16.2886 65.2996C16.168 65.7344 16.4226 66.184 16.8573 66.3041Z" fill="black"/>
<path d="M53.8527 37.8451C54.5064 37.8451 54.8949 37.1143 54.5319 36.5738C53.0862 34.419 51.6274 32.5234 50.1944 30.3873C49.9175 29.9759 49.2663 29.8548 48.8822 30.3278C47.2062 32.395 45.7182 34.4852 44.0738 36.5122C43.6426 37.044 44.0207 37.843 44.7079 37.843L53.8527 37.8451Z" fill="black"/>
<path d="M54.5932 26.0614C53.2734 24.7504 51.9871 23.4555 50.7037 22.1613C51.8846 20.8945 53.0651 19.6272 54.2525 18.3622C54.5613 18.0327 54.5448 17.5161 54.2158 17.2078C53.8874 16.8995 53.3702 16.9144 53.062 17.244C51.887 18.4959 50.7193 19.7497 49.5515 21.0032C48.3071 19.7497 47.0642 18.4959 45.7853 17.2248C45.4654 16.9059 44.9488 16.9102 44.6309 17.2291C44.3131 17.548 44.3147 18.0656 44.6341 18.3835C45.9252 19.6662 47.18 20.9317 48.4361 22.1974C47.2327 23.4887 46.0299 24.7802 44.8196 26.0688C44.5113 26.3983 44.5273 26.9149 44.8563 27.2232C45.1838 27.5308 45.7014 27.5162 46.0102 27.1871C47.2074 25.9115 48.3977 24.6338 49.5883 23.3556C50.86 24.6375 52.1345 25.9208 53.442 27.22C53.7592 27.5351 54.2753 27.5384 54.5969 27.2158C54.9147 26.8958 54.9126 26.3792 54.5932 26.0614Z" fill="black"/>
</svg>
