<svg width="72" height="70" viewBox="0 0 72 70" fill="none" xmlns="http://www.w3.org/2000/svg">
<path d="M66.776 14.8827C58.0814 9.91329 48.2953 5.1138 37.6897 0.619724C36.7843 0.236883 35.7099 0.257316 34.8238 0.67672C25.4442 5.11058 15.942 10.152 6.57747 15.6624C5.63865 16.2151 5.09235 17.1572 5.11493 18.1831C5.11883 18.3554 5.16151 18.5186 5.19626 18.6837C4.99119 20.1344 5.20829 21.4577 6.41609 22.8339C7.52086 24.0929 9.13073 25.2202 10.5833 26.0542C17.2557 29.885 24.0323 33.4416 30.96 36.5624C33.2199 37.5805 35.2929 38.8267 37.7653 38.6506C39.8507 38.5022 42.0596 36.8547 43.9215 35.904C48.5678 33.5318 63.5255 24.3299 63.6405 24.2569C66.3372 22.5472 68.925 20.6006 68.2552 17.472C68.3061 16.3399 67.7022 15.4125 66.776 14.8827ZM37.8704 33.985C37.3564 34.2861 36.6778 34.3054 36.1466 34.0323C26.5153 29.1089 17.2032 24.3612 7.49048 19.2101C6.55669 18.7176 6.51754 17.6152 7.4152 17.0862C16.7367 11.6017 26.1959 6.58279 35.5293 2.16937C35.9932 1.95059 36.5583 1.93446 37.0456 2.14033C47.5909 6.60968 57.3179 11.3791 65.9565 16.3173C66.3835 16.5614 66.6243 16.9442 66.6147 17.3679C66.5849 18.8876 65.9551 17.578 37.8704 33.985Z" fill="black"/>
<path d="M70.3872 27.528C69.1763 26.701 67.4589 26.6494 65.9803 27.4108L40.2504 42.1265C37.4024 44.1596 35.4911 43.4607 32.7398 41.9813C24.6399 37.6238 16.625 32.9598 8.91654 28.1184C6.68959 26.7196 3.14908 27.9853 3.52484 31.294C3.44238 31.4629 3.40238 31.7613 3.40138 32.2022C3.39916 33.1744 3.8228 34.1998 4.34201 35.0012C5.26759 36.4301 6.66225 37.4802 8.04608 38.4718C13.8736 42.6475 20.032 46.3369 26.1822 50.021C29.2103 51.8349 32.7204 53.9602 36.25 53.9935C39.4133 54.0236 42.0868 52.3132 44.8943 50.8555C51.9407 47.1973 58.8698 43.3041 65.5548 39.021C68.4017 37.1973 71.1807 35.1551 71.2935 31.7398C71.4871 31.2231 71.5873 30.6848 71.6476 30.1681C71.6285 30.0579 71.9417 28.5888 70.3872 27.528ZM70.5446 30.0213L70.0066 29.982C69.8571 31.2585 69.5409 31.8608 68.8 32.2834L40.5095 48.4574C39.4847 49.0434 37.7941 49.4908 36.3004 49.5693C34.8454 49.6521 34.0141 49.2392 32.5505 48.4531C23.7183 43.7041 14.9839 38.5841 6.59046 33.2373C5.40104 32.4804 4.99759 31.3239 5.18062 30.3929C5.37235 29.3746 6.92132 28.8171 8.03795 29.5164C15.7776 34.3783 23.8248 39.0616 31.9569 43.4353C33.627 44.3343 35.282 45.1279 37.1543 45.0344C38.8222 44.9451 40.2805 44.1343 41.1397 43.5159L66.7685 28.8626C67.8063 28.327 68.8666 28.4894 69.457 28.8927C69.7388 29.0852 70.0646 29.4261 70.0098 29.9573L70.5451 30.0127C70.5446 30.0154 70.5451 30.0186 70.5446 30.0213Z" fill="black"/>
<path d="M6.64722 11.6459C6.93005 11.2878 6.86876 10.7683 6.51065 10.4855C4.8739 9.19182 3.07046 8.11965 1.15088 7.29697C0.733622 7.1163 0.246468 7.31095 0.0668771 7.73143C-0.112739 8.14976 0.0819326 8.63584 0.501337 8.81543C2.28649 9.58003 3.96411 10.578 5.48687 11.7824C5.84526 12.0646 6.36393 12.0037 6.64722 11.6459Z" fill="black"/>
<path d="M10.4451 8.46611L7.20171 0.65336C7.02749 0.231804 6.54357 0.0317809 6.12309 0.20707C5.70153 0.381285 5.50151 0.865213 5.6768 1.28569L8.92019 9.10059C9.05139 9.41784 9.35895 9.60926 9.68265 9.60926C10.272 9.60926 10.6709 9.00903 10.4451 8.46611Z" fill="black"/>
<path d="M15.2183 6.32757C15.3172 4.54672 15.6506 2.78199 16.2098 1.08394C16.3517 0.650559 16.1162 0.183838 15.6829 0.0408099C15.2452 -0.100067 14.7827 0.135445 14.6397 0.567754C14.0364 2.40345 13.6762 4.31013 13.5686 6.23509C13.5439 6.69106 13.8923 7.08035 14.3472 7.10616C14.7845 7.13532 15.192 6.79542 15.2183 6.32757Z" fill="black"/>
<path d="M65.2706 55.0273C67.9417 53.3158 70.494 51.5041 70.9479 48.373C71.3952 47.6065 71.4861 46.9223 71.6056 46.1453C71.8702 43.6057 68.6601 41.9744 66.2706 43.33L40.3438 58.0188C37.1403 59.8298 35.9582 59.969 32.287 58.0134C24.1086 53.6538 16.0098 48.9844 8.21532 44.1322C6.17548 42.8612 3.24331 43.8488 2.81576 46.0991C2.66609 46.873 2.76284 47.7894 3.16015 48.6405C3.25902 49.478 3.61498 50.3238 4.05784 51.0075C4.98342 52.4361 6.37807 53.4863 7.76191 54.478C13.5895 58.6538 19.7478 62.3432 25.8981 66.0273C28.9262 67.8412 32.4361 69.9662 35.9658 69.9998C39.1291 70.0296 41.8026 68.3195 44.6101 66.8618C51.6565 63.2035 58.5855 59.3103 65.2706 55.0273ZM36.4746 65.9004C35.0196 65.981 33.6269 65.31 32.0956 64.4937C23.1536 59.7276 14.3279 54.6012 5.86343 49.2586C4.66153 48.4997 4.25612 47.3502 4.43746 46.412C4.63454 45.3792 6.22229 44.836 7.3421 45.5345C15.1678 50.4061 23.2988 55.0948 31.5105 59.4716C35.6904 61.6988 37.4717 61.543 41.1579 59.4555L67.0857 44.7667C68.2839 44.0862 70.0839 44.8033 69.9624 45.9733C69.9474 46.0836 69.9441 46.1073 69.9592 45.9969C69.8451 46.9575 69.6176 47.8065 68.7375 48.3037C37.6454 65.9184 38.3741 65.8002 36.4746 65.9004Z" fill="black"/>
</svg>
