<svg width="81" height="70" viewBox="0 0 81 70" fill="none" xmlns="http://www.w3.org/2000/svg">
<path d="M1.72514e-06 35.6156C0.00934317 62.8208 29.7991 80.7843 46.0645 62.6978C53.1356 54.8911 52.9504 42.5385 49.2121 32.4059C51.5953 30.8608 53.9521 29.2407 56.3013 27.5555C58.8185 28.1126 68.5553 31.1027 70.9358 31.29C73.6256 28.3731 77.1075 25.3795 80.4649 23.2654C80.656 22.1193 80.5383 21.3347 80.571 20.4592C81.3447 19.7053 80.7992 18.6784 79.9561 18.6593C77.4888 18.6053 75.8352 17.7824 74.0834 16.9095C72.6442 16.1926 71.1624 15.4601 69.2253 15.1196C70.9565 11.1294 69.0992 8.66933 69.4232 3.70118C69.1225 2.73612 68.8084 2.25392 68.5046 1.40094C68.8054 0.29904 67.7902 -0.265039 67.0772 0.121709C65.6133 0.915113 53.8051 7.33813 53.6506 7.42219C53.3551 7.58281 53.1582 7.87905 53.126 8.21346C52.6764 12.8748 52.5488 16.0215 52.0997 20.6842C52.0883 20.803 52.1076 20.9161 52.1351 21.0255C50.3075 22.1222 48.0949 23.4118 45.4715 24.9104C37.9623 12.9665 25.5266 7.16941 15.8933 11.1289C15.927 11.1113 15.9577 11.0892 15.9916 11.0718C5.6135 13.4321 -0.00359389 25.1042 1.72514e-06 35.6156ZM35.8425 55.8437C28.2942 59.3562 19.5179 52.3797 15.779 44.2445C11.4059 34.7309 13.3012 24.4575 20.0052 21.3425C25.6809 18.7024 33.0864 21.9884 37.9363 29.1607L33.7085 31.5418C30.7987 28.355 26.9366 27.1404 23.8582 28.5692C19.6702 30.5099 18.3661 36.6452 20.9519 42.246C23.3146 47.3608 28.7423 50.975 33.2541 48.9026C33.2547 48.9026 33.2554 48.9013 33.256 48.9013C35.9562 47.6535 38.051 44.2299 37.3763 39.3559C38.7929 38.6191 40.186 37.8607 41.5573 37.0787C43.8095 45.3758 41.4301 53.2423 35.8425 55.8437ZM30.7532 34.0515C30.9133 34.7554 31.1679 35.563 31.4575 36.3631C31.0303 36.465 29.6501 37.2975 28.4979 37.8736C27.9989 38.1237 27.7968 38.7307 28.0463 39.231C28.2974 39.7313 28.9047 39.9309 29.4037 39.6826C29.7499 39.509 32.0504 38.2766 32.1883 38.1968C32.363 38.5954 32.5359 38.9663 32.6971 39.2849C33.0027 39.8961 33.9291 39.8011 34.0796 39.7194L34.7662 39.3518C34.9646 39.4127 35.163 39.4726 35.3622 39.533C35.797 42.4848 35.0262 45.8532 32.4088 47.0647C29.226 48.5327 24.9075 45.9877 22.7885 41.3981C20.6688 36.8084 21.5305 31.8765 24.7087 30.4046C27.1623 29.268 30.005 30.6128 31.923 32.5572L31.2344 32.9522C30.8836 33.1541 30.6573 33.6308 30.7532 34.0515ZM55.0884 8.94153L58.4689 7.10374C58.2493 8.26086 58.1301 9.43229 58.1389 10.6096C58.1485 11.9558 60.1707 11.9399 60.1612 10.5939C60.1488 8.97692 60.3838 7.36673 60.8558 5.80608C62.7191 4.79154 64.915 3.5964 66.1734 2.91288C65.7321 7.31058 67.5832 11.1875 66.4869 15.3517C65.9552 16.0818 66.5105 16.9296 67.2589 16.949C69.7591 17.0149 71.4213 17.843 73.1822 18.7198C74.5219 19.3873 75.8944 20.0707 77.6362 20.4288C76.2949 21.6275 74.7498 22.9049 73.2661 24.1307C72.7674 23.8791 70.9152 23.9268 66.413 22.8013C65.1278 22.4694 64.6154 24.4359 65.9219 24.763C67.6729 25.2007 69.4643 25.5337 71.2598 25.8051C70.1347 26.755 69.0342 27.7111 68.0403 28.6588C64.4668 27.8757 61.7316 26.8162 58.1662 25.916C58.6153 25.6464 59.0456 25.3893 59.4456 25.154C60.5978 24.4731 59.5725 22.7362 58.4187 23.4108C48.7022 29.1404 34.509 37.1968 34.0624 37.4348C33.6529 36.5067 33.1949 35.2985 32.9124 34.3214C38.5851 31.1217 51.6053 23.904 57.0033 20.384C57.4714 20.0799 57.6037 19.4532 57.2989 18.9858C56.9941 18.5171 56.3654 18.3828 55.9 18.6909C55.4038 19.0141 54.834 19.3738 54.216 19.7573C54.5766 15.7693 54.7174 12.9111 55.0884 8.94153ZM43.7301 25.8979L39.701 28.167C34.2919 20.0674 25.7804 16.4255 19.1527 19.5085C11.4421 23.0909 9.10454 34.5663 13.941 45.0898C18.1565 54.259 28.0657 61.6935 36.6956 57.6764C44.3177 54.1278 45.7427 44.3915 43.3666 36.0333C44.7511 35.2223 46.118 34.3871 47.4696 33.5301C51.3728 44.1751 50.2434 55.0718 44.5359 61.3694C36.3546 70.4872 18.673 66.8671 9.60418 47.5755C3.06601 33.3287 5.96579 17.9193 16.0686 13.227C25.8558 8.67455 37.4702 15.9866 43.7301 25.8979Z" fill="black"/>
<path d="M18.0551 3.04796C17.5745 3.33234 17.4152 3.95246 17.6996 4.43301L19.9668 8.26297C20.2555 8.74981 20.8806 8.89928 21.3518 8.61844C21.8324 8.33406 21.9917 7.71395 21.7073 7.23339L19.4402 3.40344C19.1558 2.9242 18.5363 2.76358 18.0551 3.04796Z" fill="black"/>
<path d="M23.9235 1.28129L23.2408 7.34681C23.1783 7.90241 23.5772 8.40271 24.1322 8.46459C24.7166 8.52402 25.1902 8.1058 25.2499 7.57326L25.9326 1.50774C25.9951 0.953458 25.5962 0.451838 25.0413 0.389958C24.4949 0.334662 23.986 0.727005 23.9235 1.28129Z" fill="black"/>
<path d="M29.094 3.42902L26.7346 7.81062C26.4693 8.30171 26.6537 8.91524 27.1448 9.17987C27.6284 9.44254 28.2478 9.26623 28.5147 8.7691L30.874 4.38749C31.1393 3.89641 30.955 3.28288 30.4632 3.01824C29.9728 2.75229 29.3586 2.93661 29.094 3.42902Z" fill="black"/>
</svg>
