<svg width="64" height="70" viewBox="0 0 64 70" fill="none" xmlns="http://www.w3.org/2000/svg">
<path d="M22.7849 17.5575L21.1742 26.458C21.0542 27.1228 21.7496 27.6455 22.3566 27.3338L30.4015 23.1981L38.3696 27.4801C38.6535 27.6346 39.0263 27.6203 39.3144 27.3502C39.3172 27.3655 39.3192 27.38 39.3221 27.3954C40.4872 26.1408 41.3223 25.7761 41.1845 24.6505C40.9375 22.6341 40.7761 20.6195 40.5213 18.6029C41.4153 17.6861 42.3184 16.7786 43.2581 15.9082C43.7836 15.4215 44.4345 14.9794 44.8608 14.4015C45.2456 13.8798 45.3795 13.1996 45.3367 12.5619C45.3126 12.2018 45.0728 11.2236 44.9276 10.71C44.9276 10.71 44.9314 10.7253 44.9248 10.7073C44.9171 10.6859 44.9127 10.6628 44.9072 10.6401C44.8947 10.5972 44.8822 10.5543 44.8719 10.5212C44.8796 10.546 44.8889 10.5758 44.8997 10.6111C44.878 10.5132 44.8548 10.4255 44.7735 10.4006C44.3982 9.83186 43.9801 10.0967 37.8923 9.06289C36.7182 6.91822 35.3744 4.31532 34.3229 2.06257C34.2427 1.89087 34.043 1.4625 33.844 1.13866C33.7017 0.907217 33.4761 0.742997 33.2136 0.672969L30.6899 0C30.7027 0.0206275 30.7133 0.0411885 30.7261 0.0618161C30.6887 0.0562086 30.6526 0.0453273 30.6141 0.0449268C30.3332 0.0844465 30.0149 0.216891 29.8739 0.495665L25.797 8.56943L16.8335 9.7892C16.1627 9.87972 15.8845 10.7065 16.3667 11.1841L22.7849 17.5575ZM26.4464 10.1374C26.7134 10.1011 26.9462 9.93553 27.068 9.69414L30.5895 2.71838L33.984 9.75929C34.1014 10.0018 34.3311 10.1716 34.5981 10.2132L42.3205 11.4074L36.6745 16.8109C36.479 16.9978 36.3882 17.268 36.432 17.5351L37.6828 25.2489C30.5529 21.4557 30.6119 21.2426 30.0352 21.5415L23.0851 25.1143L24.4768 17.425C24.5249 17.1591 24.4383 16.8867 24.2472 16.6966L18.7016 11.1905L26.4464 10.1374Z" fill="black"/>
<path d="M44.9273 10.7102C44.9274 10.7057 44.917 10.6689 44.8994 10.6113C44.9016 10.6211 44.9046 10.6306 44.907 10.6404C44.9139 10.664 44.9198 10.6839 44.9273 10.7102Z" fill="black"/>
<path d="M63.2449 19.6271L59.1056 18.9868C56.7573 14.6481 56.9589 14.2993 56.4023 14.151L55.5344 13.9196L55.5311 13.9128C55.3955 13.6319 55.1113 13.4524 54.7995 13.4492C54.5036 13.4951 54.2003 13.6212 54.0593 13.9L51.6144 18.7406L46.2418 19.4712C45.5706 19.5614 45.2912 20.3879 45.774 20.8661L49.6224 24.6878L48.6568 30.0229C48.5364 30.6899 49.2354 31.21 49.8392 30.8988L54.6617 28.4197C59.7298 31.1039 59.4585 31.0846 59.827 31.0846C60.2934 31.0846 60.6807 30.693 60.638 30.1945C61.0432 29.8051 61.396 29.5327 61.3261 28.9626C61.1735 27.717 61.0739 26.4726 60.9165 25.2268C63.1849 22.9005 63.2225 23.1394 63.5971 22.6315C64.0225 22.0547 63.896 21.4046 63.781 20.9113C64.1445 20.4024 63.8421 19.7201 63.2449 19.6271ZM54.2953 26.7631L50.5676 28.6793L51.3142 24.5553C51.3623 24.2894 51.2758 24.017 51.0846 23.8269L48.11 20.8725L52.2627 20.3086C52.5308 20.2722 52.7637 20.1067 52.8854 19.8653L54.7749 16.1227L56.596 19.8995C56.7135 20.1419 56.9431 20.3118 57.2102 20.3534L61.3523 20.9943L58.3231 23.8931C58.1277 24.08 58.0369 24.3502 58.0807 24.6173L58.7514 28.7551C54.9879 26.7695 54.8469 26.4773 54.2953 26.7631Z" fill="black"/>
<path d="M3.12442 27.7472C3.00475 28.41 3.69614 28.9342 4.30681 28.623L9.13035 26.144C14.1985 28.8281 13.9271 28.8089 14.2957 28.8089C14.764 28.8089 15.1497 28.4149 15.1066 27.9179C15.5133 27.5276 15.864 27.2551 15.7944 26.6864C15.6418 25.4408 15.5421 24.1964 15.3847 22.9506C15.9369 22.3843 16.4948 21.8236 17.0753 21.286C17.7416 20.6689 18.4352 20.3495 18.3593 19.2189C18.3514 19.1003 18.3042 18.8705 18.2495 18.6358C18.6135 18.1267 18.3106 17.4443 17.7136 17.3514L13.5742 16.7113C10.4899 11.0122 11.8296 12.2309 10.0029 11.6434L9.99978 11.6371C9.71418 11.0456 8.84582 10.9957 8.52794 11.6242L6.08306 16.4638L0.709449 17.1954C0.0386509 17.286 -0.239547 18.1128 0.242689 18.5904L4.09105 22.411L3.12442 27.7472ZM2.57862 18.5968L6.73246 18.0318C6.99949 17.9955 7.23233 17.8299 7.3541 17.5885L9.24357 13.847L11.0636 17.6238C11.1811 17.8662 11.4107 18.036 11.6778 18.0777L15.8209 18.7186L12.7918 21.6163C12.5963 21.8032 12.5055 22.0735 12.5493 22.3405L13.2201 26.4794C9.50733 24.5205 9.51225 24.3966 9.13889 24.3966C8.78669 24.3966 8.91453 24.4451 5.03525 26.4035L5.78292 22.2785C5.83099 22.0126 5.74447 21.7402 5.55328 21.5501L2.57862 18.5968Z" fill="black"/>
<path d="M59.3982 34.447C59.2544 34.201 58.9905 34.04 58.6932 34.04C58.6921 34.04 58.6921 34.04 58.691 34.04L58.5462 34.0403L58.5088 34.0225C58.5099 34.0276 58.5107 34.0353 58.5118 34.0404L4.17521 34.1735C3.78108 34.1745 3.44356 34.4554 3.37093 34.8432C1.4392 45.1503 5.34177 53.8262 11.3934 59.7531C11.3954 59.7571 11.3932 59.7569 11.3954 59.7609C11.8886 60.6715 15.9739 64.4533 20.1097 66.654C26.0965 69.8396 33.2757 70.5956 38.7262 69.5729C47.4078 67.9436 54.8581 62.1044 58.902 54.2513C61.845 48.5363 62.2316 42.1617 60.9069 35.8619C60.6896 34.8284 59.68 34.6324 59.3982 34.447ZM17.6371 43.5087C17.7273 46.9198 18.2105 50.1538 19.063 53.1507C16.3347 54.1599 13.7087 55.5154 11.2682 57.2493C7.70861 53.2863 5.16053 48.2263 4.62601 42.3757C8.98019 42.8724 13.3406 43.2514 17.6371 43.5087ZM58.4705 41.6106C58.2866 47.5491 56.2381 53.4537 52.0759 58.2705C49.599 56.3299 46.9006 54.798 44.0797 53.6348C45.161 50.413 45.7712 46.9561 45.873 43.3614C50.5395 42.9752 54.786 42.3894 58.4705 41.6106ZM21.094 54.1863C24.3673 53.1508 27.772 52.6486 31.1781 52.6723C31.0113 57.4279 30.762 62.1779 30.4307 66.9001C30.2927 66.8871 30.1555 66.8717 30.0181 66.8567C25.8849 63.8162 22.8676 59.4423 21.094 54.1863ZM32.5971 67.0199C32.4202 67.0169 32.2441 67.0115 32.0679 67.0051C32.4001 62.2671 32.6503 57.5016 32.8176 52.7308C35.9328 52.9077 39.0274 53.5059 41.9944 54.565C40.0376 59.5593 36.8539 63.8645 32.5971 67.0199ZM43.5181 55.1744C46.143 56.2635 48.6536 57.6923 50.9658 59.4896C46.2798 64.3112 40.7377 66.4711 35.3261 66.9289C38.9632 63.7626 41.7279 59.7385 43.5181 55.1744ZM42.5536 53.0242C39.4244 51.9066 36.16 51.2765 32.8741 51.093C32.9485 48.6993 33.0054 46.3053 33.0379 43.9146C36.9384 43.8818 40.6877 43.7397 44.2255 43.4868C44.1151 46.8234 43.5482 50.0314 42.5536 53.0242ZM33.0483 42.2784C33.0692 40.0966 33.0819 37.9162 33.0678 35.7434L43.6797 35.7175C44.0401 37.7883 44.2201 39.8363 44.2438 41.8478C40.7104 42.1037 36.9544 42.2455 33.0483 42.2784ZM31.4079 42.2905C27.4763 42.292 23.4057 42.1813 19.2614 41.9591C19.2785 39.9516 19.4335 37.8866 19.7311 35.7758L31.4272 35.7474C31.4415 37.9228 31.4289 40.1061 31.4079 42.2905ZM31.3967 43.9308C31.3644 46.2963 31.3081 48.6649 31.2346 51.0333C27.6484 51.0033 24.063 51.5289 20.6159 52.6171C19.8261 49.8124 19.3751 46.7851 19.2813 43.5905C23.376 43.8076 27.3444 43.9308 31.3967 43.9308ZM12.4137 58.4588C14.6531 56.8931 17.0495 55.6501 19.5406 54.7199C21.0918 59.3139 23.5626 63.2675 26.8522 66.3348C21.1314 65.0713 16.2578 62.2729 12.4137 58.4588ZM58.4704 39.9371C54.8102 40.731 50.5586 41.3247 45.881 41.7172C45.8521 39.7445 45.676 37.7394 45.3378 35.7135L58.0203 35.6827C58.2824 37.0948 58.4291 38.518 58.4704 39.9371ZM4.86627 35.8119L18.0775 35.7798C17.7947 37.8523 17.6445 39.8829 17.6242 41.8619C13.2985 41.6003 8.90929 41.2235 4.52441 40.7174C4.48509 39.1334 4.5923 37.4965 4.86627 35.8119Z" fill="black"/>
</svg>
