<svg width="69" height="70" viewBox="0 0 69 70" fill="none" xmlns="http://www.w3.org/2000/svg">
<path d="M27.9205 69.9998C27.3897 70.0021 26.9885 69.498 27.1228 68.9845C28.4013 64.0949 30.6872 60.2596 34.1398 56.8548C37.9683 53.0793 41.6247 51.1861 46.4378 50.1223C48.0262 49.7712 51.3881 49.5574 52.624 50.3217C53.5511 50.8952 51.5743 51.0015 50.9404 51.0788C49.8882 51.2072 48.3407 51.0165 47.303 51.2568C45.2724 51.7271 43.3253 52.5809 41.5184 53.6145C37.9339 55.665 35.3719 58.8268 32.8338 62.0219C32.0108 63.0579 31.2582 64.1778 30.8593 65.4393C30.6991 65.946 30.6296 66.5796 31.0239 66.9359C31.3173 67.201 31.7555 67.2044 32.1507 67.1931C42.0487 66.9087 51.9764 66.9517 61.8766 66.7566C62.5988 66.7424 63.2972 66.4903 64.013 66.588C64.7621 66.6903 67.7925 66.4919 68.2907 67.0606C68.8473 67.6957 68.2152 69.3017 67.3006 69.6461C66.6731 69.8824 64.1216 69.8452 63.4564 69.8481C62.485 69.8522 61.5137 69.8564 60.5423 69.8605C57.968 69.8715 55.3936 69.8825 52.8193 69.8935C47.0668 69.9181 41.3143 69.9426 35.5618 69.9672L27.9205 69.9998Z" fill="black"/>
<path d="M54.7182 45.3011C54.8622 45.3354 54.9945 45.398 55.1038 45.5026C55.9089 46.2734 53.2527 47.2934 52.7869 47.4725C48.3958 49.1611 42.9187 47.1318 41.1809 42.8506C39.4431 38.5694 41.6899 33.0399 46.081 31.3513C46.5262 31.1801 50.1132 30.2418 49.4213 31.636C49.2467 31.9879 48.4154 31.8295 48.0552 31.9864C46.4468 32.6874 44.816 34.0424 43.9452 35.6268C42.9828 37.3777 42.8001 39.5638 43.5395 41.4287C44.2385 43.1917 45.7347 44.5991 47.5009 45.2676C49.7207 46.1077 51.3911 45.9299 53.6639 45.571C53.9254 45.5297 54.4663 45.2411 54.7182 45.3011Z" fill="black"/>
<path d="M0.583702 55.2273C0.207642 55.2289 -0.0766316 54.8717 0.0185021 54.5079C0.924354 51.0435 2.54397 48.3261 4.99016 45.9138C7.70273 43.2388 10.2933 41.8974 13.7035 41.1437C14.8289 40.8949 17.2109 40.7434 18.0865 41.285C18.7434 41.6913 17.3428 41.7666 16.8937 41.8214C16.1482 41.9124 15.0517 41.7772 14.3165 41.9475C12.8778 42.2808 11.4983 42.8856 10.218 43.618C7.67838 45.0708 5.86311 47.311 4.06483 49.5747C3.48173 50.3088 2.94852 51.1022 2.66588 51.996C2.55236 52.355 2.50315 52.804 2.78249 53.0564C2.99035 53.2443 3.30082 53.2467 3.58087 53.2386C10.5938 53.0371 17.6277 53.0676 24.6422 52.9294C25.1539 52.9193 25.6487 52.7407 26.1558 52.8099C26.6866 52.8824 28.8337 52.7419 29.1867 53.1447C29.581 53.5948 29.1332 54.7326 28.4851 54.9766C28.0406 55.1441 26.2328 55.1177 25.7615 55.1198C25.0733 55.1227 24.385 55.1256 23.6968 55.1286C21.8728 55.1364 20.0489 55.1441 18.2249 55.1519C14.1492 55.1693 10.0734 55.1868 5.99768 55.2042L0.583702 55.2273Z" fill="black"/>
<path d="M19.5703 37.7276C19.6723 37.7519 19.7661 37.7963 19.8435 37.8704C20.414 38.4165 18.532 39.1392 18.202 39.2661C15.0908 40.4625 11.2102 39.0247 9.97893 35.9914C8.74767 32.9581 10.3395 29.0403 13.4507 27.8439C13.7661 27.7226 16.3076 27.0579 15.8174 28.0456C15.6936 28.295 15.1047 28.1827 14.8495 28.2939C13.7099 28.7906 12.5545 29.7506 11.9374 30.8732C11.2556 32.1137 11.1262 33.6626 11.65 34.984C12.1453 36.2331 13.2054 37.2302 14.4568 37.7039C16.0295 38.2991 17.213 38.1731 18.8233 37.9188C19.0086 37.8896 19.3919 37.6851 19.5703 37.7276Z" fill="black"/>
<path d="M19.7716 24.1204C19.6481 24.1204 19.5257 24.0924 19.4138 24.037L4.25363 16.572C4.05938 16.4764 3.91053 16.307 3.8419 16.1011C3.77434 15.8958 3.79017 15.6715 3.88836 15.4783L11.5075 0.445881C11.707 0.0510418 12.1821 -0.113122 12.5843 0.0827134L18.093 2.76318C18.3369 2.88142 18.5058 3.11368 18.5428 3.38236C18.5797 3.65051 18.4805 3.92025 18.2778 4.09972C17.6686 4.63972 17.5145 5.9087 17.9664 6.66195C18.4245 7.42788 19.494 7.87972 20.3544 7.66963C21.1831 7.46746 21.7923 6.66301 21.7406 5.83849C21.7226 5.54131 21.8683 5.25785 22.1217 5.10002C22.374 4.94271 22.6928 4.93638 22.9515 5.08418C23.7791 5.55556 24.6364 5.92717 25.5443 6.32095C26.4512 6.71421 27.3887 7.12066 28.2923 7.63532C28.6756 7.85386 28.8139 8.33843 28.6038 8.72641C28.115 9.62852 27.6199 10.5866 27.1247 11.5446C26.8048 12.1628 26.486 12.7809 26.1682 13.3837C27.7613 13.8445 29.1707 14.9456 29.3343 16.7029C29.4938 18.4195 28.2543 20.1525 26.5694 20.5658C24.7715 21.0039 23.6345 20.011 22.7224 19.1347C22.053 20.2791 21.7047 21.0435 21.1895 22.1715C20.9931 22.6044 20.7735 23.0858 20.5054 23.6548C20.4125 23.8517 20.2446 24.0032 20.0398 24.075C19.9522 24.1051 19.8624 24.1204 19.7716 24.1204ZM5.70525 15.4793L19.3863 22.2159C19.5045 21.9604 19.6122 21.7228 19.7146 21.499C20.3502 20.1039 20.7704 19.1822 21.8599 17.4292C21.9855 17.2265 22.1935 17.0898 22.4289 17.055C22.6706 17.017 22.905 17.0909 23.0834 17.2476C23.2967 17.435 23.5026 17.634 23.7084 17.8325C24.6374 18.732 25.2128 19.2271 26.183 18.9906C27.1026 18.7652 27.8067 17.7866 27.7191 16.8533C27.5871 15.4207 25.8579 14.8744 24.8581 14.7773C24.5878 14.7509 24.3482 14.5909 24.2204 14.3513C24.0927 14.1111 24.0938 13.8234 24.2236 13.5843C24.7061 12.6927 25.1949 11.7463 25.6837 10.7998C26.0553 10.083 26.4258 9.36617 26.7932 8.67257C26.183 8.36535 25.5538 8.09245 24.8993 7.80846C24.3313 7.56248 23.7517 7.31122 23.1763 7.03145C22.7984 8.09773 21.8905 8.96342 20.7387 9.24477C19.1899 9.6243 17.4005 8.87104 16.5749 7.49597C15.9309 6.4223 15.9478 4.91685 16.5126 3.79779L12.5928 1.89063L5.70525 15.4793Z" fill="black"/>
<path d="M57.8909 27.7788C57.8223 27.7788 57.7537 27.7704 57.684 27.7524L50.048 25.7529C49.7587 25.6769 49.5349 25.4478 49.4652 25.1569C49.3955 24.8661 49.4916 24.5605 49.7165 24.362C50.8229 23.3802 51.2768 21.1341 50.6318 19.8272C50.3626 19.2819 49.9139 18.9272 49.3681 18.8274C48.8033 18.7223 48.2121 18.9171 47.7433 19.3552C46.657 20.3672 46.2337 22.6977 46.9051 23.9724C47.054 24.2548 47.0233 24.5979 46.827 24.8492C46.6306 25.101 46.3012 25.2145 45.9961 25.1379L40.3786 23.766C39.9437 23.6599 39.6766 23.2208 39.7832 22.7858C39.8898 22.3503 40.3354 22.0874 40.7629 22.1909L45.0132 23.2287C44.7747 21.4408 45.3923 19.3294 46.6369 18.1686C47.4868 17.3779 48.5858 17.0353 49.6595 17.2322C50.7067 17.4233 51.5914 18.1074 52.0866 19.1093C52.8604 20.6781 52.6355 22.9125 51.6727 24.5019L58.0957 26.1836C58.5286 26.2971 58.7872 26.7405 58.6742 27.1734C58.5792 27.5376 58.2498 27.7788 57.8909 27.7788Z" fill="black"/>
<path d="M58.0749 27.3148C58.0179 27.3148 57.9598 27.309 57.9017 27.2963C57.4636 27.2013 57.186 26.7695 57.282 26.3319C57.7951 23.9687 58.248 21.1647 58.4919 18.831C58.5278 18.4937 58.7685 18.2145 59.0968 18.1301C59.4315 18.0467 59.7714 18.1749 59.9646 18.4531C60.3246 18.9725 60.692 19.3019 61.1935 19.5542C61.4447 19.6814 61.9483 19.853 62.4783 19.5669C63.1677 19.1958 63.7145 18.0794 63.6976 17.078C63.6828 16.1453 63.2099 15.3123 62.5733 15.0959C61.9673 14.8901 61.1755 15.2231 60.6023 15.9262C60.3658 16.2171 59.9614 16.3074 59.6247 16.1453C59.2879 15.9843 59.1042 15.6137 59.1802 15.2479C59.6204 13.1391 59.9192 10.9945 60.0702 8.86137L44.927 5.73275C44.3833 7.54542 43.961 9.40771 43.6696 11.2795C43.62 11.5994 43.3846 11.8591 43.071 11.9398C42.7553 12.0211 42.426 11.9071 42.2275 11.6516C41.7746 11.0668 41.3248 10.5141 40.8065 10.1752C40.5373 9.99838 40.001 9.73445 39.4594 9.95879C38.7922 10.2317 38.182 11.2177 38.0405 12.2523C37.8864 13.3635 38.2548 14.5169 38.9157 14.9956C39.5196 15.4348 40.5668 15.5319 41.2108 14.9307C41.4705 14.6884 41.859 14.642 42.1652 14.8177C42.4745 14.993 42.6329 15.3488 42.5569 15.6956L40.9374 23.1035C40.8424 23.5417 40.4064 23.8177 39.9725 23.7227C39.5354 23.6266 39.2577 23.1949 39.3538 22.7573L40.626 16.9381C39.6558 17.0928 38.6623 16.8157 37.9634 16.3084C36.8106 15.4723 36.1951 13.7536 36.4337 12.0306C36.6586 10.3927 37.6277 8.95639 38.845 8.45809C39.7423 8.08859 40.7822 8.22161 41.6954 8.81862C41.934 8.97486 42.1557 9.15433 42.3637 9.34911C42.6825 7.72331 43.0963 6.11334 43.5967 4.54348C43.7245 4.14759 44.1341 3.91322 44.5332 3.99609L61.0879 7.41609C61.4816 7.49738 61.7562 7.85422 61.734 8.25486C61.6348 10.0337 61.4352 11.8237 61.1396 13.5989C61.7868 13.3698 62.4677 13.3471 63.0959 13.5609C64.3786 13.9964 65.2928 15.4316 65.3192 17.0511C65.3467 18.6743 64.4757 20.3333 63.2479 20.9942C62.3896 21.4577 61.374 21.4608 60.464 21.0027C60.2655 20.9029 60.0797 20.7942 59.9055 20.6749C59.6426 22.657 59.2731 24.8022 58.8656 26.6761C58.7833 27.0556 58.4475 27.3148 58.0749 27.3148Z" fill="black"/>
<path d="M37.1315 10.7734C36.5848 11.6724 36.1591 12.6656 36.0559 13.7126C35.9526 14.7597 36.1982 15.8672 36.8682 16.6784C37.5381 17.4897 38.6633 17.9489 39.6831 17.6902C39.3467 19.2391 39.0611 20.9384 38.7247 22.4874C39.1 22.7302 39.3821 23.2983 39.7574 23.5412C40.4678 21.0584 41.2359 18.2705 41.6869 15.7278C41.0914 16.0266 40.4624 16.2243 39.8012 16.3063C39.14 16.3882 38.4347 16.276 37.8952 15.8851C37.2738 15.435 36.9447 14.674 36.8165 13.9175C36.6118 12.7107 36.4876 11.8144 37.1315 10.7734Z" fill="black"/>
<path d="M49.7653 25.5237C49.523 25.0818 49.2807 24.64 49.0385 24.1982C49.4882 23.584 49.8331 22.9393 50.0461 22.2085C50.2591 21.4776 50.2636 20.664 49.932 19.9788C49.6004 19.2935 48.897 18.7684 48.1357 18.7683C49.1323 18.3092 50.3942 18.8475 50.9703 19.7813C51.5464 20.7151 51.5319 21.9193 51.1899 22.9618C50.8478 24.0043 50.3911 24.6225 49.7653 25.5237Z" fill="black"/>
<path d="M18.2332 3.14258C18.5455 3.44056 18.7953 3.80386 18.9617 4.20223C18.5075 4.74177 18.3222 5.79028 18.6477 6.41591C18.9733 7.04154 19.6951 7.43696 20.3976 7.37455C21.1001 7.31213 21.7409 6.79564 21.9511 6.12241C21.9738 7.08198 21.3308 8.00877 20.4414 8.36973C19.5521 8.73069 18.4742 8.53141 17.7388 7.91468C17.0033 7.29794 16.6209 6.3016 16.7022 5.34521C16.7835 4.38883 17.4712 3.72629 18.2332 3.14258Z" fill="black"/>
<path d="M28.6604 8.375C28.6659 8.90477 28.6714 9.43454 28.6769 9.9643C28.6916 11.3856 27.3952 12.7538 26.8176 14.0524C26.3807 13.9087 25.9438 13.7651 25.5068 13.6214C26.6351 11.8931 27.7482 10.2264 28.6604 8.375Z" fill="black"/>
<path d="M26.8663 21.098C25.5181 21.5755 23.9669 21.1659 22.8257 20.3037C22.3947 21.4903 21.5776 22.8187 21.1466 24.0052C20.4551 24.0557 20.1495 23.9642 19.458 24.0146C20.3086 21.804 21.3641 19.6722 22.6065 17.6555C22.9562 19.1413 24.5266 20.2308 26.0407 20.0382C27.5643 19.8477 28.7497 18.4235 28.7735 16.9121C29.1271 18.6324 28.714 20.4437 26.8663 21.098Z" fill="black"/>
<path d="M51.1357 47.3973C47.4797 47.3973 44.0085 45.3181 42.577 41.9224C41.6923 39.8236 41.7028 37.5179 42.6055 35.4313C43.562 33.2233 45.382 31.5283 47.731 30.6589C52.4237 28.9223 57.7498 31.115 59.6152 35.539C60.4999 37.6383 60.4904 39.944 59.5867 42.0311C58.6302 44.2386 56.8102 45.933 54.4612 46.8024C53.3706 47.2057 52.2442 47.3973 51.1357 47.3973ZM51.0702 31.6824C50.1454 31.6824 49.2058 31.8424 48.2947 32.1797C46.3638 32.8939 44.8721 34.2779 44.094 36.0753C43.3677 37.7523 43.3603 39.6051 44.0719 41.2921C45.6037 44.9301 50.0124 46.7196 53.8974 45.2817C55.8284 44.5669 57.3201 43.184 58.0981 41.3866C58.8245 39.7096 58.8319 37.8568 58.1203 36.1692C56.9474 33.3843 54.0885 31.6824 51.0702 31.6824Z" fill="black"/>
<path d="M31.1841 68.3246C30.9476 68.3246 30.7228 68.2211 30.5686 68.0411C30.4124 67.8596 30.3448 67.6178 30.3839 67.3818C31.3467 61.5511 34.877 57.7949 37.8447 55.1735C42.0401 51.4669 45.8364 49.8131 50.1543 49.8115C50.5977 49.8142 51.0337 49.8295 51.4708 49.868C55.415 50.2159 59.2113 51.9214 62.161 54.6699C63.9452 56.3327 65.3493 58.3787 66.5792 61.1088C67.1862 62.4516 67.7088 63.8568 68.2356 65.2989C68.2768 65.4103 68.3327 65.5354 68.3908 65.6679C68.5914 66.1266 68.8194 66.646 68.8163 67.1696C68.8131 67.6131 68.4542 67.972 68.0108 67.9752L66.4061 67.9862L31.1915 68.3246C31.1894 68.3246 31.1862 68.3246 31.1841 68.3246ZM50.1491 51.4331C46.2608 51.4347 42.796 52.9628 38.9173 56.3886C35.0713 59.786 33.0095 62.9167 32.1681 66.6935L66.9234 66.361C66.917 66.3467 66.9118 66.333 66.9054 66.3198C66.8326 66.1525 66.764 65.9946 66.7122 65.8548C66.197 64.4433 65.685 63.0682 65.1012 61.7755C63.9473 59.2143 62.6994 57.3884 61.0546 55.8566C58.3689 53.3524 54.9146 51.7994 51.3293 51.4833C50.9366 51.4489 50.5428 51.4357 50.1491 51.4331Z" fill="black"/>
<path d="M17.0332 39.448C14.3507 39.448 11.8011 37.9198 10.7496 35.4241C10.0972 33.8775 10.1046 32.1783 10.7707 30.6396C11.4738 29.0159 12.8125 27.7696 14.5375 27.1309C17.9728 25.8593 21.8864 27.4666 23.2567 30.7188C23.9091 32.2659 23.9017 33.9651 23.2356 35.5038C22.5325 37.1275 21.1938 38.3738 19.4688 39.0125C18.6696 39.3081 17.8451 39.448 17.0332 39.448ZM16.9878 28.3138C16.3586 28.3138 15.721 28.4226 15.1013 28.6517C13.7943 29.1357 12.785 30.0705 12.2593 31.2841C11.7705 32.4121 11.7652 33.6589 12.2445 34.7944C13.2823 37.2563 16.2689 38.4646 18.905 37.4917C20.212 37.0077 21.2213 36.0728 21.747 34.8593C22.2358 33.7307 22.2411 32.4839 21.7618 31.3485C20.9679 29.4651 19.0328 28.3138 16.9878 28.3138Z" fill="black"/>
<path d="M2.89604 54.2757C2.65956 54.2757 2.43469 54.1723 2.28056 53.9923C2.12431 53.8107 2.05674 53.5695 2.09581 53.333C2.78941 49.1296 5.32525 46.4286 7.45674 44.5446C10.437 41.9133 13.2579 40.6876 16.3364 40.6865C16.6584 40.6886 16.974 40.6997 17.2897 40.7277C20.1349 40.9784 22.8745 42.2089 25.0038 44.192C26.2908 45.3908 27.3032 46.8646 28.1889 48.8298C28.6207 49.7858 28.9934 50.7871 29.3692 51.8143C29.3967 51.8903 29.4347 51.9743 29.4738 52.0629C29.6184 52.3929 29.7989 52.803 29.7947 53.2248C29.7905 53.6671 29.4326 54.025 28.9902 54.0282L2.90343 54.2757C2.90132 54.2757 2.89815 54.2757 2.89604 54.2757ZM16.3301 42.3081C13.6401 42.3092 11.233 43.3733 8.53041 45.7598C5.94707 48.0433 4.51762 50.1495 3.89264 52.6446L27.8627 52.415C27.8574 52.3997 27.8511 52.3849 27.8458 52.3702C27.4816 51.3736 27.1195 50.4028 26.7109 49.496C25.9054 47.7097 25.0376 46.4397 23.8985 45.3787C22.033 43.6404 19.6355 42.562 17.1482 42.3429C16.8748 42.3192 16.6035 42.3102 16.3301 42.3081Z" fill="black"/>
<path d="M0.58371 55.2269C3.6321 55.2139 23.5921 55.1287 25.7615 55.1194C26.2328 55.1174 28.0406 55.1437 28.4852 54.9763C28.8578 54.836 29.1579 54.4 29.2761 53.9694C29.5764 53.8526 29.7919 53.5663 29.7951 53.2252C29.8007 52.6681 29.4768 52.1115 29.3697 51.8148C28.3233 48.9549 27.2952 46.3265 25.0043 44.1925C21.4972 40.9263 16.3677 39.629 11.7605 41.6786C6.57619 43.3695 1.69819 48.0839 0.0185045 54.5075C-0.0766421 54.8713 0.207676 55.2285 0.58371 55.2269ZM27.8631 52.4155L3.89306 52.6451C4.51804 50.1499 5.94749 48.0437 8.53083 45.7602C11.0567 43.5299 13.7618 42.0492 17.1487 42.3434C19.6359 42.5625 22.0335 43.6409 23.8989 45.3791C25.8514 47.1977 26.9424 49.7453 27.8631 52.4155Z" fill="black"/>
<path d="M18.0935 2.76318L12.5848 0.0827134C12.1825 -0.113122 11.7074 0.0510418 11.5079 0.445881C3.66903 16.1071 3.64099 15.4892 3.84235 16.1011C3.91097 16.307 4.05982 16.4764 4.25408 16.572C20.3196 24.4494 19.5663 24.3346 20.1574 24.0054C20.4577 24.0161 20.7362 24.0348 21.1471 24.0048C21.5781 22.8183 22.3951 21.4898 22.8261 20.3034C25.0737 22.0012 28.251 21.5211 28.8019 18.8588C29.8835 17.0647 29.3906 14.8069 26.995 13.6997C27.6234 12.5067 28.6902 11.258 28.6767 9.9647C28.6719 9.48976 28.6669 9.01482 28.662 8.53988C28.7512 8.19367 28.6171 7.82027 28.2928 7.63532C26.5391 6.63656 24.6144 6.03101 22.9519 5.08418C22.3943 4.76556 21.7021 5.19425 21.741 5.83849C21.8521 7.60776 19.4267 7.91356 18.6476 6.4163C18.3221 5.79065 18.5073 4.74219 18.9616 4.20266C18.8544 3.94598 18.702 3.71254 18.5312 3.49315C18.5313 3.4554 18.5484 3.4203 18.5432 3.38236C18.5063 3.11368 18.3374 2.88142 18.0935 2.76318ZM23.1768 7.03145C24.3639 7.60868 25.6515 8.09756 26.7937 8.67257C26.4263 9.36617 26.0557 10.083 25.6841 10.7998C25.1953 11.7463 24.7065 12.6927 24.224 13.5843C23.9473 14.0939 24.2813 14.7209 24.8585 14.7773C25.8583 14.8744 27.5876 15.4207 27.7195 16.8533C27.8072 17.7866 27.103 18.7652 26.1835 18.9906C25.2133 19.2271 24.6379 18.732 23.7089 17.8325C23.503 17.634 23.2971 17.435 23.0839 17.2476C22.9055 17.0909 22.6711 17.017 22.4293 17.055C22.1939 17.0898 21.9859 17.2265 21.8603 17.4292C20.5846 19.4818 20.2439 20.3638 19.3867 22.2159L5.70569 15.4793L12.5932 1.89063L16.5131 3.79779C15.9483 4.91685 15.9314 6.42231 16.5754 7.49597C17.4009 8.87104 19.1904 9.6243 20.7391 9.24477C21.8909 8.96342 22.7988 8.09773 23.1768 7.03145Z" fill="black"/>
<path d="M61.0878 7.41609L44.5331 3.99609C44.1341 3.91322 43.7244 4.14759 43.5967 4.54348C43.0963 6.11334 42.6825 7.72331 42.3636 9.34912C41.1436 8.2065 39.8487 8.04477 38.8449 8.45809C37.7307 8.9142 36.6211 10.2808 36.4195 12.2123C36.2368 12.6963 36.1066 13.1977 36.0558 13.7125C35.7922 16.3863 37.7836 18.1719 39.6831 17.6901C39.3466 19.239 39.0611 20.9383 38.7246 22.4873C38.97 22.646 39.1766 22.9398 39.3944 23.1949C39.5349 23.5909 39.9089 23.8006 40.2958 23.7265C40.5468 23.8194 43.9234 24.6256 45.9964 25.1374C46.6622 25.3044 47.2341 24.5957 46.9053 23.9719C46.1157 22.4728 46.807 19.2968 48.6683 18.8576C50.1812 19.3463 50.9997 21.5199 49.0383 24.1984C49.1735 24.4449 49.3086 24.6913 49.4437 24.9378C49.4296 25.3154 49.6797 25.6555 50.0482 25.7523L57.6842 27.7519C57.7539 27.7698 57.8225 27.7783 57.8911 27.7783C58.2501 27.7783 58.5795 27.537 58.6745 27.1728C58.6877 27.1219 58.6797 27.0723 58.683 27.0216C58.7668 26.9233 58.8363 26.8112 58.8656 26.6761C59.2731 24.8022 59.6426 22.657 59.9054 20.6749C62.7426 22.6179 65.3686 19.9758 65.3192 17.0511C65.2928 15.4316 64.3785 13.9964 63.0958 13.5609C62.4677 13.3471 61.7867 13.3698 61.1396 13.5989C61.4352 11.8237 61.6347 10.0337 61.7339 8.25486C61.7561 7.85422 61.4816 7.49739 61.0878 7.41609ZM62.5732 15.0959C63.2098 15.3123 63.6828 16.1453 63.6976 17.078C63.7145 18.0794 63.1676 19.1958 62.4782 19.5669C61.5686 20.058 60.5527 19.3017 59.9646 18.4531C59.7714 18.1749 59.4314 18.0467 59.0968 18.1301C58.7684 18.2145 58.5277 18.4937 58.4918 18.8311C58.2594 21.0558 57.8349 23.6978 57.3513 25.9881L51.673 24.5013C52.6358 22.9119 52.8606 20.6775 52.0868 19.1087C51.0394 16.9893 48.4055 16.5228 46.6372 18.1681C45.3925 19.3288 44.7749 21.4403 45.0135 23.2281L41.1181 22.277L42.5568 15.6956C42.6328 15.3488 42.4745 14.993 42.1652 14.8177C41.859 14.642 41.4705 14.6884 41.2108 14.9307C40.5668 15.5319 39.5195 15.4348 38.9157 14.9956C38.2548 14.5169 37.8863 13.3635 38.0405 12.2523C38.1819 11.2177 38.7921 10.2317 39.4593 9.95879C40.5223 9.51849 41.5219 10.7405 42.2274 11.6516C42.4259 11.9071 42.7553 12.0211 43.071 11.9398C44.0424 11.6896 43.3827 10.881 44.9269 5.73275L60.0701 8.86137C59.9192 10.9945 59.6204 13.1391 59.1802 15.2479C59.0081 16.0762 60.0684 16.5828 60.6022 15.9262C61.1755 15.2231 61.9673 14.8901 62.5732 15.0959Z" fill="black"/>
<path d="M47.7305 30.6586C47.3022 30.8171 46.8984 31.012 46.5073 31.2235C42.2304 32.3694 39.2735 38.1519 41.1808 42.8509C42.9188 47.1325 48.7049 49.6069 53.9604 46.9618C56.6708 46.1258 58.6063 44.2925 59.5862 42.0308C62.6156 35.0342 55.2598 27.8721 47.7305 30.6586ZM58.0977 41.3863C55.563 47.2415 46.5718 47.2301 44.0714 41.2918C43.3598 39.6047 43.3672 37.7519 44.0936 36.0749C46.6324 30.2101 55.6152 30.2217 58.1198 36.1689C58.8314 37.8565 58.824 39.7092 58.0977 41.3863Z" fill="black"/>
<path d="M68.2364 65.2991C66.7824 61.3187 65.3473 57.6388 62.1618 54.6701C59.2121 51.9216 55.4158 50.216 51.4716 49.8682C41.5412 48.9927 30.2973 56.8472 27.1238 68.9845C26.9895 69.498 27.3907 70.0021 27.9215 69.9999C67.8831 69.8922 66.7859 69.8403 67.3015 69.6461C67.9534 69.4007 68.4527 68.5173 68.4896 67.7984C69.2397 67.2253 68.5127 66.0465 68.2364 65.2991ZM65.102 61.7751C65.6858 63.0678 66.1978 64.4434 66.713 65.8549C66.7692 66.0068 66.8761 66.253 66.9242 66.3611L32.1689 66.6937C33.0103 62.9169 35.0721 59.7861 38.9181 56.3888C42.5455 53.185 46.4473 51.0568 51.3301 51.4834C54.9154 51.7996 58.3697 53.3526 61.0554 55.8567C62.7002 57.3886 63.9481 59.2139 65.102 61.7751Z" fill="black"/>
<path d="M12.5864 28.2761C10.0591 29.8046 8.86735 33.2542 9.97816 35.9908C11.1661 38.9174 14.8182 40.3512 17.8681 39.3746C20.4391 39.0678 22.357 37.532 23.2354 35.5035C23.9016 33.9647 23.909 32.265 23.2565 30.7179C21.6064 26.8018 16.2393 25.2676 12.5864 28.2761ZM21.7469 34.8589C20.0279 38.8267 13.9318 38.7973 12.2443 34.794C11.765 33.6586 11.7703 32.4118 12.2591 31.2837C13.9741 27.3252 20.0635 27.319 21.7616 31.3476C22.2409 32.483 22.2356 33.7304 21.7469 34.8589Z" fill="black"/>
</svg>
