<svg width="60" height="60" viewBox="0 0 60 60" fill="none" xmlns="http://www.w3.org/2000/svg">
<path d="M12.679 59.4779V48.8739C12.5851 48.7992 10.6325 47.2462 10.7532 47.3422L10.7521 47.4075C10.4717 47.3229 11.2685 47.3894 0.699721 47.3674C0.313417 47.3674 0 47.6809 0 48.0672V59.2436C0 59.6299 0.313417 59.9433 0.699721 59.9433H10.5291L10.5288 59.9549L12.679 59.4779ZM9.85349 58.5438H1.39944V48.7669H9.85349V58.5438Z" fill="#191931"/>
<path d="M28.0403 59.2991V38.5105L26.4813 36.9247L26.4784 37.0839C26.0892 36.7484 26.3546 36.9782 16.1602 36.9078C15.7739 36.9078 15.4604 37.2213 15.4604 37.6076V59.2442C15.4604 59.6305 15.7739 59.944 16.1602 59.944C18.0973 59.9427 25.7422 59.9493 26.0604 59.9371L26.0593 60.0004L28.0403 59.2991ZM25.3267 58.5445H16.8599V38.3073H25.3267V58.5445Z" fill="#191931"/>
<path d="M42.3328 26.3896C42.2044 26.2352 42.0183 26.1309 41.8018 26.1309H31.9356C31.5493 26.1309 31.2358 26.4443 31.2358 26.8306V59.2437C31.2358 59.63 31.5493 59.9434 31.9356 59.9434H41.8018C42.0229 59.9434 42.2117 59.8343 42.3399 59.6742L44.1704 58.9899L44.1915 28.24L42.3329 26.3814L42.3328 26.3896ZM41.1021 58.544H32.6353V27.5303H41.1021V58.544Z" fill="#191931"/>
<path d="M57.5781 15.2317L57.5751 15.4288C57.4556 15.2137 57.2349 15.0625 56.9717 15.0625H47.1055C46.7192 15.0625 46.4058 15.3759 46.4058 15.7622V59.2433C46.4058 59.6296 46.7192 59.943 47.1055 59.943H56.8958L56.8956 59.9546L56.9282 59.943H56.9717C57.1471 59.943 57.3026 59.8724 57.4254 59.7658L59.7907 58.9221L59.7777 17.4313L57.5781 15.2317ZM56.272 58.5436H47.8052V16.4619H56.272V58.5436Z" fill="#191931"/>
<path d="M53.3369 8.39925C54.8847 7.37882 55.7083 5.22978 55.2085 3.36887C54.8279 1.95143 53.6808 0.820309 52.3544 0.436055C50.4716 -0.572749 48.0299 0.250624 46.8451 2.06486L46.9049 1.94961C46.5467 2.31164 46.4775 2.74207 46.4373 2.85L46.3894 2.94225C46.3834 2.97459 46.3836 3.00807 46.3782 3.04065C46.0326 4.11722 46.112 5.41994 46.8809 6.54016C44.065 9.23083 41.5814 11.2616 39.1606 13.5847C36.5849 11.3927 31.9889 13.7397 32.4113 17.4751C32.4017 17.4767 32.3922 17.4788 32.3827 17.4806C32.3586 17.3828 25.5237 18.8562 20.5288 20.2467C20.1341 19.5802 19.571 19.029 18.9125 18.6671C15.9144 15.9515 9.9851 19.6076 12.8095 24.5985C9.46527 29.9113 9.44783 30.0478 6.51396 34.3226C4.91367 33.5963 2.96008 34.1143 1.71454 35.405C-0.125496 37.3116 0.456715 40.9492 2.24127 42.3858C3.69304 43.5547 5.82648 43.7019 7.3742 42.6817C9.4507 41.313 10.3106 37.8397 8.06128 35.6988C7.93561 35.4995 7.79826 35.3139 7.64571 35.1472C10.6207 30.8135 10.6942 30.5856 13.7254 25.7706C15.2741 27.2252 17.5443 27.3279 19.1051 26.2991C20.5733 25.331 21.3752 23.3499 21.0288 21.56C24.8041 20.5132 28.652 19.6132 32.4979 18.8841C33.5846 22.1177 36.9848 23.0258 39.2295 21.5459C41.2986 20.1818 42.1095 16.8025 40.0458 14.6769C42.5723 12.2449 44.7378 10.5142 47.7337 7.66058C49.2691 9.30512 51.6963 9.48092 53.3369 8.39925ZM7.30957 37.4905C7.82175 39.5977 5.68316 41.8402 3.38913 40.6347C2.74499 40.2967 2.26667 39.7491 2.07625 39.1323C1.04687 35.7967 6.34145 33.5149 7.30957 37.4905ZM18.8185 21.2475C19.1547 22.6269 18.2792 24.204 16.9453 24.6222C15.6245 25.0392 13.9889 24.1991 13.5861 22.8902C12.5569 19.5602 17.8491 17.2668 18.8185 21.2475ZM39.146 16.242C39.6581 18.3491 37.518 20.592 35.2246 19.3852C34.5814 19.0472 34.103 18.4996 33.9126 17.8828C32.8846 14.5518 38.177 12.2629 39.146 16.242ZM48.3617 2.38511C49.1325 1.587 50.2941 1.22802 51.2435 1.48222C52.0944 1.71273 52.6848 2.41062 52.9499 3.49938C53.4609 5.59578 51.3269 7.85089 49.0295 6.64357C47.3552 5.76497 47.1151 3.67724 48.3617 2.38511Z" fill="#191931"/>
</svg>
