<svg width="63" height="60" viewBox="0 0 63 60" fill="none" xmlns="http://www.w3.org/2000/svg">
<path d="M62.1981 36.4388C61.784 35.1115 61.2835 33.7979 60.7055 32.5338C60.5769 32.2528 60.2912 32.0977 60.0001 32.118C59.9901 32.1176 59.9817 32.1123 59.9716 32.1123C59.9692 32.1123 59.9664 32.1123 59.9641 32.1123C58.971 32.1231 57.9794 32.2421 57.0055 32.4374L55.9478 30.765C56.4665 29.7605 56.8353 28.6927 57.0312 27.5808C57.0339 27.5768 57.0386 27.5756 57.0412 27.5716C57.2618 27.2395 57.171 26.7907 56.8384 26.5705C55.5612 25.7237 54.1786 25.0378 52.7296 24.5316C52.6955 24.5201 52.661 24.5243 52.6266 24.518C52.3535 24.4173 52.0363 24.4846 51.8339 24.7179C51.0965 25.564 50.4625 26.4917 49.9064 27.4608C49.701 27.3836 49.4958 27.3084 49.2852 27.2437C49.523 15.1205 50.721 13.7179 50.2144 12.9729C47.6884 8.36658 44.1838 4.70164 40.0829 1.92628C39.9907 1.79702 39.8594 1.69658 39.6993 1.65025C32.9273 -0.318084 25.4501 -0.0913311 16.792 0.169294C1.26399 0.641708 2.28905 0.0438149 1.85367 0.647851C1.08456 1.21626 0.127327 1.85501 0.0559371 2.7933C0.0101278 3.39582 -0.137591 39.6466 0.364841 58.0125C0.767775 58.1824 1.05721 58.3482 1.38158 58.5152C1.40017 58.6811 1.46468 58.8391 1.58593 58.9567C2.26057 59.6132 2.67921 58.4135 26.2418 59.5909C33.4847 59.9547 41.3267 60.4062 48.3319 59.3114C48.6622 59.2597 48.9138 58.9887 48.9407 58.6547C49.2203 55.1734 49.2219 53.9145 49.1878 53.0499C50.7224 52.7469 51.4827 52.6491 52.8086 52.1729C53.1199 52.0607 53.2945 51.758 53.2733 51.4435C53.4421 51.2323 53.6464 50.9197 53.9039 50.4029C53.6894 49.6918 53.4833 48.7634 53.3305 47.9538C53.9444 47.5235 54.3777 47.1768 55.1616 46.5872C57.626 47.7384 57.785 47.8975 58.0668 47.8975C58.3212 47.8975 58.5624 47.7588 58.6932 47.5254C59.9196 46.1223 60.8062 44.4899 60.9224 44.107C61.0249 43.8266 60.9441 43.5256 60.7285 43.3319C60.7692 43.0708 60.792 42.8031 60.783 42.5166C59.8562 41.8665 58.9318 41.1641 58.1728 40.5843C58.4525 39.9271 58.6272 39.3199 58.7109 38.7491C59.8379 38.4612 60.9368 38.0641 61.9804 37.5516C62.3384 37.3766 62.4866 36.9428 62.3106 36.5853C62.2823 36.5277 62.2383 36.4851 62.1981 36.4388ZM48.3881 12.6878C45.254 12.802 42.5616 13.0863 39.7609 12.7903C40.2177 9.74091 40.2821 6.54614 40.2473 3.82345C43.6152 6.29151 46.4486 9.37726 48.3881 12.6878ZM47.5449 57.9678C35.8965 59.6447 22.7013 57.1153 2.81191 57.6922C2.85292 40.0863 4.34764 21.5675 3.19626 1.79985C18.4532 2.03071 29.2307 0.284228 38.7876 2.8941C38.9868 12.4139 37.8352 13.1385 38.3435 13.8385C38.5911 14.1809 38.9157 14.1303 39.3887 14.1853C41.1738 15.6703 44.0278 14.4877 46.0713 15.5314C47.2433 16.13 47.9758 17.3762 48.2694 18.6592C48.2704 18.6636 48.2705 18.668 48.2715 18.6724C48.049 21.1931 47.9112 23.9086 47.8466 26.9108C47.5685 26.865 47.2905 26.8307 47.0106 26.8069L46.0371 23.9445C45.9091 23.5663 45.4984 23.364 45.1202 23.4929C45.0736 23.5086 45.0389 23.5402 44.998 23.5639C41.0406 24.8293 41.1659 24.7033 40.9382 24.9435C40.7649 25.1065 40.6661 25.3427 40.7131 25.5939L41.245 28.4429L39.1958 30.5249L36.1117 28.5746C35.6738 28.2973 35.0959 28.5575 35.0124 29.0683C34.1249 30.3438 33.7561 31.1272 33.5026 31.4866C33.4322 31.5852 33.1613 32.1067 32.7198 32.6985C32.5584 32.9157 32.5569 33.1466 32.644 33.4051C32.8522 33.9058 32.8532 33.649 35.9297 35.7457L35.7196 38.185C34.8232 38.7637 33.8241 39.2034 32.7888 39.4684C32.26 39.4061 31.9068 39.8646 31.9925 40.3131L32.781 44.4342C32.8348 44.7154 33.0471 44.9194 33.3061 44.9889C33.6806 45.17 33.6206 45.0426 36.8383 44.5198C37.6952 45.4507 37.6686 45.3845 38.6275 46.4206L37.1954 49.3525C37.16 49.3859 37.1191 49.4114 37.0902 49.4528C36.8914 49.7362 36.9144 50.1376 37.2514 50.4417C37.2579 50.4465 37.2609 50.4539 37.2676 50.4586C37.2793 50.4669 37.292 50.4736 37.3037 50.4817C37.3393 50.5083 37.3674 50.5419 37.4087 50.5621C37.4192 50.5673 37.4308 50.5652 37.4414 50.5697C39.2769 51.8141 41.3072 52.4721 41.6601 52.4721C41.8235 52.4721 41.9783 52.4146 42.1037 52.3166C42.3179 52.2225 42.3797 52.1102 42.4536 52.009C42.5501 51.9947 43.7031 51.8231 43.8449 51.7994C44.1501 51.1892 44.2097 51.0483 45.1481 49.3747C46.101 49.6167 46.3292 49.674 46.7249 49.7737L47.7073 52.2959C47.7116 52.3924 47.7297 52.8075 47.7255 52.7111C47.7674 53.5382 47.8139 54.4706 47.5449 57.9678ZM51.9639 47.1319C51.6304 47.2234 51.3954 47.5315 51.4312 47.8881L51.7426 51.004C50.8652 51.2763 50.1898 51.38 48.993 51.615L48.0678 49.2396C48.0894 48.9201 47.9044 48.6274 47.5991 48.5185C47.5217 48.476 44.2894 47.6667 44.2038 47.6454C43.8705 47.5607 43.548 47.7312 43.3983 48.0226L43.3857 48.0152C43.1926 48.3381 42.2796 49.7719 41.4515 50.9221C40.4689 50.6094 39.5357 50.1798 38.6643 49.6378L40.1853 46.5239C40.3582 46.1695 40.2267 45.6991 39.7819 45.539C38.8902 44.5662 38.5214 44.2315 37.7769 43.4088C37.661 43.1824 37.4454 43.0361 37.1271 43.0247C36.8928 43.0277 35.2558 43.3337 34.0799 43.5314L33.5487 40.7547C34.7248 40.4058 35.8582 39.8744 36.8555 39.1755C37.0983 39.0057 37.2031 38.7136 37.1479 38.4402C37.291 36.7459 37.4007 35.6095 37.4007 35.4271C37.4007 35.2417 37.2474 34.8803 37.0347 34.7412L34.2977 32.9544C34.8474 32.1044 35.1764 31.439 35.9889 30.2066L38.6848 31.911C38.708 31.9427 38.7214 31.9794 38.7504 32.0079C39.0341 32.2888 39.4914 32.284 39.7722 32.0004C42.4572 29.1976 42.4784 29.4024 42.5628 28.9822C42.6858 28.8246 42.7486 28.6219 42.7092 28.4099L42.2484 25.9422L44.9066 25.1079L45.6866 27.4013C45.6314 27.8627 45.9799 28.1946 46.3735 28.2058C49.3455 28.2903 49.8625 29.441 50.5797 28.8919C51.1063 28.6357 50.8639 28.1988 52.6324 26.042C53.6581 26.4281 54.6431 26.9123 55.574 27.4868C55.0907 29.9879 54.232 30.2747 54.5133 30.968C54.5115 31.3841 54.6335 31.2998 56.0255 33.5905C56.1643 33.811 56.4113 33.9527 56.7246 33.9151C57.1886 33.9622 57.441 33.6645 59.5784 33.5829C60.0001 34.543 60.3757 35.527 60.7 36.5246C59.8921 36.8766 59.0598 37.1678 58.2034 37.3773C58.1556 37.3667 58.1111 37.3471 58.0602 37.3465C58.0574 37.3465 58.0541 37.3465 58.0512 37.3465C57.6561 37.3465 57.3338 37.6645 57.3286 38.0597C57.3188 38.8509 57.0182 39.7862 56.4099 40.9199C56.2208 41.2718 56.3529 41.7094 56.7048 41.8985C56.7434 41.9192 56.7858 41.9159 56.8259 41.9288C57.7154 42.5726 58.5536 43.2877 59.3411 44.0492C58.9229 44.8374 58.4258 45.5816 57.8561 46.2731L55.3702 45.0852C55.0807 44.9467 54.7517 45.0254 54.5418 45.2463C54.441 45.3221 54.4567 45.3035 53.6639 45.9095C53.069 46.3641 52.5807 46.7334 51.9639 47.1319Z" fill="#191931"/>
<path d="M50.5255 31.5805C50.4454 31.5429 50.5749 31.5918 49.3861 31.2107C46.77 30.5841 45.0378 30.8438 42.998 32.1638C38.5055 35.0646 38.4737 42.3071 44.1214 44.8008C48.8457 46.9117 53.5981 43.6052 54.3803 39.5197C55.0084 36.2971 53.3872 32.9579 50.5255 31.5805ZM52.9615 39.243C52.9615 39.244 52.9615 39.2449 52.961 39.2459C52.3248 42.581 48.5007 45.1447 44.7047 43.4685C40.0629 41.4455 40.3072 35.619 43.7827 33.3776C45.4857 32.273 46.8137 32.081 48.998 32.6013L49.9422 32.9043C52.1584 33.9976 53.455 36.713 52.9615 39.243Z" fill="#191931"/>
<path d="M12.2499 19.2733H35.08C35.479 19.2733 35.8026 18.9497 35.8026 18.5507C35.8026 18.1518 35.479 17.8281 35.08 17.8281H12.2499C11.851 17.8281 11.5273 18.1518 11.5273 18.5507C11.5273 18.9497 11.851 19.2733 12.2499 19.2733Z" fill="#191931"/>
<path d="M13.166 29.3174C12.767 29.3174 12.4434 29.641 12.4434 30.04C12.4434 30.4389 12.767 30.7626 13.166 30.7626H29.1097C29.5087 30.7626 29.8323 30.4389 29.8323 30.04C29.8323 29.641 29.5087 29.3174 29.1097 29.3174H13.166Z" fill="#191931"/>
<path d="M25.6048 41.7812C25.6048 41.3823 25.2812 41.0586 24.8822 41.0586H11.1674C10.7685 41.0586 10.4448 41.3823 10.4448 41.7812C10.4448 42.1801 10.7685 42.5038 11.1674 42.5038H24.8822C25.2812 42.5038 25.6048 42.1801 25.6048 41.7812Z" fill="#191931"/>
<path d="M30.2626 49.3018H20.0771C19.6782 49.3018 19.3545 49.6254 19.3545 50.0244C19.3545 50.4233 19.6782 50.747 20.0771 50.747H30.2626C30.6616 50.747 30.9852 50.4233 30.9852 50.0244C30.9852 49.6254 30.6616 49.3018 30.2626 49.3018Z" fill="#191931"/>
</svg>
