<svg width="66" height="60" viewBox="0 0 66 60" fill="none" xmlns="http://www.w3.org/2000/svg">
<path d="M0.0172479 25.7711C-0.129884 31.1342 0.622704 35.5048 3.88938 40.1631C7.08374 44.7184 11.6217 48.8827 17.124 51.4167C16.5338 52.0219 15.9277 52.6311 15.3384 53.236C15.0398 53.5425 15.0909 54.0625 15.4439 54.4542C18.2148 57.5285 18.7655 58.0084 18.6622 57.9089C18.9438 58.1804 19.5236 58.13 20.0283 57.9529C20.8301 58.4394 21.5922 57.3936 20.9746 56.7634C19.5687 55.3297 19.0188 54.9601 17.826 53.784C19.9425 50.7593 22.9068 48.3176 26.437 46.6985C26.8548 46.5062 27.4871 46.7207 27.8778 47.1879C29.5445 49.1789 29.3706 49.3012 30.5108 50.6929C30.685 50.9053 30.9247 51.1973 31.0546 51.3997C28.0031 53.4034 26.3363 55.3131 24.1674 56.6255C23.8019 56.847 23.6851 57.3222 23.9066 57.6877C24.1281 58.0522 24.6034 58.169 24.9689 57.9485C26.1369 57.2407 27.1357 56.407 28.194 55.5229C29.3308 54.5734 30.5078 53.5907 32.1027 52.5637C32.5055 52.3039 32.6354 51.9626 32.6726 51.7219C32.8324 50.7064 31.6749 49.8374 30.9982 48.7798C30.5008 48.0045 29.8503 47.1345 29.0639 46.1951C28.2212 45.1892 26.8437 44.8116 25.7915 45.2929C25.4939 45.4293 25.2078 45.5823 24.9179 45.7296C24.0111 44.2027 23.3798 42.2392 22.5483 40.7236C21.633 39.0989 20.1484 37.9255 19.5659 36.6387C18.8472 34.8991 19.3485 32.8893 18.6658 30.7685C17.671 27.4605 14.2218 26.1473 12.9365 28.7708C12.6899 29.3629 12.6838 29.973 12.6989 30.548C12.763 32.8271 12.534 35.2855 12.9158 38.0388C10.8402 35.7395 8.77077 32.6643 8.84353 32.7692C7.75179 31.1952 7.50487 30.3046 6.70087 28.4934C6.12289 27.1957 6.12752 25.8243 5.50166 23.7897C5.23603 23.1371 5.12499 21.1499 3.46774 20.902C2.89985 20.8169 2.39842 20.9588 2.00372 21.3103C1.75646 21.5289 1.57787 21.8114 1.44206 22.132C0.286998 22.9901 0.0565015 24.3427 0.0172479 25.7711ZM3.23817 22.4314C3.7005 22.4994 3.83061 23.8116 4.0457 24.3078C4.58622 26.0761 4.61922 27.6197 5.28719 29.1222C6.06973 30.8733 6.35781 31.8974 7.56881 33.6442C7.57183 33.6492 7.57584 33.6552 7.57988 33.6603C9.99139 37.1602 13.2416 41.359 15.044 41.4808C15.4568 41.505 15.8293 41.1908 15.8616 40.7669C15.8938 40.343 15.5726 39.9725 15.1487 39.9383C15.0766 39.9323 14.981 39.8924 14.8728 39.8335C13.9632 36.9724 14.3283 33.5276 14.2455 30.5062C14.2268 29.7912 14.2108 29.0752 14.9715 28.9213C15.726 28.8323 17.1083 29.9861 17.4142 32.2184C17.5207 32.9129 17.6463 35.7679 17.7716 36.0436C17.8059 36.3231 17.9854 36.8629 18.1462 37.2519C18.8966 38.9134 20.3465 39.9592 21.1961 41.4748C21.9906 42.923 22.584 44.812 23.5608 46.4752C21.9704 47.4169 20.5082 48.5192 19.2165 49.7776C15.1344 46.9612 10.3774 43.6653 7.26171 39.8164C5.48451 37.6274 5.0664 36.2466 4.12927 33.5525C2.52238 28.8856 2.72166 25.9141 2.63303 25.0816C2.6156 24.4228 2.58779 22.3372 3.23817 22.4314Z" fill="#191931"/>
<path d="M28.1817 49.5294C28.5191 48.8419 28.2085 48.0111 27.4597 47.6455C26.8485 46.8628 25.0864 47.5615 25.3523 48.9252C25.6123 50.2466 27.5515 50.814 28.1817 49.5294Z" fill="#191931"/>
<path d="M61.3222 45.2437C64.6216 41.3529 65.6525 37.5125 65.9617 32.712C66.0421 31.4643 65.9673 30.3581 65.1032 29.4589C64.6395 27.7112 62.8623 27.6343 62.0023 28.6635C61.4858 29.2827 61.3811 30.0141 61.1273 30.5202C60.5082 32.0393 60.2872 33.507 59.7006 34.5548C58.8355 36.0999 58.5463 36.8704 57.4451 38.1837C56.2844 39.568 54.9605 41.0631 53.5777 42.3641C53.8405 41.1499 53.9959 39.7997 54.0902 38.5703H54.0871C54.124 38.4043 54.1767 37.1907 54.3268 35.9423C54.842 31.503 49.6085 31.8333 48.4757 36.6844C48.1168 38.1201 48.1546 39.617 47.5564 40.7492C47.2201 41.3433 46.7026 41.8447 46.1559 42.3764C44.668 43.8162 44.449 44.2076 43.3899 46.1592C42.9677 46.9381 42.5325 47.7299 42.0702 48.3798C41.8424 48.2373 41.6195 48.0893 41.3852 47.9545C40.4538 47.4189 39.1529 47.6515 38.292 48.5053C37.4936 49.3007 36.8572 50.0056 36.3477 50.66C35.6469 51.5612 34.5325 52.2382 34.5937 53.2045C34.6088 53.4391 34.7025 53.7784 35.065 54.0613C37.2496 55.7715 39.2436 58.1615 40.9925 59.4563C41.3389 59.71 41.8212 59.6355 42.0749 59.2941C42.3287 58.9498 42.2562 58.4665 41.9128 58.2117C40.1755 56.9293 38.7136 55.0012 36.2571 53.0333C36.6169 52.6031 37.1111 52.1979 37.5681 51.6106C38.0373 51.0074 38.6314 50.3499 39.3825 49.6018C39.7832 49.2051 40.334 49.1326 40.6149 49.2957C43.6004 51.0125 46.024 53.4048 47.6571 56.2413C46.4688 57.2087 45.9779 57.4759 44.6526 58.6024C43.9407 59.2063 44.723 60.3438 45.5488 59.8413C45.962 60.0106 46.4209 60.0776 46.6745 59.8744C47.7259 59.032 48.9125 57.9029 49.8317 57.0543C50.1791 56.7336 50.2674 56.2735 50.026 55.9753C49.5495 55.3867 49.0584 54.793 48.5812 54.2042C53.7021 52.3937 58.0959 49.0485 61.3222 45.2437ZM43.3535 49.2465C44.3236 47.8716 45.03 46.2251 45.8216 45.0456C46.9293 43.4498 48.5125 42.7824 49.2682 40.6908C49.2933 40.6213 49.3215 40.5408 49.3205 40.5297C49.5747 39.7765 49.756 37.9363 49.979 37.0479C50.4858 34.8619 52.1547 33.8711 52.6997 34.6283C52.967 34.9586 52.78 35.3927 52.5607 38.3427H52.5627C52.5637 38.3437 52.5637 38.3437 52.5637 38.3437C52.4658 38.7837 52.4508 41.6499 51.4853 43.9706C51.4162 43.997 51.3372 44.0353 51.288 44.0377C51.2819 44.0377 51.2769 44.0377 51.2719 44.0377C50.853 44.0377 50.5087 44.372 50.4986 44.7929C50.4885 45.2198 50.8268 45.5742 51.2538 45.5843C53.2993 45.6068 57.5412 40.3985 58.6353 39.1704C59.5767 38.0477 59.9966 37.2623 60.5292 36.2675C61.3189 34.7952 61.4132 34.7761 61.9268 33.0012C62.517 30.965 62.4498 31.4811 62.7907 30.5212C62.8805 30.2677 63.1104 29.5589 63.3636 29.5455C64.0151 29.5079 63.4946 32.5977 63.4593 32.9045C63.0591 35.7253 62.369 37.4372 61.3841 39.7161C60.3026 42.0952 59.9163 42.8724 58.1943 44.6902C55.2435 47.7091 50.9051 50.1999 46.8632 52.4674C45.8367 51.2736 44.6563 50.197 43.3535 49.2465Z" fill="#191931"/>
<path d="M39.6171 49.9191C38.1864 50.4834 38.5525 52.4413 39.9685 52.4413C40.634 52.4413 41.3248 51.9711 41.514 51.3277C41.8867 50.071 40.2954 49.235 39.6171 49.9191Z" fill="#191931"/>
<path d="M37.44 14.8905C41.0684 14.0054 43.3309 10.4076 43.1555 6.98513C43.0135 4.21718 40.5526 1.19399 37.6699 0.246506C34.933 -0.653498 31.1862 1.06205 29.498 2.9502C27.0335 5.70607 27.0735 9.65896 28.9617 12.3023C30.7114 14.7518 34.1701 16.1591 37.44 14.8905ZM37.1866 1.71556C39.4743 2.46771 41.5011 4.91748 41.6109 7.06467C41.7368 9.52451 40.314 11.9702 38.1502 13.0119C35.9864 14.052 33.1298 13.5551 31.5027 11.8555C29.7074 9.98063 29.4416 6.69514 30.8955 4.37527C32.0836 2.47823 34.9625 0.984551 37.1866 1.71556Z" fill="#191931"/>
<path d="M19.9649 31.1452C19.9857 31.5508 20.3055 31.8843 20.7062 31.9509C30.3263 33.5487 39.4926 33.3438 49.3458 32.0709C49.807 31.6097 49.9368 31.3617 50.0104 30.9914C50.45 30.6381 50.2632 30.1922 50.3075 29.8074C50.3075 23.6397 46.581 18.0439 41.034 15.8826C40.9876 15.8644 40.78 15.8317 40.6823 15.841C40.6379 15.8452 40.4704 15.8873 40.4632 15.8902C40.4668 15.8823 40.4714 15.8749 40.475 15.8669C38.0912 16.4091 39.0811 16.0648 35.1546 21.2041C31.3409 15.9131 31.3804 15.8163 30.9528 15.7486C31.0029 15.7219 31.0506 15.6906 31.1009 15.6646C30.193 15.547 28.9518 15.8435 28.1307 16.2775C24.8306 18.0218 19.616 24.328 19.9649 31.1452ZM35.8204 23.1493C36.5644 23.1493 37.2411 22.8029 37.6761 22.1988L41.0161 17.5609C45.6382 19.6248 48.7193 24.413 48.7609 29.6991C41.6482 30.4075 32.415 30.994 22.5878 29.7213C22.6518 24.3974 25.8207 19.5659 30.5655 17.468L33.9626 22.1963C34.7045 23.2299 35.9236 23.1746 35.8204 23.1493Z" fill="#191931"/>
</svg>
