<svg width="49" height="60" viewBox="0 0 49 60" fill="none" xmlns="http://www.w3.org/2000/svg">
<path d="M14.7454 49.5092C16.9874 48.1018 18.4499 45.4828 18.4711 42.8359C18.4743 42.4531 18.1664 42.1398 17.7832 42.1371C17.3977 42.1453 17.0876 42.4414 17.0845 42.825C17.0709 44.5223 16.3397 46.2051 15.1466 47.4166C15.1385 46.8117 15.0853 46.2078 14.9873 45.6101C14.9372 45.305 14.6912 45.0694 14.3838 45.0333C14.0805 45.0035 13.7821 45.1687 13.6634 45.4548C12.8549 47.3913 10.988 48.8701 8.92964 49.2899C9.4835 47.2288 10.1498 45.1822 10.9158 43.1925C10.9984 42.9776 10.9686 42.7348 10.8368 42.5461C10.583 42.1841 10.1795 42.2684 10.087 42.2527C9.27902 42.2662 8.69311 42.2753 8.07245 42.3809C8.94634 41.0267 9.84912 40.1745 11.3703 39.5407C11.7237 39.3936 11.8908 38.9873 11.7436 38.6343C11.5969 38.2813 11.1916 38.1152 10.8368 38.2606C8.22502 39.3484 7.14168 41.0655 5.99651 43.197C5.69348 43.7592 6.25372 44.401 6.8564 44.172C7.8621 43.7847 8.40783 43.6917 9.25961 43.6583C8.50804 45.7121 7.86075 47.8174 7.33082 49.9299C7.22127 50.3663 7.55189 50.7921 8.00339 50.7921C8.01242 50.7921 8.02144 50.7921 8.03047 50.7912C10.2468 50.7045 12.3489 49.6185 13.7555 47.9357C13.7455 48.2381 13.7234 48.5406 13.6882 48.8412C13.6205 49.4264 14.2625 49.815 14.7454 49.5092Z" fill="#191931"/>
<path d="M40.7648 0.4175C40.6442 0.143958 40.3647 -0.0298278 40.0656 0.00425216C31.1919 0.915321 22.571 5.36873 16.6576 12.9145C10.2391 13.1956 2.96718 18.3839 0.0312681 28.0148C-0.141102 28.5802 0.430662 29.0907 0.974675 28.8517C3.99279 27.5179 7.1348 27.6889 9.67681 29.2799C9.60755 29.7692 9.48788 30.1642 9.82735 30.4551C10.697 31.203 11.5921 31.9065 12.507 32.5879L11.1657 34.7072C11.0037 34.9627 11.0267 35.2949 11.2221 35.526C13.5969 38.3345 17.0519 40.2611 20.7004 40.81C20.7946 40.8246 22.1394 40.943 22.4026 40.4665C22.6793 39.9654 23.0636 39.3326 23.3638 38.8026C24.0021 39.0848 24.6475 39.3657 25.32 39.6427C25.4127 39.6813 25.9082 39.8008 26.1672 39.6725C26.316 39.5996 26.4573 39.5158 26.6038 39.4395C28.1548 40.3897 29.2456 41.694 29.8549 43.3208C28.2468 45.0494 27.2628 47.3736 27.284 49.9254C27.319 54.1353 30.019 57.6226 33.7042 58.8839C40.001 62.0348 46.9317 58.1452 48.1036 51.8356C49.1486 46.2082 45.067 39.9766 38.2105 40.1151C38.2116 40.1123 38.2134 40.1099 38.2145 40.1069C38.5196 39.4969 38.7784 38.8588 39.0003 38.1933C40.2206 34.5787 40.6366 30.0488 39.7306 26.2772C39.7294 26.2716 39.7276 26.2662 39.7263 26.2607C44.4873 17.379 42.6122 2.62634 40.7648 0.4175ZM40.7712 10.3465C36.6549 9.70328 32.8686 7.34477 30.45 3.95753C33.371 2.68371 36.4751 1.82719 39.6584 1.44509C40.4767 3.98981 40.8497 7.06084 40.7712 10.3465ZM29.1689 4.54998C31.823 8.39448 36.0856 11.0687 40.7115 11.7463C40.0839 21.8461 35.2581 33.527 25.7567 38.3214C19.6191 35.7862 15.1811 33.1697 11.0103 29.6344C11.0169 29.6089 11.0324 29.5879 11.0362 29.5613C12.4698 19.1583 18.9324 9.54322 29.1689 4.54998ZM1.81607 27.0597C4.67347 19.3473 10.4042 15.1247 15.5543 14.4059C12.7563 18.4047 10.8173 22.9836 9.91983 27.8007C7.48373 26.4616 4.63399 26.1994 1.81607 27.0597ZM20.4942 39.37C17.4929 38.822 14.6654 37.2566 12.6151 35.0105L13.6315 33.4033C15.974 35.0453 18.5156 36.5145 21.3911 37.892C21.133 38.4221 20.9283 38.7629 20.4942 39.37ZM27.9592 38.6724C32.3196 35.9975 35.6439 31.8932 37.9709 27.2209C38.456 28.9506 38.5159 32.5476 37.4836 36.1426C36.7997 38.5103 35.6916 40.2705 35.6454 40.3631C33.8839 40.5712 32.2759 41.2731 30.9459 42.3194C30.2971 40.8553 29.2979 39.6334 27.9592 38.6724ZM28.6707 49.9145C28.633 45.3927 32.2619 41.6821 36.7514 41.6821C41.1773 41.6821 44.7975 45.3013 44.8345 49.78C44.8718 54.2933 41.2883 57.9742 36.8201 58.0116C32.214 57.9783 28.7073 54.3494 28.6707 49.9145Z" fill="#191931"/>
<path d="M28.2591 19.3482C30.3004 19.7695 32.3042 18.4206 32.7347 16.3354C33.1651 14.2502 31.8593 12.218 29.8179 11.7969C27.7765 11.3753 25.7727 12.7242 25.3423 14.8094C24.9118 16.8946 26.2177 18.9268 28.2591 19.3482Z" fill="#191931"/>
<path d="M37.4833 51.7493C38.5691 53.3697 36.0074 55.1354 34.9334 53.3933C34.7312 53.0673 34.3033 52.9671 33.9792 53.1685C33.6533 53.3698 33.5522 53.7968 33.7535 54.1227C34.1442 54.7542 34.8132 55.2182 35.59 55.3934L35.5712 55.5708C35.5306 55.9517 35.8069 56.293 36.1874 56.3336C36.2122 56.3363 36.237 56.3372 36.2614 56.3372C36.6117 56.3372 36.9123 56.0727 36.9498 55.717L36.9858 55.3791C38.1007 55.1017 38.8178 54.2194 39.0334 53.1757C39.1945 52.3948 39.0492 51.5931 38.6344 50.9765C38.0447 50.0986 37.0947 49.6793 36.1463 49.2152C35.532 48.9137 34.7673 48.5381 34.5881 48.0443C34.4197 47.5802 34.7799 46.8815 35.2264 46.4734C35.6927 46.0446 36.8008 45.7458 37.2698 45.92C37.6287 46.0527 38.0277 45.8704 38.1613 45.5111C38.2945 45.1527 38.1117 44.7536 37.7528 44.62C37.5398 44.541 37.298 44.5079 37.0469 44.4977L37.0527 44.24C37.0608 43.8572 36.757 43.5394 36.3743 43.5313C36.0262 43.5286 35.6746 43.8265 35.666 44.2093L35.6549 44.7096C35.1181 44.885 34.6225 45.1461 34.2897 45.4506C33.5237 46.152 32.8823 47.4105 33.2845 48.5173C33.96 50.3799 36.6451 50.5027 37.4833 51.7493Z" fill="#191931"/>
</svg>
