<svg width="61" height="60" viewBox="0 0 61 60" fill="none" xmlns="http://www.w3.org/2000/svg">
<path d="M8.41892 23.8543C8.42165 23.8534 8.42438 23.8516 8.42711 23.8507C9.82918 23.112 9.7567 20.9592 8.13825 20.4253C6.49702 19.8809 5.1362 21.6463 5.90429 23.061C6.36316 23.9362 7.54244 24.3027 8.41892 23.8543Z" fill="#191931"/>
<path d="M15.0745 23.8541C15.0772 23.8532 15.0799 23.8514 15.0827 23.8505C15.957 23.3911 16.3322 22.2156 15.8833 21.3331C15.422 20.4388 14.2716 20.0649 13.3268 20.5407C12.4566 21.0056 12.0981 22.1829 12.5599 23.0608C13.0187 23.9361 14.198 24.3025 15.0745 23.8541Z" fill="#191931"/>
<path d="M7.08298 34.026C6.21005 34.4963 5.85297 35.6772 6.31832 36.5524C6.7829 37.4275 7.96166 37.7936 8.83931 37.3339C9.71861 36.8754 10.0916 35.7 9.63809 34.8175C9.20735 33.9785 8.07191 33.5258 7.08298 34.026Z" fill="#191931"/>
<path d="M13.7431 34.026C12.8706 34.4963 12.513 35.6772 12.9784 36.5533C13.4449 37.4307 14.6251 37.7918 15.4994 37.3339C16.3782 36.8763 16.7512 35.7 16.2982 34.8166C15.8682 33.9816 14.7343 33.5246 13.7431 34.026Z" fill="#191931"/>
<path d="M7.08298 48.1689C6.21005 48.6393 5.85297 49.8202 6.31832 50.6954C6.7829 51.5704 7.96166 51.9365 8.83931 51.4769C9.71861 51.0184 10.0916 49.8429 9.63809 48.9605C9.20709 48.121 8.07117 47.6681 7.08298 48.1689Z" fill="#191931"/>
<path d="M13.7431 48.169C12.8706 48.6394 12.513 49.8203 12.9784 50.6964C13.4449 51.5738 14.6251 51.9349 15.4994 51.477C16.3782 51.0194 16.7512 49.843 16.2982 48.9596C15.8675 48.1224 14.7326 47.6674 13.7431 48.169Z" fill="#191931"/>
<path d="M59.9315 13.0183C60.2945 12.8399 60.4808 12.3461 60.1482 11.951C59.769 10.7354 59.3091 9.52802 58.7761 8.36294C58.6619 8.1138 58.4193 7.94822 58.0624 7.95445C57.1573 7.96491 56.2525 8.07375 55.362 8.25036L54.413 6.74945C54.885 5.83149 55.2209 4.85734 55.4 3.84328C55.4019 3.84044 55.4053 3.83964 55.4072 3.8368C55.6205 3.51565 55.5327 3.08169 55.2107 2.8688C54.037 2.09094 52.7643 1.45955 51.4278 0.991928C51.3957 0.980784 51.3633 0.985105 51.3308 0.97885C51.0674 0.883665 50.7621 0.949737 50.5672 1.17297C49.8955 1.94378 49.317 2.78965 48.8077 3.6735C47.9683 3.36099 47.0818 3.16084 46.1873 3.08237L45.3005 0.474265C45.1763 0.108535 44.7787 -0.0870671 44.4139 0.0375724C44.3721 0.0517877 44.3414 0.0805594 44.3043 0.101484C40.6644 1.27125 40.9038 1.12031 40.637 1.30284C40.4335 1.45836 40.2899 1.72577 40.3422 2.00724L40.8275 4.60693L38.9767 6.48721L36.1668 4.71019C35.7538 4.44719 35.1968 4.68095 35.1073 5.17724C34.2989 6.33948 33.5881 7.72292 33.0035 8.50851C32.7622 8.83425 32.8802 9.3445 33.1991 9.55293L35.9448 11.3461L35.755 13.5499C35.5043 13.7112 35.2457 13.8597 34.9785 13.9963H5.63236C2.99316 13.9963 1.15853 16.0844 0.436344 18.5688C-0.0685256 20.3497 0.00488203 22.2316 0.0875012 24.0768C0.160966 25.757 0.234373 27.446 0.684258 29.0802C-0.261341 34.2945 -0.31644 38.4531 1.08814 43.4104C0.381302 47.3762 -0.931506 53.5545 1.08814 57.3826C2.23571 59.5493 6.46771 59.3655 9.46969 59.6316C16.1791 60.2043 29.7291 60.0713 38.121 59.494C40.8867 59.3096 42.3054 59.7017 43.776 58.9431C45.0425 58.31 44.8668 57.1421 43.8494 56.7033C43.2612 56.4544 42.582 56.5212 41.6609 56.5227C42.3804 55.9306 42.8318 55.1168 42.8536 54.203C42.9222 51.2807 42.7835 48.4472 42.8463 45.5846C42.8691 44.5275 42.326 43.468 41.1069 42.7558C42.143 42.1632 42.8267 41.1888 42.8536 40.0596C42.9222 37.1373 42.7835 34.3038 42.8463 31.4413C42.8636 30.637 42.5397 29.8528 41.9343 29.2341C41.7284 29.0235 41.4926 28.8409 41.2387 28.6801C42.4151 27.9456 42.9156 26.7687 42.8201 26.1413C42.9209 26.1251 43.1851 26.0896 43.2527 26.0781C43.5705 25.4668 43.3126 25.8861 44.4324 23.881L45.8736 24.2461L46.9203 26.9324C47.0277 27.2081 47.292 27.3773 47.5713 27.3773C47.6311 27.3773 47.4838 27.3887 48.8745 27.1244C49.8489 26.9388 50.4926 26.8159 51.5006 26.4539C51.8133 26.3412 51.9824 26.0296 51.9447 25.7131C52.0944 25.5195 52.2728 25.2414 52.4954 24.7946C52.3017 24.1528 52.115 23.3167 51.9753 22.582C52.5478 22.1811 53.0029 21.8202 53.6545 21.3297C55.7028 22.2992 56.0821 22.5273 56.3201 22.5273C56.5656 22.5273 56.7978 22.3936 56.9248 22.1688C58.0392 20.8959 58.863 19.3948 58.9766 19.0208C59.0779 18.7417 58.9906 18.4428 58.7683 18.2572C58.8019 18.0298 58.8236 17.798 58.8158 17.549C57.9767 16.9603 57.1382 16.3242 56.4465 15.7958C56.7028 15.1945 56.865 14.6381 56.9441 14.1152C57.9752 13.85 58.9792 13.4868 59.9315 13.0183ZM32.3312 15.3937C32.328 15.6801 32.2441 14.9752 33.0539 19.3176C33.1059 19.5889 33.3104 19.7859 33.56 19.8537C33.9196 20.0244 33.8846 19.8987 36.8038 19.4272C37.5791 20.2679 37.5365 20.1914 38.4182 21.1419L37.1147 23.8105C37.0829 23.8413 37.0454 23.8642 37.0192 23.9019C36.8306 24.1708 36.8695 24.5188 37.0769 24.7551C37.1331 24.8311 37.269 24.9446 37.3249 24.9718C37.3341 24.9764 37.3441 24.9743 37.3533 24.9784C39.0459 26.1255 40.9121 26.7304 41.246 26.7304C41.2498 26.7304 41.2532 26.7287 41.257 26.7286C40.8585 27.4589 39.8826 27.9777 38.7555 27.9777C4.05393 27.8369 5.40648 28.1519 4.26952 27.6602C3.44617 27.299 2.93442 26.644 2.93442 25.9498V17.3752C2.93442 16.1611 4.38452 15.3937 5.63236 15.3937H32.3312ZM41.4562 54.1702C41.4312 55.2392 40.2216 56.1071 38.7587 56.1071C38.6039 56.1071 5.754 56.0601 5.62508 56.0598C4.1426 56.058 2.93669 55.1682 2.93669 54.0774V45.5073C2.93669 44.4147 4.14533 43.5258 5.63054 43.5258H38.7596C40.086 43.5258 41.4753 44.3363 41.4489 45.5537C41.3865 48.4466 41.5242 51.3231 41.4562 54.1702ZM41.4562 40.0268C41.4312 41.0976 40.2212 42.0074 38.7532 41.9637L5.62509 41.9164C4.1426 41.9146 2.9367 41.0248 2.9367 39.934V31.3639C2.9367 30.2713 4.14533 29.3824 5.63055 29.3824H38.7596C40.086 29.3824 41.4753 30.1929 41.4489 31.4103C41.3865 34.3032 41.5242 37.1797 41.4562 40.0268ZM50.694 21.7602C50.377 21.8524 50.1549 22.1471 50.1891 22.4872L50.4723 25.3228C49.6741 25.5685 49.0487 25.6634 48.0055 25.8685L47.1674 23.7178C47.1838 23.4146 47.0079 23.1391 46.7188 23.0335C46.6241 22.9816 43.6867 22.2507 43.5914 22.227C43.3746 22.1713 43.1619 22.2352 42.9977 22.3646C42.9962 22.3658 42.9951 22.3673 42.9935 22.3684C42.739 22.5725 42.3947 23.3446 41.0411 25.2309C40.1609 24.9491 39.323 24.564 38.5385 24.079L39.9223 21.2463C40.0865 20.91 39.9693 20.4602 39.5407 20.2961C38.7383 19.4225 38.3631 19.0737 37.7072 18.3487C37.5963 18.1366 37.384 17.9898 37.0753 17.9824C36.8418 17.9855 35.6076 18.2234 34.3093 18.4411L33.8338 15.9548C34.959 15.6181 36.0473 15.0718 36.8518 14.5085C37.0823 14.3473 37.1815 14.0722 37.1348 13.8122C37.27 12.2103 37.3677 11.2075 37.3677 11.035C37.3677 10.8518 37.2175 10.5084 37.0156 10.3763L34.5299 8.75255C35.0693 7.91288 35.3146 7.39995 36.0455 6.28683L38.4909 7.83322C38.5116 7.86074 38.5227 7.89304 38.5481 7.91806C38.8243 8.18968 39.2673 8.18495 39.5361 7.91078C41.8843 5.46051 42.0198 5.53343 42.1073 5.13153C42.4393 4.69893 42.1403 4.42506 41.8268 2.34454L44.2067 1.59738L44.9095 3.6644C44.8612 4.1061 45.1974 4.42473 45.5757 4.43543C48.2648 4.51178 48.7884 5.57032 49.4612 5.06045C49.9445 4.82084 49.7534 4.39392 51.3389 2.45451C52.2638 2.80489 53.1518 3.2409 53.9907 3.75606C53.5388 6.069 52.7607 6.29041 53.0208 6.94653C53.0239 7.34225 53.1638 7.30617 54.4151 9.36642C54.5471 9.57631 54.7834 9.71645 55.0872 9.68087C55.497 9.72049 55.7403 9.45608 57.6861 9.37689C58.0661 10.2437 58.404 11.1289 58.6955 12.0243C57.9675 12.3398 57.2171 12.6018 56.444 12.7913C56.4004 12.7823 56.3603 12.7641 56.3142 12.7635C56.311 12.7635 56.3083 12.7635 56.3056 12.7635C55.9235 12.7635 55.6114 13.071 55.6069 13.4541C55.5982 14.1737 55.3235 15.028 54.7667 16.066C54.5843 16.4063 54.7126 16.8302 55.0524 17.0122C55.0883 17.0315 55.1278 17.0281 55.1652 17.0405C55.9716 17.6252 56.7322 18.2745 57.4483 18.9646C57.0715 19.671 56.626 20.3374 56.1172 20.9572L53.8574 19.878C53.5788 19.7447 53.2621 19.8192 53.0589 20.0304C52.466 20.4916 51.3255 21.3516 50.694 21.7602Z" fill="#191931"/>
<path d="M48.3534 7.12998C45.9324 6.555 44.334 6.79336 42.4648 8.00973C38.3754 10.6077 38.1938 17.3299 43.4947 19.6858C47.8426 21.5984 52.24 18.6356 52.9723 14.7976C53.5451 11.8538 52.2011 8.37373 48.3534 7.12998ZM51.5999 14.5328C51.5999 14.5337 51.5999 14.5347 51.5994 14.5356C51.0289 17.5284 47.6191 19.9326 44.0524 18.3848C39.8555 16.5835 40.0257 11.2142 43.2204 9.18516C44.7688 8.17804 45.9825 8.00336 47.9767 8.47463C48.0699 8.56047 52.5343 9.74443 51.5999 14.5328Z" fill="#191931"/>
<path d="M24.4746 22.6601H34.6254C35.0112 22.6601 35.3241 22.3471 35.3241 21.9614C35.3241 21.5757 35.0112 21.2627 34.6254 21.2627H24.4746C24.0888 21.2627 23.7759 21.5757 23.7759 21.9614C23.7759 22.3471 24.0888 22.6601 24.4746 22.6601Z" fill="#191931"/>
<path d="M34.6387 35.377H24.5893C24.2036 35.377 23.8906 35.6899 23.8906 36.0757C23.8906 36.4614 24.2036 36.7744 24.5893 36.7744H34.6387C35.0245 36.7744 35.3374 36.4614 35.3374 36.0757C35.3374 35.6899 35.0245 35.377 34.6387 35.377Z" fill="#191931"/>
<path d="M34.5118 48.2292H24.5893C24.2036 48.2292 23.8906 48.5422 23.8906 48.928C23.8906 49.3137 24.2036 49.6267 24.5893 49.6267H34.5118C34.8976 49.6267 35.2105 49.3137 35.2105 48.928C35.2105 48.5422 34.8976 48.2292 34.5118 48.2292Z" fill="#191931"/>
</svg>
