<svg width="53" height="60" viewBox="0 0 53 60" fill="none" xmlns="http://www.w3.org/2000/svg">
<path d="M19.6771 9.18425C11.7202 12.1054 7.75243 20.026 9.00994 27.455C9.81723 32.2242 13.0732 36.3042 17.2555 38.7342C17.5728 40.6236 17.6483 42.782 17.9655 44.6712C18.1535 44.7768 18.2999 44.8182 18.4367 44.8422C18.8823 45.2829 18.6902 44.9663 32.7027 44.7701C32.8892 44.7665 33.0675 44.6879 33.1964 44.5516C33.5396 44.194 33.3109 43.9613 33.3656 41.8999C33.3757 41.5451 33.3876 41.0797 33.3821 39.8681C33.3784 39.1165 33.8749 38.4718 34.654 38.224C39.0102 36.7985 42.4547 32.36 43.2264 27.18C43.9497 22.3191 42.3431 17.0064 39.0321 13.315C34.3732 8.12179 26.6227 6.16158 19.6771 9.18425ZM41.8365 26.9733C41.1416 31.6404 38.0793 35.6253 34.2224 36.8872C32.8727 37.316 31.9702 38.5166 31.9776 39.8754C31.9873 41.9688 31.9291 41.8728 31.9666 43.3803L19.5601 43.6308C19.417 42.3704 19.2886 41.8489 19.3205 39.2527C19.3449 37.181 17.5505 36.4306 17.4314 36.3148C17.2 36.1675 16.9605 36.0148 16.6962 35.8521C13.3504 33.7938 11.112 29.5702 10.9941 25.0933C10.7632 16.4129 17.6971 9.02833 26.6576 9.15819C36.2357 9.27915 43.196 17.8426 41.8365 26.9733Z" fill="#191931"/>
<path d="M32.8911 50.7445C33.0378 49.5538 33.1276 48.3947 33.2724 47.2086C33.3254 46.7788 32.9808 46.3974 32.5272 46.4231C28.0082 46.7367 23.4235 46.788 18.9054 46.5749C18.6043 46.5313 18.2294 46.7752 18.187 47.2093C18.0611 47.3768 17.9285 47.5398 17.8271 47.7234C18.1468 50.4688 17.8911 51.2837 18.9206 51.4808C19.026 51.5583 19.1506 51.6109 19.2877 51.6196C23.7076 51.9113 28.2929 51.8062 32.273 51.3572C32.5957 51.3206 32.8518 51.0673 32.8911 50.7445ZM31.5616 50.0212C27.8967 50.398 23.7984 50.4775 19.8994 50.2508C19.7677 49.6098 19.6717 48.8609 19.6141 48.0114C23.6557 48.176 27.7412 48.1294 31.7828 47.8797C31.6973 48.6926 31.6296 49.4051 31.5616 50.0212Z" fill="#191931"/>
<path d="M20.2246 52.9573C19.844 52.9235 19.4728 53.2554 19.4867 53.6834C19.5343 55.0074 19.6678 56.1275 19.8836 57.0117C19.9146 57.1398 19.9814 57.2568 20.0756 57.3482C23.6904 60.8667 27.7791 60.9799 31.586 57.1105C31.9038 56.7874 31.7693 56.4567 32.0953 53.6056C32.1444 53.177 31.798 52.7979 31.3455 52.8257C27.6532 53.0981 23.9096 53.142 20.2246 52.9573Z" fill="#191931"/>
<path d="M9.96087 37.9675L6.53555 41.4267C6.0966 41.87 6.41574 42.6227 7.03481 42.6227C7.57359 42.6227 7.56025 42.2853 10.9594 38.9551C11.2319 38.6798 11.23 38.2345 10.9539 37.962C10.6796 37.6895 10.2324 37.6914 9.96087 37.9675Z" fill="#191931"/>
<path d="M5.61383 26.708C5.4529 26.3541 5.03411 26.2005 4.6839 26.3596C3.44398 26.9238 2.06873 27.2109 0.707199 27.1972C-0.254295 27.2184 -0.211592 28.591 0.69074 28.6017C2.27124 28.6017 3.77456 28.3166 5.26545 27.6379C5.61841 27.477 5.77477 27.0609 5.61383 26.708Z" fill="#191931"/>
<path d="M6.54483 15.9606C5.30857 15.7576 4.1226 15.2556 3.11494 14.5095C2.80313 14.2772 2.36148 14.3449 2.13288 14.6558C1.90154 14.9676 1.96737 15.4074 2.27918 15.6378C3.46515 16.5166 4.86143 17.1073 6.31623 17.3468C6.35555 17.3532 6.39395 17.356 6.43144 17.356C6.76885 17.356 7.06695 17.1118 7.12364 16.768C7.18673 16.3849 6.92704 16.0237 6.54483 15.9606Z" fill="#191931"/>
<path d="M10.4288 2.85907C10.095 3.05566 9.98348 3.48634 10.1801 3.82101L13.0696 8.72673C13.2003 8.94893 13.4353 9.07237 13.6758 9.07237C14.2163 9.07237 14.5556 8.48236 14.2802 8.0135L11.3907 3.10778C11.1941 2.77311 10.7653 2.66064 10.4288 2.85907Z" fill="#191931"/>
<path d="M25.8695 5.83774C26.2553 5.80482 26.5424 5.46467 26.5086 5.07788L26.1291 0.642157C26.0971 0.255368 25.7542 -0.0271792 25.3702 0.00208136C24.9834 0.0349996 24.6972 0.375154 24.7301 0.761028L25.1096 5.19858C25.1423 5.58357 25.482 5.87143 25.8695 5.83774Z" fill="#191931"/>
<path d="M38.9534 8.41554C40.0699 7.06133 41.3254 5.80678 42.6842 4.68848C42.9841 4.44159 43.027 3.99902 42.7802 3.70002C42.5333 3.39918 42.0898 3.35712 41.7917 3.604C40.3625 4.77991 39.043 6.09847 37.869 7.52309C37.623 7.8221 37.665 8.26467 37.965 8.51155C38.2625 8.75709 38.7063 8.71626 38.9534 8.41554Z" fill="#191931"/>
<path d="M51.8748 17.5867L45.8279 18.2432C45.4429 18.2853 45.1641 18.6319 45.2052 19.0177C45.2475 19.4045 45.5958 19.6816 45.9797 19.6404L52.0266 18.9839C52.4115 18.9418 52.6904 18.5953 52.6493 18.2094C52.6072 17.8244 52.2533 17.5419 51.8748 17.5867Z" fill="#191931"/>
<path d="M51.5567 34.1161C51.7506 33.7805 51.6353 33.3508 51.2998 33.1569L46.5504 30.4146C46.213 30.2199 45.7851 30.3369 45.5912 30.6716C45.3973 31.0072 45.5126 31.4369 45.8481 31.6308L50.5975 34.3731C50.9322 34.5667 51.3626 34.4524 51.5567 34.1161Z" fill="#191931"/>
<path d="M40.1276 38.9335C39.8789 39.2316 39.92 39.6742 40.2181 39.922C41.6894 41.1473 43.21 42.3433 44.7371 43.4771C44.8632 43.5704 45.0096 43.6152 45.1549 43.6152C45.8317 43.6152 46.1157 42.7513 45.5746 42.3488C44.0677 41.2305 42.5681 40.0509 41.1161 38.843C40.8189 38.5934 40.3763 38.6327 40.1276 38.9335Z" fill="#191931"/>
<path d="M24.5298 19.8604C22.2566 22.4227 20.954 24.0719 19.0297 26.2767C18.6461 26.714 18.9353 27.4033 19.5134 27.4389C21.2512 27.5503 22.9896 27.5199 24.7255 27.4846C24.0351 30.4418 23.5569 33.4309 23.1427 36.2409C23.0392 36.9506 23.9397 37.3362 24.3844 36.784C27.7481 32.605 31.759 28.5227 35.1386 24.3236C35.5369 23.8292 35.1255 23.0943 34.4857 23.1888C32.8869 23.4325 31.0505 23.6073 28.8768 23.8837C29.27 21.3564 30.1122 15.3689 30.1213 15.2976C30.2096 14.5995 29.3215 14.2214 28.8777 14.77C26.9192 17.1978 26.415 17.7468 24.5298 19.8604ZM28.3794 17.5964C27.292 25.1694 27.2232 24.7785 27.4824 25.1227C27.6351 25.3267 27.8865 25.43 28.1371 25.3971C29.4776 25.2169 30.5666 25.0917 31.5432 24.9792C32.0205 24.9243 32.4722 24.8722 32.912 24.8192C30.3669 27.8532 27.5345 30.8651 24.9157 33.943C26.0829 26.6651 26.6037 26.872 26.1702 26.3279C25.7617 25.8159 25.4676 26.2075 21.0386 26.0984C27.1358 18.9645 27.3995 18.7694 28.3794 17.5964Z" fill="#191931"/>
</svg>
