<svg width="66" height="60" viewBox="0 0 66 60" fill="none" xmlns="http://www.w3.org/2000/svg">
<path d="M34.5968 36.1515C35.0011 36.1515 35.3301 35.8222 35.3281 35.4168L35.27 23.4121L36.609 23.4006C37.2016 23.3956 37.6486 22.6196 37.1566 22.1164L34.5281 19.4308L34.5374 13.7235C34.818 13.6955 35.0703 13.5137 35.1624 13.2285C35.2872 12.8443 35.0763 12.4319 34.692 12.3076C33.2731 11.8481 31.8336 11.8201 30.0224 12.2148C29.6276 12.301 29.3777 12.6905 29.4634 13.0852C29.5342 13.4111 29.8142 13.6249 30.132 13.6465L30.1281 14.935L25.2708 9.9721C25.0274 9.72278 24.5638 9.63237 24.2309 9.96639L11.8371 22.3602C11.3778 22.8195 11.7026 23.6087 12.3542 23.6087H12.3604L13.6389 23.5977V35.4787C13.6389 35.8777 13.9584 36.2029 14.3574 36.21C21.1499 36.3287 27.7513 36.3188 34.5968 36.1515ZM31.5954 13.449C32.1206 13.3989 32.6083 13.4059 33.075 13.46L33.0678 17.9386L31.5863 16.425L31.5954 13.449ZM14.135 22.1307L24.7423 11.5234L34.9491 21.9521L14.135 22.1307ZM20.3022 27.4731V34.8164C18.5877 34.806 16.8584 34.7882 15.1016 34.7597V23.5851L33.8074 23.4246L33.8621 34.7054C31.6221 34.7572 29.3729 34.7867 27.1121 34.8054V27.4731C27.1121 27.0693 26.7845 26.7417 26.3807 26.7417H21.0335C20.6298 26.7417 20.3022 27.0693 20.3022 27.4731ZM21.7649 28.2045H25.6494V34.8171C24.3639 34.8237 23.0667 34.8234 21.7649 34.8194V28.2045Z" fill="#2C2C2C"/>
<path d="M25.7977 17.8608C25.3382 16.1481 22.635 15.9077 21.9989 17.6041C21.7223 18.3431 21.9608 19.2326 22.5798 19.7659C23.2138 20.3112 24.1537 20.4108 24.8668 20.0168C25.6172 19.6021 26.0172 18.675 25.7977 17.8608Z" fill="#2C2C2C"/>
<path d="M11.2368 37.5809C11.5363 37.31 11.5591 36.8471 11.2882 36.5476C8.21604 33.1527 6.61236 28.9621 6.64997 24.4276C6.72436 12.7991 17.5666 5.00486 26.5108 6.23813C32.2056 6.95807 37.5337 10.3792 40.4173 15.1684C48.2172 28.027 38.0325 44.4755 23.2777 42.7305C22.8735 42.681 22.513 42.97 22.4659 43.3709C22.4183 43.7718 22.7049 44.1356 23.1063 44.1828C39.0343 46.0686 50.1204 28.3442 41.6691 14.4118C38.5613 9.2498 32.8232 5.56152 26.7027 4.78777C16.7556 3.41682 5.26882 12.0321 5.18723 24.4167C5.14628 29.323 6.88091 33.8574 10.2035 37.5295C10.4754 37.8294 10.9387 37.8523 11.2368 37.5809Z" fill="#2C2C2C"/>
<path d="M16.3602 49.3695C24.7509 52.3439 34.8139 49.8145 41.4279 43.921C41.8613 44.2461 42.4573 44.8961 42.8907 45.2212C42.4619 49.788 55.8286 59.4163 58.0254 59.9032C59.5599 60.2434 61.3935 59.6863 62.0973 58.3139C62.6031 57.8803 61.948 58.5098 64.4411 55.7389C65.6793 54.3392 65.548 52.2031 64.1469 50.9645L51.5755 39.8511C50.6592 39.0411 49.4246 38.8305 48.3326 39.1687C47.2537 38.1994 46.5951 37.3844 45.3546 36.5041C47.4291 32.974 48.5555 28.9482 48.5863 24.7428C48.7615 1.88794 19.4545 -7.81055 5.93436 10.6222C1.44882 15.9157 -0.77166 23.0952 0.242249 29.9375C1.5306 38.6322 7.96956 46.3951 16.3602 49.3695ZM49.3366 40.4668C49.7885 40.4668 50.2422 40.6249 50.607 40.9472L63.1784 52.0606C63.9712 52.7615 64.0464 53.9771 63.345 54.7704L61.3461 57.0317C60.6448 57.824 59.4296 57.8987 58.6363 57.1983L46.0649 46.0849C45.2704 45.3829 45.1948 44.1703 45.8983 43.3751C47.5754 41.6972 47.9516 40.4668 49.3366 40.4668ZM47.0186 39.9444C46.5723 40.3674 46.2054 40.8392 44.9365 42.2543C44.0714 41.5648 43.765 41.2914 42.5578 40.3252C43.2933 39.5066 43.9688 38.6468 44.5761 37.7474C45.504 38.4179 46.0648 39.0479 47.0186 39.9444ZM26.8552 2.51786C26.8671 2.51929 26.8794 2.52072 26.8918 2.52167C38.3252 3.49255 47.2116 13.248 47.1236 24.7318C47.0802 30.6537 44.7333 36.2024 40.5141 40.3558C36.031 44.7697 30.0526 46.9788 24.0059 46.6868C12.0843 46.1827 2.74377 36.315 2.8299 24.4114C2.89746 10.8082 15.3736 0.952659 26.8552 2.51786Z" fill="#2C2C2C"/>
<path d="M47.4894 0.321873C46.3338 2.03269 45.4363 3.89969 44.8225 5.87144C44.702 6.25712 44.9173 6.66709 45.3029 6.78708C45.6822 6.90684 46.0977 6.69651 46.2186 6.30664C46.7905 4.47107 47.6261 2.73311 48.7017 1.14086C48.9279 0.806121 48.8398 0.351394 48.5051 0.125222C48.1699 -0.100475 47.7156 -0.0128628 47.4894 0.321873Z" fill="#2C2C2C"/>
<path d="M51.9733 5.77569C50.6724 6.2766 49.4597 6.96941 48.3683 7.836C48.0521 8.08694 47.9993 8.54738 48.2502 8.86354C48.5018 9.18069 48.9624 9.23212 49.2778 8.98163C50.2529 8.2074 51.3367 7.5884 52.4989 7.1413C52.8756 6.99607 53.0637 6.57277 52.9189 6.19566C52.7737 5.81807 52.3509 5.63285 51.9733 5.77569Z" fill="#2C2C2C"/>
<path d="M49.9487 12.7551C50.0615 13.1464 50.4698 13.3664 50.8539 13.2555C52.0962 12.8979 53.4337 12.7813 54.7198 12.9146C55.1197 12.9556 55.4816 12.6656 55.5235 12.2632C55.5654 11.8614 55.274 11.5019 54.8721 11.4595C53.3989 11.3052 51.87 11.44 50.4491 11.8499C50.0611 11.9618 49.8368 12.367 49.9487 12.7551Z" fill="#2C2C2C"/>
</svg>
