<svg width="61" height="60" viewBox="0 0 61 60" fill="none" xmlns="http://www.w3.org/2000/svg">
<path d="M59.9428 57.4578C60.2191 57.0776 60.3869 56.6139 60.3869 56.109V55.1651C60.3869 53.8932 59.3519 52.8587 58.08 52.8587H56.6281C56.6572 52.0489 56.6147 50.7876 56.1135 50.401C55.9353 50.2638 55.134 50.1838 54.0783 50.1382C54.0886 50.1222 54.1024 50.1036 54.1119 50.0886C54.0924 39.2707 54.049 39.5566 54.0294 28.7387C54.0288 28.4373 53.998 28.1029 53.9149 27.8018C54.9188 27.7835 55.6234 27.762 55.643 27.7578C56.4797 27.5596 56.4357 26.0901 56.495 24.2406C57.2469 24.2697 58.2449 24.369 58.7495 23.7471C59.4797 22.8501 58.6241 21.7918 57.8862 21.0541C54.6966 17.9117 34.2042 1.20722 33.9923 1.09739C32.3335 0.237162 29.0418 -0.179551 28.8112 0.0731341C28.828 0.080694 28.8444 0.0904305 28.8612 0.0979905C28.3891 0.181837 27.9309 0.367972 27.5278 0.668536C20.9343 5.58898 9.84574 13.8407 0.593798 21.3278C-0.423796 22.1528 0.161002 23.7881 1.48587 23.8001L3.42179 23.8159C3.27368 24.9317 3.08039 27.0583 3.66955 27.5123C3.85259 27.6532 4.69266 27.734 5.7912 27.7792C5.83344 38.6226 5.87488 39.277 5.91513 50.1117C4.88612 50.1297 4.1602 50.1515 4.1401 50.1554C3.51652 50.3029 3.49315 51.0067 3.48215 51.3448C3.45953 52.0261 3.48181 52.5015 3.52757 52.8587H2.30693C1.03502 52.8587 0 53.8932 0 55.1651V56.109C0 57.3809 1.03502 58.4154 2.30693 58.4154H3.65534C10.5389 59.7522 47.8217 60.0421 59.3601 59.9953C59.6685 59.9941 59.9876 59.9913 60.2681 59.9065C61.1603 59.6365 60.7005 57.8959 59.9428 57.4578ZM55.1628 51.5813C55.2061 51.91 55.2204 52.4526 55.2159 52.8587H47.4673C47.4288 52.5524 47.3881 51.9425 47.3898 51.518C48.9962 51.4814 53.8235 51.474 55.1628 51.5813ZM46.0325 52.8587H35.3761C35.4053 52.0489 35.363 50.7876 34.8618 50.401C34.6837 50.2638 33.8821 50.1837 32.8263 50.1381C32.8366 50.1222 32.8505 50.1036 32.86 50.0886C32.8598 49.9938 32.824 28.3854 32.6629 27.8018C33.6667 27.7835 34.3713 27.762 34.3908 27.7578C35.237 27.5586 35.1997 25.9675 35.2479 24.0752L45.8828 24.1618C45.748 25.3242 45.6406 27.1017 46.1733 27.5123C46.3564 27.6532 47.1964 27.734 48.295 27.7792C48.3372 38.6238 48.3787 39.2762 48.4189 50.1112C47.39 50.1294 46.6642 50.1513 46.6443 50.1554C46.0198 50.3029 45.9969 51.0104 45.9859 51.3503C45.9642 52.0284 45.9868 52.5024 46.0325 52.8587ZM24.7797 52.8587H14.1213C14.1483 52.0463 14.1039 50.782 13.6097 50.401C13.4319 50.264 12.6302 50.184 11.574 50.1387C11.5845 50.1227 11.5984 50.1039 11.6081 50.0886C11.5885 39.2707 11.5451 39.5566 11.5256 28.7387C11.525 28.4373 11.4941 28.1029 11.411 27.8018C12.415 27.7835 13.1196 27.762 13.1392 27.7578C13.6537 27.636 13.8851 27.4536 13.9868 24.3884C13.9929 24.2041 13.997 24.0471 13.9985 23.902L24.6498 23.9889C24.5055 25.1366 24.3573 27.077 24.9217 27.5123C25.1047 27.6532 25.9446 27.734 27.0429 27.7792C27.0852 38.6432 27.1266 39.1568 27.1673 50.1112C26.138 50.1294 25.412 50.1513 25.3922 50.1554C24.7686 50.3029 24.7453 51.0067 24.7343 51.3448C24.7117 52.0261 24.7339 52.5015 24.7797 52.8587ZM25.9384 26.3366C25.9254 25.7702 26.0116 24.6957 26.0837 24.0006L33.8407 24.0637C33.8252 24.7122 33.7683 25.8031 33.6935 26.3943C32.1613 26.4319 27.3775 26.4401 25.9384 26.3366ZM31.2491 49.8585C30.1733 50.0574 29.3179 50.0491 28.5738 49.8347C28.5332 39.1632 28.4908 38.3591 28.4506 27.8302L31.1268 27.8953C31.1671 38.4681 31.2093 39.2183 31.2491 49.8585ZM33.9111 51.5813C33.9542 51.9094 33.9684 52.4523 33.9638 52.8587H26.2154C26.1771 52.5528 26.1364 51.9428 26.1377 51.518C27.744 51.4814 32.5723 51.4731 33.9111 51.5813ZM49.7027 27.8302L52.3789 27.8953C52.4186 38.3454 52.46 39.1279 52.5012 49.8585C51.4259 50.0574 50.5686 50.0491 49.8255 49.8347C49.7851 39.2164 49.7424 38.21 49.7027 27.8302ZM54.9456 26.3943C53.4144 26.4328 48.6296 26.442 47.1896 26.3366C47.1776 25.8145 47.2498 24.8643 47.3179 24.1735L55.0879 24.2367C55.0674 24.8938 55.0142 25.8532 54.9456 26.3943ZM28.3699 1.79657C28.9917 1.33289 29.8842 1.34481 30.4913 1.82406C36.9731 6.94511 43.9053 12.5019 51.1533 18.7061L6.37194 18.5232C13.1803 13.1629 20.4374 7.716 28.3699 1.79657ZM1.47991 22.421C2.50824 21.5888 3.54647 20.7569 4.59529 19.9235L52.7982 20.1202C53.6506 20.857 54.5037 21.5951 55.3644 22.3504C55.5641 22.5264 55.4234 22.8297 55.1536 22.8297C55.1522 22.8297 55.1513 22.8297 55.1504 22.8297C53.4217 22.7887 3.20733 22.4341 1.47991 22.421ZM4.68578 26.3366C4.67158 25.7187 4.77507 24.5016 4.85016 23.8276L12.5924 23.8906C12.5844 24.4977 12.5238 25.7467 12.4418 26.3943C10.9106 26.4328 6.12584 26.442 4.68578 26.3366ZM9.99744 49.8585C8.9221 50.0574 8.06576 50.0491 7.32168 49.8347C7.28133 39.2164 7.23857 38.21 7.19889 27.8302L9.87511 27.8953C9.91563 38.5818 9.95558 38.9879 9.99744 49.8585ZM12.659 51.5813C12.7024 51.9102 12.7167 52.4531 12.7121 52.8587H4.96327C4.92495 52.5528 4.88429 51.9428 4.88555 51.518C6.49192 51.4814 11.3207 51.4731 12.659 51.5813ZM58.9794 56.109C58.9794 56.6047 58.5757 57.0079 58.08 57.0079H2.30693C1.81118 57.0079 1.40752 56.6047 1.40752 56.109V55.1651C1.40752 54.6694 1.81118 54.2662 2.30693 54.2662H58.08C58.5757 54.2662 58.9794 54.6694 58.9794 55.1651V56.109Z" fill="#2C2C2C"/>
<path d="M32.6648 10.6789C31.8116 7.50419 26.5396 6.8806 25.3179 10.1428C24.7892 11.5567 25.2537 13.263 26.4482 14.2921C27.6776 15.3509 29.5032 15.5489 30.8806 14.7869C32.3147 13.9961 33.0817 12.2293 32.6648 10.6789Z" fill="#2C2C2C"/>
</svg>
