<svg width="45" height="60" viewBox="0 0 45 60" fill="none" xmlns="http://www.w3.org/2000/svg">
<path d="M44.2801 22.4732C44.0846 22.0909 43.2447 20.8791 32.0947 1.043C31.6666 0.281889 30.7951 -0.124462 29.9335 0.0339153C24.7973 0.969524 19.2187 1.11178 13.5211 0.290938C12.6713 0.167856 11.8188 0.589592 11.4111 1.33985C10.8365 2.39801 -0.0157511 22.8267 0.0544139 23.9797C0.0242657 23.9434 0 23.9098 0 23.8894C0.0223433 25.3938 2.16077 26.6872 3.80948 25.9664C4.98554 27.7424 7.73084 28.2137 9.43192 26.9315C10.824 28.1739 13.1046 28.2685 14.5948 27.1458C15.877 28.3847 17.9552 28.661 19.5526 27.9014V31.2342C16.2372 31.5994 15.7904 32.3433 15.7904 32.9637C15.7904 33.0446 15.8115 33.1549 15.8504 33.2723C10.9144 38.5214 9.34237 46.1679 12.2179 53.1083C13.7898 56.8981 15.2346 59.2986 22.013 59.5491C26.2779 60.3253 38.1955 60.0514 38.1955 59.0941C38.1955 58.6386 35.0151 58.2622 30.8636 58.1943C32.6068 56.8268 33.6739 55.0733 34.3257 53.0669C36.4223 46.6132 35.0665 38.7774 29.8817 33.1607C30.1509 31.8992 28.1597 31.517 26.8752 31.3293V27.899C27.3879 27.6633 27.8795 27.382 28.3145 27.0178C30.344 28.4522 33.4648 28.0029 35.0071 26.0539C36.5496 27.0881 38.7358 26.9289 40.1995 25.8163V37.0771C37.6349 37.9299 37.9094 41.2884 40.133 41.9586C42.1948 42.5692 44.2892 40.1655 42.6892 38.2191C42.5041 37.9928 42.2874 37.8073 42.0507 37.6661C42.0563 37.3709 41.8663 37.1129 41.5896 37.012V25.1996C44.5695 25.4877 45.2966 23.4182 44.2801 22.4732ZM32.4155 49.7679C26.4705 52.8767 18.9761 53.1011 12.8564 50.3508C12.822 50.3354 12.7861 50.3363 12.751 50.3268C12.1114 47.8985 12.0606 45.7847 12.3346 43.7406C15.5675 44.9417 19.0064 45.5515 22.4491 45.5515C25.9358 45.5515 29.4209 44.9282 32.6904 43.694C32.9841 45.5735 33.0274 47.5502 32.6834 49.6903C32.5924 49.6975 32.5014 49.7225 32.4155 49.7679ZM32.418 42.3135C26.1025 44.7614 18.9103 44.7684 12.5849 42.3511C13.258 39.2906 14.7616 36.4367 16.9253 34.1614C19.7679 35.3744 24.4189 35.661 28.3672 34.2965C30.3372 36.6048 31.7292 39.3662 32.418 42.3135ZM27.7608 33.0347C24.5098 34.1138 20.7677 34.0186 17.9567 33.0621C17.9798 33.0106 17.9863 32.9551 17.9963 32.9003C18.4186 32.7978 19.0152 32.6938 19.8171 32.6076C20.2997 32.9977 20.9427 32.6301 20.9427 32.075V27.8721C22.0187 28.3922 23.2274 28.6171 24.4238 28.5346C24.4277 28.6278 24.5864 32.4491 24.5763 32.2053C24.5763 32.8615 25.415 33.1694 25.8242 32.6055C26.7236 32.6992 27.3702 32.8189 27.8095 32.9325C27.7905 32.9662 27.7739 32.9987 27.7608 33.0347ZM18.4645 2.15074C18.1489 9.68565 18.096 19.5035 17.6075 26.279C16.6907 26.1805 15.8714 25.7729 15.3497 25.1308C15.1218 24.8501 14.6474 24.743 14.3121 25.0837C13.3244 26.1002 11.437 26.1274 10.3451 25.1242C11.9096 16.7381 13.7941 8.71762 15.4473 1.93014C16.4554 2.03557 17.4607 2.10232 18.4645 2.15074ZM37.1505 24.7794C36.5397 24.7362 35.9711 24.5285 35.5292 24.1742C35.2373 23.9398 34.8133 23.9787 34.5685 24.2611C33.1606 25.886 30.5494 26.291 28.674 25.2571C28.6902 25.1853 28.7034 25.112 28.6954 25.0349C27.9819 18.1721 26.1924 9.27703 24.6568 2.08558C25.4425 2.03026 26.2251 1.95593 27.0048 1.86487C27.0006 2.36018 34.5647 19.0042 37.1505 24.7794ZM30.1833 1.40139C30.4675 1.35433 30.7435 1.4756 30.8829 1.72357C43.7206 24.5691 43.1489 23.1585 43.1489 23.3878C43.1317 23.4086 43.063 23.4783 42.863 23.566C42.1623 23.8739 41.6664 23.7791 40.9176 23.5C40.6324 23.2464 40.1564 23.2788 39.9072 23.6131C39.5874 24.043 39.1195 24.3674 38.5795 24.5682C35.2587 17.1464 31.6017 9.18382 28.3781 1.69133C28.9817 1.604 29.5841 1.51044 30.1833 1.40139ZM23.2525 2.16522C27.4966 22.0081 26.9937 24.0548 27.3467 25.2921C25.8787 27.2533 22.9306 27.437 21.2603 25.5399C21.0087 25.2541 20.5606 25.2183 20.268 25.4883C19.921 25.8078 19.486 26.0308 19.0091 26.1655C19.4854 19.3711 19.5316 9.89096 19.853 2.2073C20.9908 2.23241 22.1238 2.21375 23.2525 2.16522ZM12.6328 2.00413C12.7645 1.76249 13.0442 1.62764 13.3234 1.66656C13.5688 1.70185 13.8137 1.72583 14.0589 1.75785C12.4189 8.4951 10.5576 16.431 9.00363 24.7383C7.79264 25.7586 5.66522 25.3884 4.86874 24.0656C4.76828 23.8991 4.60266 23.7823 4.41216 23.7434C3.62347 23.5793 3.61724 24.8506 1.59214 23.6484C2.25934 21.9466 8.79821 9.06408 12.6328 2.00413ZM13.2967 52.0384C19.3066 54.3911 26.3998 54.1852 32.3381 51.3472C31.6263 54.0773 30.413 56.7138 27.8117 57.4624C24.2391 58.4918 17.8192 58.7073 15.3447 55.9329C14.4385 54.9163 13.7753 53.3104 13.2967 52.0384ZM41.3638 40.4934C40.2077 41.1906 39.1027 39.4962 40.1995 38.6245V38.6453C40.1995 39.3421 41.1156 39.6145 41.4839 38.9916C41.5272 39.0298 41.5768 39.0542 41.6149 39.1006C42.0065 39.5783 41.9177 40.1595 41.3638 40.4934Z" fill="#F3EDE8"/>
</svg>
