<svg width="72" height="60" viewBox="0 0 72 60" fill="none" xmlns="http://www.w3.org/2000/svg">
<path d="M2.49055 10.5975C0.275314 11.6304 -0.00679525 15.2947 0.000121462 17.4039C0.0432169 30.5321 1.14702 44.431 2.18467 51.9344C2.60511 54.9753 2.54011 57.7268 5.84712 59.1923C8.14179 60.2093 10.7633 60.0466 13.2666 59.8649C28.4224 58.7641 43.5782 57.6634 58.734 56.5627C62.0802 56.3198 65.8875 55.9009 67.499 52.8904C67.9407 52.3234 68.236 51.6349 68.3025 50.8748C69.5021 37.2046 68.0989 22.0775 66.9713 9.92339C66.794 8.01595 65.1908 6.42285 63.0952 6.42285C45.7988 6.62055 26.7903 7.5897 4.98333 9.38617C4.00021 9.46649 3.12615 9.9199 2.49055 10.5975ZM5.11817 11.0301C41.3512 8.04702 63.5209 8.0732 63.1409 8.0732C64.2835 8.0732 65.2215 8.92953 65.3284 10.076C66.4496 22.1645 67.8453 37.2078 66.6586 50.7308C66.5678 51.7666 65.7647 52.5928 64.7493 52.696C48.7598 54.3057 23.81 56.2038 7.61471 55.9114C6.93983 55.8991 6.20645 55.8559 5.69394 55.4234C5.35603 55.0974 5.12227 54.6852 5.04887 54.2152C3.03375 41.3219 2.37726 27.4906 3.09768 13.108C3.15248 12.0132 4.02116 11.1203 5.11817 11.0301Z" fill="#F3EDE8"/>
<path d="M8.6879 29.0548C8.71134 37.0197 8.9821 44.0797 9.49689 50.0363C9.53288 50.4575 9.88208 50.783 10.3049 50.7906C18.5513 50.922 29.4996 50.0261 37.6156 48.7835C38.025 48.7212 38.3242 48.3655 38.3162 47.9519C38.1434 39.2621 37.8331 30.7898 37.4932 21.0435C39.158 21.1165 41.2365 21.066 42.8315 20.8436C43.5687 28.266 44.1789 34.2115 44.6189 40.29C44.6506 40.7327 45.0159 41.0754 45.472 41.055C49.8351 40.8948 57.8595 40.7897 62.958 40.6285C63.3964 40.6145 63.7472 40.2599 63.7569 39.8215C63.8096 37.3775 63.583 35.2654 63.7601 33.9938C63.7929 33.7585 63.723 33.521 63.5683 33.3416C63.164 32.8715 63.3416 32.9526 50.6685 33.3212C50.0626 26.4773 50.0015 20.8156 49.3523 13.8931C49.3319 13.6739 49.225 13.4729 49.0547 13.3333C48.885 13.1925 48.6668 13.1248 48.4471 13.1495C42.7295 13.734 36.6465 14.2186 30.8971 13.8178C30.6694 13.8039 30.433 13.8866 30.2643 14.0499C30.0961 14.2132 30.0054 14.441 30.015 14.6752C30.4335 24.5967 30.6785 32.1887 30.9106 42.4174C26.3895 43.1054 21.4668 43.1648 16.8864 43.4704L16.3573 28.8759C18.4877 27.5801 20.0053 25.2889 20.2118 22.8142C20.4718 19.6897 18.6898 16.5856 15.8791 15.2662C7.41557 11.2947 0.455765 24.5591 8.6879 29.0548ZM14.7335 29.6365L14.9648 36.0148H10.4288C10.381 33.9881 10.3522 31.8876 10.3419 29.7175C11.8092 30.1097 13.2573 30.1069 14.7335 29.6365ZM32.3218 32.9691C32.2251 29.5842 32.1189 26.3357 31.9954 22.9721C33.5505 22.7047 36.0464 22.2756 35.8854 22.3033C36.0164 26.0847 36.1086 28.6964 36.2365 32.5271C35.9698 32.5136 32.455 32.9463 32.3218 32.9691ZM48.9073 32.0375C48.6121 31.9832 48.683 32.0436 45.644 32.7081C45.3548 29.5559 45.0633 26.6417 44.7696 23.6759C45.7487 23.407 46.7921 23.3235 47.8019 23.4395C48.0049 23.4634 48.1961 23.4019 48.3546 23.2939C48.5191 26.2682 48.6664 29.022 48.9073 32.0375ZM62.0501 34.6997C62.0116 35.7903 62.1146 37.4173 62.1146 39.0028C60.0227 39.0641 57.6053 39.1154 55.1854 39.1652C55.2786 38.8562 55.1938 39.3982 55.3746 34.816C57.4931 34.748 59.7532 34.6909 62.0501 34.6997ZM53.7216 34.8713C53.6017 39.0925 53.532 38.9031 53.633 39.1976C50.9232 39.2542 48.2915 39.3112 46.2064 39.3789C46.0797 37.6861 45.9387 36.0234 45.7924 34.3663C47.5945 33.9489 48.7711 33.7107 49.0413 33.6086C49.0604 33.8227 49.0753 34.0291 49.0956 34.2452C49.1364 34.6771 49.528 34.9822 49.9385 34.993C51.0521 34.9643 52.2956 34.9203 53.7216 34.8713ZM48.2766 21.8926C48.189 21.8469 48.094 21.8117 47.9899 21.7999C46.8694 21.6707 45.7092 21.7549 44.6063 22.0211L44.3868 19.7982C44.3382 19.3031 43.8705 18.9674 43.3892 19.0719C42.8401 19.1919 42.1409 19.276 41.3887 19.3336C41.4619 19.0103 41.3969 19.7689 41.4396 15.5498C41.4399 15.4991 41.4199 15.4548 41.4113 15.4064C43.5594 15.271 45.6947 15.0833 47.7847 14.8751C47.9998 17.3137 48.1476 19.637 48.2766 21.8926ZM39.7982 15.4996C39.7973 15.5149 39.7893 15.5278 39.7892 15.5434C39.7983 19.3925 39.7251 19.1074 39.8254 19.411C36.6363 19.4885 36.5154 19.1393 36.0668 19.5693C35.6953 19.9233 35.8473 20.3793 35.8276 20.6384L31.9333 21.3089C31.8624 19.4416 31.7861 17.5284 31.7024 15.5208C34.3677 15.6648 37.0872 15.6328 39.7982 15.4996ZM31.8894 43.9313C32.2934 43.8636 32.5862 43.509 32.577 43.0997C32.5092 40.0663 32.4405 37.2719 32.367 34.5856C32.6669 34.6193 31.87 34.6475 36.29 34.1565C36.4317 38.5059 36.5592 42.8241 36.6513 47.2599C34.7128 47.5463 32.6687 47.8039 30.5833 48.0316L30.071 44.1867C30.6799 44.1072 31.2911 44.0323 31.8894 43.9313ZM21.0332 44.8929C23.479 44.7706 25.9776 44.6351 28.4316 44.3819L28.9409 48.2038C26.053 48.4939 23.1158 48.7247 20.2843 48.8852V44.9364C20.5365 44.9237 20.7803 44.9056 21.0332 44.8929ZM18.634 45.0323V48.9715C15.9381 49.1005 13.3714 49.1628 11.0785 49.1499C10.7946 45.6775 10.5934 41.8313 10.4719 37.6651C12.0976 37.6625 14.7194 37.6716 15.0244 37.6571L15.2683 44.3826C15.2763 44.6071 15.3752 44.8188 15.5423 44.9681C15.7093 45.1186 15.9301 45.1895 16.1542 45.1766C16.9656 45.1159 17.806 45.0787 18.634 45.0323ZM12.7611 16.1934C16.2055 16.1934 18.8386 19.4138 18.5668 22.6766C18.3659 25.0855 16.6011 27.2967 14.2744 28.0553C12.4758 28.6419 10.4327 28.3508 8.9414 27.2946C4.07496 23.8491 7.7259 16.1934 12.7611 16.1934Z" fill="#F3EDE8"/>
<path d="M10.9994 26.6632L13.2274 24.6624L16.1389 25.3634L14.9244 22.626L16.4908 20.0737L13.5121 20.3829L11.5687 18.1045L10.9423 21.0329L8.1748 22.177L10.7664 23.6776L10.9994 26.6632Z" fill="#F3EDE8"/>
<path d="M59.2253 29.6297C59.4047 29.8233 59.6662 29.9092 59.8657 29.8919C60.1075 29.8812 60.332 29.7651 60.4808 29.5739C61.1534 28.7089 61.9614 27.7237 62.7699 26.7373C63.593 25.7338 64.416 24.7292 65.1004 23.8481C65.3024 23.5881 65.3303 23.2325 65.1719 22.9445C64.7585 22.1961 64.2549 22.7018 61.7019 22.5986C61.5937 21.3854 61.5266 19.0494 61.3656 18.0612C61.2953 17.6271 60.8966 17.3349 60.4588 17.3735L57.6502 17.6884C57.1684 17.7421 56.835 18.2016 56.9352 18.679C57.0759 19.3414 57.1653 21.6405 57.2725 22.7039C56.4095 22.9241 55.5078 23.2227 54.6547 23.3904C54.0211 23.5155 53.7692 24.2893 54.2098 24.7625C55.7702 26.4409 57.7183 28.0107 59.2253 29.6297ZM58.3534 24.1501C58.8086 24.0599 59.0964 23.6162 59.0019 23.1691C58.8641 22.521 58.7774 20.3241 58.6731 19.2345L59.8233 19.1056C59.9285 20.3925 59.9897 22.5359 60.1472 23.5033C60.2058 23.8632 60.4937 24.1425 60.8558 24.1898C61.3211 24.25 61.991 24.2629 62.6657 24.2564C61.7012 25.4444 60.6289 26.7344 59.7658 27.8161C58.677 26.7273 57.4993 25.7039 56.4167 24.6529C57.0636 24.4671 57.7543 24.2679 58.3534 24.1501Z" fill="#F3EDE8"/>
<path d="M62.6116 4.81296C63.0612 4.73775 63.3648 4.31227 63.2896 3.86315L62.856 1.26514C62.7808 0.814948 62.3543 0.513029 61.9062 0.586092C61.4566 0.661303 61.153 1.08678 61.2282 1.5359L61.6618 4.13391C61.7366 4.58397 62.161 4.8863 62.6116 4.81296Z" fill="#F3EDE8"/>
<path d="M66.3437 5.25158C67.0147 3.99018 67.5175 2.5096 67.7979 0.972067C67.8796 0.522949 67.5825 0.0942453 67.1345 0.0115131C66.6848 -0.0626236 66.2567 0.228551 66.1745 0.67552C65.9241 2.04866 65.4788 3.36378 64.8867 4.47798C64.6729 4.87982 64.8255 5.37944 65.2279 5.59325C65.6301 5.80661 66.1294 5.65535 66.3437 5.25158Z" fill="#F3EDE8"/>
<path d="M71.2029 6.78499C71.0675 6.34984 70.606 6.10594 70.1693 6.24347L67.8608 6.96442C67.4257 7.0998 67.1823 7.56181 67.3177 7.99696C67.4559 8.44042 67.9279 8.67398 68.3508 8.53955L70.6614 7.8186C71.0965 7.68215 71.3388 7.22014 71.2029 6.78499Z" fill="#F3EDE8"/>
</svg>
