<svg width="72" height="80" viewBox="0 0 72 80" fill="none" xmlns="http://www.w3.org/2000/svg">
<path fill-rule="evenodd" clip-rule="evenodd" d="M69.7524 39.8804V75.2968C69.7524 77.1165 68.2588 78.6101 66.439 78.6101H10.0957V36.5671H66.439C68.2588 36.5671 69.7524 38.0607 69.7524 39.8804Z" fill="#E6E6E6"/>
<path fill-rule="evenodd" clip-rule="evenodd" d="M10.0949 78.6272H4.72151C2.90177 78.6272 1.4082 77.1337 1.4082 75.3139V39.8804C1.4082 38.0607 2.90177 36.5671 4.72151 36.5671H10.0949V78.6272Z" fill="#728D8F"/>
<path fill-rule="evenodd" clip-rule="evenodd" d="M69.7515 43.7949V71.4172H66.5755C64.6356 71.4172 63.0391 70.0095 63.0391 68.2584V46.9537C63.0391 45.2198 64.6185 43.7949 66.5755 43.7949H69.7515Z" fill="#728D8F"/>
<path fill-rule="evenodd" clip-rule="evenodd" d="M48.4991 1.37402C60.1558 1.37402 69.5978 10.8161 69.5978 22.4727C69.5978 34.1294 60.1558 43.5714 48.4991 43.5714C46.2845 43.5714 44.1386 43.2281 42.13 42.5929L35.3832 46.9534L35.7781 39.2968C30.6965 35.4513 27.4004 29.3397 27.4004 22.4727C27.4004 10.8161 36.8596 1.37402 48.4991 1.37402Z" fill="#FDB614"/>
<path fill-rule="evenodd" clip-rule="evenodd" d="M41.6305 57.5972L23.3301 68.1552V47.0393L41.6305 57.5972Z" fill="#ED2024"/>
<path fill-rule="evenodd" clip-rule="evenodd" d="M52.0692 10.5242C53.9061 10.5242 55.3825 12.0006 55.3825 13.8375C55.3825 15.6744 53.9061 17.1508 52.0692 17.1508C50.2323 17.1508 48.7559 15.6744 48.7559 13.8375C48.7559 12.0177 50.2494 10.5242 52.0692 10.5242Z" fill="#EAEAEA"/>
<path fill-rule="evenodd" clip-rule="evenodd" d="M52.0692 29.5625C53.9061 29.5625 55.3825 31.0561 55.3825 32.8758C55.3825 34.6955 53.9061 36.1891 52.0692 36.1891C50.2323 36.1891 48.7559 34.7127 48.7559 32.8758C48.7559 31.0389 50.2323 29.5625 52.0692 29.5625Z" fill="#EAEAEA"/>
<path fill-rule="evenodd" clip-rule="evenodd" d="M38.6961 20.0349C40.533 20.0349 42.0094 21.5113 42.0094 23.3482C42.0094 25.1851 40.533 26.6615 38.6961 26.6615C36.8592 26.6615 35.3828 25.1851 35.3828 23.3482C35.3828 21.5285 36.8764 20.0349 38.6961 20.0349Z" fill="#EAEAEA"/>
<path d="M43.1416 24.8412L49.2017 29.1502C52.2747 26.7983 56.7382 28.9785 56.7382 32.8755C56.7382 37.03 51.6738 39.1416 48.7382 36.1888C47.485 34.9356 47.0386 33.0815 47.6052 31.382L41.5451 27.073C38.4721 29.4421 33.9914 27.2446 33.9914 23.3476C33.9914 19.4678 38.4721 17.2704 41.5451 19.6395L47.6052 15.3305C46.5923 12.309 48.8412 9.16738 52.0515 9.16738C56.206 9.16738 58.3176 14.2318 55.3648 17.1674C53.6996 18.8326 51.0558 19.0043 49.1845 17.5622L43.1245 21.8712C43.4678 22.8326 43.4678 23.8798 43.1416 24.8412ZM40.0687 21.9742C38.8498 20.7554 36.7554 21.6309 36.7554 23.3476C36.7554 25.0815 38.8498 25.9399 40.0687 24.721C40.824 23.9657 40.824 22.7468 40.0687 21.9742ZM53.4421 31.5021C52.2232 30.2833 50.1288 31.1416 50.1288 32.8755C50.1288 34.6094 52.2232 35.4678 53.4421 34.2489C54.1974 33.4936 54.1974 32.2575 53.4421 31.5021ZM53.4421 12.4635C52.2232 11.2446 50.1288 12.1202 50.1288 13.8369C50.1288 15.5536 52.2232 16.4292 53.4421 15.2103C54.1974 14.4549 54.1974 13.2189 53.4421 12.4635ZM42.3004 58.7811L24 69.3391C23.073 69.8712 21.9399 69.1845 21.9399 68.1545V47.0386C21.9399 46.0257 23.0558 45.236 24.103 45.9227L42.2833 56.412C43.2275 56.9442 43.2103 58.2661 42.3004 58.7811ZM24.7039 65.7854L38.8841 57.5966L24.7039 49.4077V65.7854ZM48.4979 0C60.9099 0 70.97 10.0601 70.97 22.4721C70.97 27.2103 69.5107 31.6052 67.0043 35.2275C69.3219 35.5021 71.1245 37.5107 71.1245 39.8798V75.2961C71.1245 77.8884 69.0129 80 66.4206 80C45.8541 80 25.2876 80 4.70386 80C2.11159 80 0 77.8884 0 75.2961V39.8798C0 37.2876 2.11159 35.1931 4.70386 35.1931H29.9571C23.8283 26.2833 24.927 14.2489 32.6009 6.59228C36.6695 2.50644 42.3004 0 48.4979 0ZM64.7897 37.9399C59.073 43.9657 50.4378 46.3863 42.3348 44.0858L36.1202 48.103C35.176 48.7039 33.9571 47.9828 34.0257 46.8841L34.3863 39.9313C33.6137 39.3133 32.8927 38.6438 32.2232 37.9227H11.4506V77.2361H66.4206C67.485 77.2361 68.3605 76.3605 68.3605 75.2961V72.7725H66.5579C63.9657 72.7725 61.6481 70.8155 61.6481 68.2403V46.9528C61.6481 44.3605 63.9485 42.4206 66.5579 42.4206H68.3605V39.897C68.3605 38.8326 67.485 37.9571 66.4206 37.9571H64.7897V37.9399ZM62.4378 8.53219C54.7296 0.824034 42.2489 0.824034 34.5408 8.53219C28.5837 14.4893 27.0386 23.6395 30.8155 31.2446C32.1717 33.9742 34.1631 36.3605 36.5837 38.1974C36.927 38.4549 37.1502 38.8841 37.1159 39.3648L36.8584 44.3433L41.2532 41.5107C41.5966 41.236 42.0773 41.133 42.5236 41.2704C49.5794 43.5021 57.2361 41.5794 62.4206 36.412C70.1459 28.721 70.1459 16.2232 62.4378 8.53219ZM68.3777 45.1502H66.5751C65.4764 45.1502 64.412 45.8884 64.412 46.9356V68.2403C64.412 69.3047 65.4764 70.0257 66.5751 70.0257H68.3777V45.1502ZM4.72103 77.2532H8.72103V37.9399H4.72103C3.65665 37.9399 2.78112 38.8155 2.78112 39.8798V75.2961C2.76395 76.3777 3.63949 77.2532 4.72103 77.2532Z" fill="black"/>
</svg>
