<svg width="91" height="80" viewBox="0 0 91 80" fill="none" xmlns="http://www.w3.org/2000/svg">
<path fill-rule="evenodd" clip-rule="evenodd" d="M40.5409 24.0283H27.1866C17.7418 24.0283 10.0195 31.7506 10.0195 41.176V48.8209H57.7079V41.176C57.7079 31.7312 49.9663 24.0283 40.5409 24.0283Z" fill="#FBB13C"/>
<path fill-rule="evenodd" clip-rule="evenodd" d="M33.8644 1.53809C27.3227 1.53809 22.0391 6.8411 22.0391 13.3634C22.0391 19.9051 27.3421 25.2081 33.8644 25.2081C40.4061 25.2081 45.7091 19.9051 45.7091 13.3634C45.6897 6.82174 40.4061 1.53809 33.8644 1.53809Z" fill="#FBD1A2"/>
<path fill-rule="evenodd" clip-rule="evenodd" d="M67.7719 31.7695L66.1074 27.3181H60.0109L58.3465 31.7695C55.8691 32.3308 53.566 33.2985 51.4951 34.6146L47.1598 32.6405L42.8439 36.9564L44.818 41.2917C43.5019 43.3626 42.5342 45.6658 41.9729 48.1431L37.5215 49.8075V55.9041L41.9729 57.5685C42.5148 60.0458 43.5019 62.349 44.818 64.4198L42.8245 68.7745L47.1405 73.0905L51.4758 71.1163C53.5466 72.4324 55.8498 73.4001 58.3271 73.9614L59.9915 78.4128H66.0881L67.7525 73.9614C70.2298 73.4195 72.533 72.4324 74.6232 71.1163L78.9585 73.0905L83.2745 68.7745L81.3004 64.4392C82.6164 62.3683 83.5841 60.0458 84.1454 57.5879L88.5968 55.9234V49.8269L84.1454 48.1624C83.6035 45.6851 82.6164 43.382 81.3004 41.3111L83.2745 36.9758L78.9585 32.6598L74.6232 34.6339C72.5717 33.2985 70.2492 32.3308 67.7719 31.7695Z" fill="#7C9885"/>
<path fill-rule="evenodd" clip-rule="evenodd" d="M63.0493 44.6201L65.4879 49.5167L70.8877 50.3296L66.9976 54.1423L67.9072 59.5421L63.0493 57.0067L58.2108 59.5421L59.1205 54.1423L55.2109 50.3296L60.6301 49.5167L63.0493 44.6201Z" fill="#FBB13C"/>
<path fill-rule="evenodd" clip-rule="evenodd" d="M9.01346 55.9424L11.3166 60.6261L16.5035 61.3809L12.7681 65.0388L13.6391 70.187L9.01346 67.7677L4.36848 70.187L5.23942 65.0388L1.52344 61.3809L6.69097 60.6261L9.01346 55.9424Z" fill="#FBB13C"/>
<path fill-rule="evenodd" clip-rule="evenodd" d="M29.1228 55.9424L31.4453 60.6261L36.6129 61.3809L32.8775 65.0388L33.7485 70.187L29.1228 67.7677L24.4972 70.187L25.3681 65.0388L21.6328 61.3809L26.8003 60.6261L29.1228 55.9424Z" fill="#FBB13C"/>
<path d="M30.4962 55.2462L32.451 59.1944L36.825 59.8331C38.1411 60.0266 38.6055 61.633 37.6185 62.5233L34.5218 65.5425L35.2573 69.8972C35.4508 71.1165 34.1735 72.181 32.9348 71.4649L29.1027 69.4714L25.1932 71.5229C24.0513 72.1229 22.7546 71.1358 22.9675 69.8972L23.7029 65.5425L20.5482 62.4459C19.6386 61.5556 20.1611 60.0073 21.4191 59.8137L25.7932 59.175L27.7479 55.2268C28.3092 54.0849 29.9349 54.1236 30.4962 55.2462ZM30.0511 61.304L29.1221 59.4073L28.2124 61.2266C28.0189 61.6911 27.5737 62.0588 27.0125 62.1362L24.9222 62.4459L26.3738 63.8781C26.7609 64.2264 26.9544 64.749 26.877 65.2716L26.5286 67.3618L28.3866 66.3941C28.8124 66.1618 29.3543 66.1425 29.8382 66.3941L31.7155 67.3618L31.3671 65.2716C31.2897 64.7877 31.4445 64.2845 31.8123 63.9168L33.3219 62.4459L31.2317 62.1362C30.7284 62.0781 30.2833 61.7685 30.0511 61.304ZM10.3873 55.2462L12.3421 59.1944L16.7161 59.8331C18.0322 60.0266 18.4967 61.633 17.5096 62.5233L14.413 65.5425L15.1678 69.9359C15.3613 71.1552 14.084 72.2197 12.8453 71.5036L9.01319 69.5101L5.10367 71.5616C3.98114 72.1616 2.66506 71.1745 2.87796 69.9359L3.61341 65.5812L0.458698 62.4846C-0.450943 61.5943 0.0716169 60.046 1.32963 59.8524L5.70365 59.2137L7.6197 55.2462C8.20032 54.0849 9.82606 54.1236 10.3873 55.2462ZM9.94219 61.304L9.01319 59.4073L8.10355 61.2266C7.91001 61.6911 7.46487 62.0588 6.9036 62.1362L4.81336 62.4459L6.26492 63.8781C6.652 64.2264 6.84554 64.749 6.76812 65.2716L6.41975 67.3618L8.27774 66.3941C8.72288 66.1618 9.24544 66.1425 9.72929 66.3941L11.6066 67.3618L11.2389 65.2909C11.1615 64.8071 11.3163 64.3039 11.6841 63.9361L13.1937 62.4652L11.1034 62.1556C10.6196 62.0781 10.1744 61.7685 9.94219 61.304ZM64.4432 43.9434L66.5141 48.1045L71.1204 48.7819C72.4364 48.9754 72.9009 50.5818 71.9139 51.4721L68.643 54.6655L69.4172 59.2718C69.6301 60.4911 68.3334 61.5362 67.0947 60.8395L63.0497 58.7299L58.9273 60.8975C57.7854 61.4975 56.4887 60.5105 56.7016 59.2718L57.4758 54.6655L54.1469 51.3947C53.2372 50.5044 53.7598 48.9561 54.9984 48.7626L59.6047 48.0852L61.6756 43.924C62.2369 42.7821 63.8819 42.8015 64.4432 43.9434ZM64.0948 50.2141L63.0497 48.1045L62.0433 50.1367C61.8304 50.6205 61.4046 50.9689 60.8434 51.0463L58.5209 51.3947L60.166 52.9817C60.553 53.3301 60.7466 53.8527 60.6498 54.3946L60.2627 56.7171L62.3336 55.6332C62.7594 55.401 63.3013 55.3816 63.7658 55.6332L65.8561 56.7171L65.469 54.3946C65.3916 53.9107 65.5464 53.4075 65.9141 53.0398L67.5979 51.3947L65.2754 51.0463C64.7722 50.9883 64.3271 50.6786 64.0948 50.2141ZM63.0497 37.2662C71.6623 37.2662 78.6491 44.2531 78.6491 52.8656C78.6491 61.4782 71.6623 68.465 63.0497 68.465C54.4372 68.465 47.4504 61.4782 47.4504 52.8656C47.4504 44.2531 54.4372 37.2662 63.0497 37.2662ZM71.8945 44.0208C67.0173 39.1436 59.1015 39.1436 54.2243 44.0208C49.347 48.898 49.347 56.8138 54.2243 61.6911C59.1015 66.5683 67.0173 66.5683 71.8945 61.6911C76.7718 56.8332 76.7718 48.9174 71.8945 44.0208ZM66.3399 32.3116L65.0432 28.8666H61.0756L59.7789 32.3116C59.5853 32.8342 59.1402 33.1825 58.637 33.2793C56.45 33.7438 54.1856 34.7115 52.3082 35.9114C51.8244 36.2211 51.2437 36.2211 50.7792 35.9889L47.4891 34.4986L44.7021 37.2856L46.231 40.6532C46.4439 41.1564 46.4052 41.6983 46.1343 42.1241C44.8956 44.0595 43.986 46.2465 43.5021 48.4916C43.386 49.0142 42.9989 49.4206 42.5344 49.5948L39.0894 50.8915V54.8397L42.5344 56.1364C43.057 56.33 43.4054 56.7751 43.5021 57.2783C43.9666 59.4653 44.9343 61.7298 46.1343 63.6071C46.4439 64.091 46.4439 64.6716 46.2117 65.1361L44.7214 68.4263L47.5084 71.2326L50.876 69.7036C51.3792 69.4907 51.9211 69.5294 52.3469 69.8004C54.2823 71.0391 56.4693 71.9487 58.7144 72.4519C59.237 72.568 59.6434 72.9551 59.8176 73.4196L61.1143 76.8646H65.0819L66.3786 73.4196C66.5722 72.8971 67.0173 72.5487 67.5205 72.4519C68.643 72.2003 69.7462 71.8519 70.7913 71.4068C71.8558 70.9617 72.8816 70.4197 73.8493 69.8004C74.3331 69.4907 74.9138 69.4907 75.3783 69.723L78.6684 71.2133L81.4748 68.4069L79.9458 65.0393C79.7329 64.5555 79.7716 63.9942 80.0426 63.5878C81.2812 61.6524 82.1909 59.4653 82.6941 57.2203C82.8102 56.6977 83.1973 56.2913 83.6618 56.0977L87.1068 54.801V50.8334L83.6618 49.5367C83.1392 49.3432 82.7909 48.898 82.6941 48.3948C82.2296 46.2078 81.2425 43.9434 80.0619 42.066C79.7523 41.5822 79.7523 41.0016 79.9845 40.5371L81.4748 37.2469L78.6684 34.4599L75.3008 35.9889C74.817 36.2018 74.2557 36.1631 73.8493 35.8921C71.9139 34.6534 69.7269 33.7438 67.4818 33.2599C66.9205 33.1632 66.5141 32.7761 66.3399 32.3116ZM67.5399 26.7763L68.914 30.4536C70.9655 30.9762 72.9203 31.789 74.7202 32.8535L78.2233 31.2665C78.8039 30.9568 79.5587 31.0536 80.0426 31.5374L84.3585 35.8534C84.8037 36.2985 84.9392 36.9759 84.6682 37.5759L83.0425 41.1758C84.1069 42.995 84.9198 44.9304 85.4424 46.982L89.0035 48.3174C89.6616 48.4916 90.1454 49.0916 90.1454 49.8077V55.9042C90.1454 56.5235 89.7583 57.1235 89.139 57.3558L85.4424 58.7299C84.9198 60.7814 84.1069 62.7362 83.0425 64.5361L84.6295 68.0392C84.9392 68.6198 84.8424 69.3746 84.3585 69.8585L80.0619 74.1938C79.6168 74.6389 78.9394 74.7744 78.3394 74.5034L74.7396 72.8777C73.8493 73.4003 72.9009 73.8841 71.9139 74.2906C71.0236 74.6776 69.9011 75.0454 68.9334 75.297L67.5979 78.8581C67.4237 79.5161 66.8238 80 66.1077 80H60.0111C59.3918 80 58.7918 79.6129 58.5596 78.9936L57.1854 75.297C55.1339 74.7744 53.1985 73.9615 51.3792 72.8971L47.8761 74.4841C47.2955 74.7938 46.5407 74.697 46.0569 74.2131L41.7409 69.8972C41.2958 69.452 41.1603 68.7746 41.4312 68.1747L43.057 64.5748C41.9925 62.7555 41.1796 60.8201 40.6571 58.7686L37.0959 57.4332C36.4379 57.259 35.9734 56.659 35.9734 55.9429V50.3883H10.039C9.18738 50.3883 8.49063 49.6915 8.49063 48.84V41.1951C8.49063 31.9632 15.3033 24.1442 24.2835 22.712C19.1741 17.467 19.2321 9.08673 24.419 3.9192C29.6446 -1.3064 38.1217 -1.3064 43.3473 3.9192C48.5148 9.08673 48.5729 17.467 43.4828 22.712C48.631 23.5249 53.1985 26.5054 56.1016 30.802C56.4693 30.6859 56.8371 30.5891 57.2048 30.4923L58.5402 26.9312C58.7144 26.2731 59.3144 25.8086 60.0305 25.8086H66.127C66.727 25.7699 67.327 26.157 67.5399 26.7763ZM39.9023 47.2723L40.6571 47.0013C41.199 44.9498 41.9925 43.0144 43.057 41.1951L41.4699 37.692C41.1603 37.1114 41.2571 36.3566 41.7409 35.8727L46.0569 31.5568C46.502 31.1116 47.1794 30.9762 47.7794 31.2471L51.3792 32.8729C51.9405 32.5438 52.5211 32.2342 53.1211 31.9439C50.1986 27.9763 45.573 25.557 40.541 25.557H39.3797C37.6959 26.3118 35.8186 26.7376 33.8638 26.7376C31.909 26.7376 30.0317 26.3118 28.3479 25.557H27.1867C18.5935 25.557 11.5679 32.5826 11.5679 41.1564V47.2529H39.9023V47.2723ZM33.8638 3.08697C28.1737 3.08697 23.5868 7.69324 23.5868 13.364C23.5868 19.0347 28.1931 23.6603 33.8638 23.6603C39.5345 23.6603 44.1602 19.0541 44.1602 13.364C44.1602 7.67388 39.5345 3.08697 33.8638 3.08697Z" fill="black"/>
</svg>
