<svg width="75" height="80" viewBox="0 0 75 80" fill="none" xmlns="http://www.w3.org/2000/svg">
<path fill-rule="evenodd" clip-rule="evenodd" d="M1.37695 12.741H40.3003V58.6174H1.37695V12.741Z" fill="#FEDC97"/>
<path fill-rule="evenodd" clip-rule="evenodd" d="M44.6201 28.583C58.4403 28.583 69.6442 39.7851 69.6442 53.6071C69.6442 67.4291 58.442 78.6312 44.6201 78.6312C30.7981 78.6312 19.5977 67.4274 19.5977 53.6054C19.5977 39.7834 30.7998 28.583 44.6201 28.583Z" fill="#B5B682"/>
<path fill-rule="evenodd" clip-rule="evenodd" d="M38.1719 49.4734L45.9971 41.1074L48.8538 51.755L51.7054 62.4078L40.7454 59.0738L38.1719 49.4734Z" fill="#8ECAE6"/>
<path fill-rule="evenodd" clip-rule="evenodd" d="M33.3111 50.7732L38.1731 49.4736L40.7483 59.0757L35.8863 60.3805C34.3824 60.7839 32.8304 59.8843 32.427 58.3856L31.3128 54.2343C30.9111 52.7338 31.8072 51.1767 33.3111 50.7732Z" fill="#FBB13C"/>
<path fill-rule="evenodd" clip-rule="evenodd" d="M37.5002 1.37305H66.018C69.8722 1.37305 73.026 4.52681 73.026 8.37589V25.1405C73.026 28.9895 69.8722 32.1433 66.018 32.1433H46.0069L37.5002 41.2097V32.145C33.646 32.145 30.4922 28.9913 30.4922 25.1422V8.37589C30.4922 4.52681 33.646 1.37305 37.5002 1.37305Z" fill="#FBB13C"/>
<path fill-rule="evenodd" clip-rule="evenodd" d="M58.7766 17.4565L53.5456 20.4627L48.3145 23.4654V17.4565V11.4512L53.5456 14.4539L58.7766 17.4565Z" fill="#D81159"/>
<path d="M59.4443 18.6582L48.9958 24.6584C48.0756 25.1838 46.9425 24.5074 46.9425 23.4653V11.4511C46.9425 10.4141 48.0722 9.69993 49.0542 10.2922L59.458 16.2633C60.3971 16.8041 60.3679 18.1466 59.4443 18.6582ZM52.8638 19.2711L56.0227 17.4564L49.686 13.822V21.0978L52.8638 19.2711ZM37.5001 0H66.0179C70.631 0 74.3976 3.76666 74.3976 8.37456V25.1391C74.3976 29.747 70.631 33.5137 66.0179 33.5137H61.7448C73.4345 43.49 74.2122 61.3396 63.2882 72.2654C52.9805 82.5782 36.264 82.5782 25.9563 72.2654C22.6223 68.9313 20.1742 64.7132 19.0016 59.9868H1.37688C0.618049 59.9868 0 59.3739 0 58.6151V12.7404C0 11.9816 0.618049 11.3687 1.37688 11.3687H29.1204V8.37456C29.1204 3.76666 32.8871 0 37.5001 0ZM57.1232 33.5154H46.5975L38.4993 42.1492C37.6478 43.0488 36.1301 42.4411 36.1301 41.2101H36.125V33.4038C35.2734 33.2631 34.4614 32.9901 33.7163 32.6107C25.9632 36.6452 20.9707 44.6695 20.9707 53.6054C20.9707 66.6669 31.56 77.2561 44.6214 77.2561C57.6828 77.2561 68.2721 66.6669 68.2721 53.6054C68.2721 45.3356 64.0093 37.8074 57.1232 33.5154ZM31.3299 30.7943C30.693 30.099 30.1677 29.2955 29.7917 28.4148H8.72479C7.96596 28.4148 7.34792 27.7968 7.34792 27.0379C7.34792 26.2791 7.96596 25.6662 8.72479 25.6662H29.1359C29.1256 25.4911 29.1221 25.316 29.1221 25.1409V14.1138H2.7486V57.2451H18.4728C17.6745 51.4594 18.8093 45.6876 21.563 40.7483L8.72479 40.7243C7.96596 40.7243 7.35307 40.1114 7.35307 39.356C7.35307 38.6023 7.96596 37.9877 8.72479 37.9877L23.3193 38.0169C24.2189 36.7911 25.2181 35.6477 26.3117 34.5953H8.72479C7.96596 34.5953 7.34792 33.9772 7.34792 33.2236C7.34792 32.4647 7.96596 31.8467 8.72479 31.8467H29.6749C30.2106 31.4759 30.7651 31.1256 31.3299 30.7943ZM66.0179 2.74345H37.5001C34.4047 2.74345 31.8639 5.27917 31.8639 8.37456V25.1391C31.8639 28.2054 34.3807 30.7703 37.5001 30.7703C38.2538 30.7703 38.8718 31.3832 38.8718 32.142V37.7439L44.9407 31.2767C45.1931 30.966 45.5777 30.7703 46.0069 30.7703H66.0179C69.1133 30.7703 71.649 28.2294 71.649 25.1391V8.37456C71.649 5.27917 69.1133 2.74345 66.0179 2.74345ZM39.0487 60.9534L40.3328 65.7467C40.5268 66.4763 40.0942 67.2317 39.3594 67.4257C38.6298 67.6197 37.8795 67.1871 37.6804 66.4523L36.3962 61.6641C35.1945 61.9852 34.0888 61.8839 33.057 61.2796C32.1231 60.7439 31.3969 59.8529 31.0999 58.7387L29.9857 54.5875C29.3917 52.359 30.7308 50.0414 32.954 49.4491L37.4452 48.2473L44.9974 40.1732C45.7373 39.3852 47.0421 39.7302 47.3134 40.7569L47.3185 40.7517L53.0269 62.0521C53.2947 63.0496 52.3745 64.0865 51.2071 63.6865L40.7243 60.4984L39.0487 60.9534ZM56.3438 51.3702C55.609 51.5642 54.8587 51.1315 54.6596 50.4019C54.4656 49.6671 54.9033 48.9169 55.633 48.7229L57.6726 48.1735C58.4073 47.9795 59.1576 48.4121 59.3516 49.1469C59.5456 49.8766 59.113 50.632 58.3833 50.8259L56.3438 51.3702ZM54.4072 46.3382C54.0037 46.9803 53.1574 47.1709 52.5187 46.7709C51.8766 46.3674 51.6861 45.5193 52.0912 44.8772L53.0303 43.3888C53.4338 42.7518 54.2801 42.5561 54.924 42.9613C55.5609 43.3647 55.7566 44.2077 55.3514 44.8498L54.4072 46.3382ZM55.2004 56.4708C54.5291 56.1206 54.2716 55.2931 54.6218 54.6218C54.972 53.9557 55.7944 53.6964 56.4656 54.0432L58.0279 54.8656C58.6992 55.2158 58.9567 56.0382 58.6065 56.7094C58.2563 57.3807 57.4288 57.6382 56.7626 57.288L55.2004 56.4708ZM37.1997 51.1521L33.6614 52.1015C32.8871 52.311 32.4304 53.1041 32.6399 53.8784L33.7489 58.0297C33.8519 58.4142 34.1043 58.725 34.4305 58.9104H34.4253C34.7515 59.0958 35.1412 59.1593 35.5292 59.0563L39.0624 58.1069L37.1997 51.1521ZM45.3116 43.842L39.6908 49.8474L41.8763 57.9884L49.7461 60.3782L45.3116 43.842ZM8.72479 21.6609C7.96596 21.6609 7.34792 21.048 7.34792 20.2892C7.34792 19.5303 7.96596 18.9174 8.72479 18.9174H21.2368C21.9905 18.9174 22.6086 19.5303 22.6086 20.2892C22.6086 21.048 21.9905 21.6609 21.2368 21.6609H8.72479Z" fill="black"/>
</svg>
