<svg width="80" height="80" viewBox="0 0 80 80" fill="none" xmlns="http://www.w3.org/2000/svg">
<path fill-rule="evenodd" clip-rule="evenodd" d="M23.3929 34.5862C35.5545 34.5862 45.414 44.4456 45.414 56.6073C45.414 68.7689 35.5545 78.6283 23.3929 78.6283C11.2312 78.6283 1.37695 68.7689 1.37695 56.6073C1.37695 44.4456 11.2312 34.5862 23.3929 34.5862Z" fill="#B5B682"/>
<path fill-rule="evenodd" clip-rule="evenodd" d="M17.6113 51.7844L27.4364 46.0762V56.4747V66.8749L17.6113 61.1666V51.7844Z" fill="#68BDC8"/>
<path fill-rule="evenodd" clip-rule="evenodd" d="M12.8619 51.7852H17.6123V61.1673H12.8619C11.3975 61.1673 10.1992 59.9656 10.1992 58.5012V54.453C10.1992 52.9869 11.3958 51.7852 12.8619 51.7852Z" fill="#FBB13C"/>
<path fill-rule="evenodd" clip-rule="evenodd" d="M45.6964 13.5596H62.6032C65.1629 13.5596 67.2505 15.6523 67.2505 18.2069V29.3316C67.2505 31.8861 65.1629 33.9789 62.6032 33.9789H51.3429L45.6981 39.9945V33.9789C43.1435 33.9789 41.0508 31.8861 41.0508 29.3316V18.2069C41.0491 15.6523 43.1418 13.5596 45.6964 13.5596Z" fill="#FBB13C"/>
<path fill-rule="evenodd" clip-rule="evenodd" d="M14.4188 1.37305H31.329C33.8836 1.37305 35.9763 3.4658 35.9763 6.02036V17.1451C35.9763 19.6996 33.8836 21.7924 31.329 21.7924H20.0636L14.4188 27.8079V21.7924C11.8642 21.7924 9.77148 19.6996 9.77148 17.1451V6.02036C9.77148 3.4658 11.8642 1.37305 14.4188 1.37305Z" fill="#FBB13C"/>
<path fill-rule="evenodd" clip-rule="evenodd" d="M56.4796 41.0583H73.3864C75.9461 41.0583 78.0337 43.1511 78.0337 45.7057V56.8304C78.0337 59.3849 75.9461 61.4777 73.3864 61.4777H62.1261L56.4813 67.4933V61.4777C53.9267 61.4777 51.834 59.3849 51.834 56.8304V45.7057C51.8323 43.1511 53.9233 41.0583 56.4796 41.0583Z" fill="#FBB13C"/>
<path d="M58.0854 55.7505C57.3266 55.7505 56.7085 55.1377 56.7085 54.3788C56.7085 53.62 57.3266 53.0071 58.0854 53.0071H70.9183C71.6771 53.0071 72.29 53.62 72.29 54.3788C72.29 55.1377 71.6771 55.7505 70.9183 55.7505H58.0854ZM58.0854 50.2517C57.3266 50.2517 56.7085 49.6388 56.7085 48.88C56.7085 48.1212 57.3266 47.5083 58.0854 47.5083H65.0932C65.8521 47.5083 66.465 48.1212 66.465 48.88C66.465 49.6388 65.8521 50.2517 65.0932 50.2517H58.0854ZM47.2474 27.9285C46.4886 27.9285 45.8705 27.3105 45.8705 26.5568C45.8705 25.798 46.4886 25.1799 47.2474 25.1799H60.0803C60.8391 25.1799 61.452 25.798 61.452 26.5568C61.452 27.3105 60.8391 27.9285 60.0803 27.9285H47.2474ZM47.2474 22.4297C46.4886 22.4297 45.8705 21.8116 45.8705 21.0528C45.8705 20.294 46.4886 19.6811 47.2474 19.6811H54.2552C55.0141 19.6811 55.6269 20.294 55.6269 21.0528C55.6269 21.8116 55.0141 22.4297 54.2552 22.4297H47.2474ZM15.6982 15.4716C14.9445 15.4716 14.3265 14.8587 14.3265 14.0999C14.3265 13.3411 14.9445 12.7282 15.6982 12.7282H28.5362C29.2899 12.7282 29.9079 13.3411 29.9079 14.0999C29.9079 14.8587 29.2899 15.4716 28.5362 15.4716H15.6982ZM15.6982 9.97274C14.9445 9.97274 14.3265 9.35986 14.3265 8.60104C14.3265 7.84223 14.9445 7.22934 15.6982 7.22934H22.7112C23.47 7.22934 24.0829 7.84223 24.0829 8.60104C24.0829 9.35986 23.47 9.97274 22.7112 9.97274H15.6982ZM56.4802 39.6867H73.387C76.7004 39.6867 79.4111 42.3923 79.4111 45.7057V56.8304C79.4111 60.1438 76.7004 62.8494 73.387 62.8494H62.7155L57.4793 68.4306C56.633 69.3354 55.1136 68.7225 55.1136 67.4916H55.1085V62.6932C52.4269 62.0597 50.4612 59.6476 50.4612 56.8287V45.704C50.4595 42.3923 53.1651 39.6867 56.4802 39.6867ZM73.3853 42.4318H56.4785C54.6827 42.4318 53.2029 43.9117 53.2029 45.7074V56.8321C53.2029 58.6279 54.6827 60.1077 56.4785 60.1077C57.2373 60.1077 57.8502 60.7206 57.8502 61.4794V64.0288L61.0623 60.6073C61.3112 60.3 61.6957 60.106 62.1232 60.106H73.3836C75.1844 60.106 76.6592 58.6262 76.6592 56.8304V45.7057C76.6609 43.91 75.1862 42.4318 73.3853 42.4318ZM14.4192 0H31.3294C34.6428 0 37.3484 2.70564 37.3484 6.01901V17.1437C37.3484 20.4571 34.6428 23.1627 31.3294 23.1627H20.658L15.4166 28.744C14.5703 29.6436 13.0509 29.0358 13.0509 27.8049H13.0458V23.0014C10.3642 22.373 8.39846 19.9558 8.39846 17.142V6.0173C8.39846 2.70735 11.1041 0 14.4192 0ZM31.3294 2.74512H14.4192C12.6234 2.74512 11.1436 4.22498 11.1436 6.02073V17.1454C11.1436 18.9412 12.6234 20.4159 14.4192 20.4159C15.178 20.4159 15.796 21.0339 15.796 21.7927V24.3422L19.003 20.9206C19.2554 20.6133 19.6365 20.4142 20.064 20.4142H31.3294C33.1252 20.4142 34.605 18.9395 34.605 17.1437V6.01901C34.605 4.22498 33.1252 2.74512 31.3294 2.74512ZM45.6954 12.1857H62.6022C65.9156 12.1857 68.6264 14.8913 68.6264 18.2047V29.3294C68.6264 32.6428 65.9156 35.3484 62.6022 35.3484H51.929L46.6928 40.9296C45.8413 41.8344 44.3271 41.2215 44.3237 39.9906V35.187C41.6421 34.5587 39.6764 32.1449 39.6764 29.3277V18.203C39.6764 14.8913 42.382 12.1857 45.6954 12.1857ZM62.6022 14.9308H45.6954C43.8945 14.9308 42.4198 16.4107 42.4198 18.2064V29.3311C42.4198 31.1268 43.8945 32.6067 45.6954 32.6067C46.4542 32.6067 47.0671 33.2196 47.0671 33.9784V36.5278L50.274 33.1063C50.5264 32.799 50.911 32.605 51.3402 32.605H62.6005C64.4014 32.605 65.8761 31.1251 65.8761 29.3294V18.2047C65.8761 16.4107 64.4014 14.9308 62.6022 14.9308ZM15.6896 62.5387V67.1379C15.6896 67.8967 15.0716 68.5096 14.3128 68.5096C13.5591 68.5096 12.9411 67.8967 12.9411 67.1379V62.5387C10.62 62.5387 8.82937 60.7326 8.82937 58.4991V54.451C8.82937 52.2277 10.644 50.4114 12.8638 50.4114H17.2484L26.7525 44.8919C27.6727 44.3563 28.8109 45.0327 28.8109 46.0748V66.8753C28.8109 67.8967 27.6864 68.6521 26.6701 68.0083L17.2484 62.5387H15.6896ZM34.3372 58.0339C33.5784 58.0339 32.9655 57.421 32.9655 56.6622C32.9655 55.9033 33.5784 55.2853 34.3372 55.2853H36.5896C37.3433 55.2853 37.9613 55.9033 37.9613 56.6622C37.9613 57.421 37.3433 58.0339 36.5896 58.0339H34.3372ZM33.666 52.3445C33.1114 52.8595 32.2445 52.8217 31.7346 52.2672C31.2196 51.7076 31.2573 50.8406 31.8118 50.3307L33.1938 49.0551C33.7535 48.5401 34.6205 48.5779 35.1304 49.1324C35.642 49.6921 35.6076 50.559 35.0531 51.0689L33.666 52.3445ZM31.8118 62.9919C31.2573 62.4769 31.2178 61.6099 31.7346 61.0554C32.2462 60.4957 33.1114 60.4614 33.666 60.973L35.0531 62.2486C35.6076 62.7601 35.642 63.6305 35.1304 64.1851C34.6188 64.7447 33.7535 64.7791 33.1938 64.2675L31.8118 62.9919ZM16.239 53.1617H12.8621C12.1565 53.1617 11.5728 53.7454 11.5728 54.451V58.4991C11.5728 59.2099 12.1565 59.7884 12.8621 59.7884H16.239V53.1617ZM26.0641 48.4611L18.9841 52.5728V60.379L26.0641 64.4907V48.4611ZM23.3928 33.2144C36.3132 33.2144 46.7856 43.6868 46.7856 56.6072C46.7856 69.5277 36.3132 80 23.3928 80C10.4775 80 0 69.5277 0 56.6072C0 43.6868 10.4775 33.2144 23.3928 33.2144ZM37.9922 42.0078C29.9337 33.9441 16.857 33.9441 8.79332 42.0078C0.73478 50.0715 0.73478 63.143 8.79332 71.2067C16.857 79.2704 29.9337 79.2704 37.9922 71.2067C46.0559 63.143 46.0559 50.0715 37.9922 42.0078Z" fill="black"/>
</svg>
