<svg width="109" height="80" viewBox="0 0 109 80" fill="none" xmlns="http://www.w3.org/2000/svg">
<path fill-rule="evenodd" clip-rule="evenodd" d="M90.4004 64.2238V75.3952C90.4004 76.891 91.6157 78.1297 93.1348 78.1297H104.306C105.802 78.1297 107.041 76.9144 107.041 75.3952V64.2238C107.041 62.728 105.802 61.4893 104.306 61.4893H93.1348C91.6157 61.4893 90.4004 62.728 90.4004 64.2238ZM90.4004 7.43146V18.5796C90.4004 20.0753 91.6157 21.314 93.1348 21.314H104.306C105.802 21.314 107.041 20.0987 107.041 18.5796V7.43146C107.041 5.9357 105.802 4.69702 104.306 4.69702H93.1348C91.6157 4.69702 90.4004 5.91233 90.4004 7.43146ZM90.4004 35.8276V46.9991C90.4004 48.4949 91.6157 49.7335 93.1348 49.7335H104.306C105.802 49.7335 107.041 48.4949 107.041 46.9991V35.8276C107.041 34.3318 105.802 33.0932 104.306 33.0932H93.1348C91.6157 33.0932 90.4004 34.3318 90.4004 35.8276Z" fill="#999999"/>
<path fill-rule="evenodd" clip-rule="evenodd" d="M90.3984 64.2239V75.3954V75.4889H90.4919H101.663C103.159 75.4889 104.398 74.2736 104.398 72.7545V61.583C104.398 61.5596 104.398 61.5129 104.398 61.4895C104.374 61.4895 104.328 61.4895 104.304 61.4895H93.1329C91.6137 61.4895 90.3984 62.7282 90.3984 64.2239ZM90.3984 18.6732H90.4919H101.663C103.159 18.6732 104.398 17.4579 104.398 15.9388V4.76731C104.398 4.74394 104.398 4.6972 104.398 4.67383C104.374 4.67383 104.328 4.67383 104.304 4.67383H93.1329C91.6371 4.67383 90.3984 5.88914 90.3984 7.40827V18.5564V18.6732ZM90.3984 47.0928H90.4919H101.663C103.159 47.0928 104.398 45.8541 104.398 44.3583V33.1868C104.398 33.1635 104.398 33.1167 104.398 33.0933C104.374 33.0933 104.328 33.0933 104.304 33.0933H93.1329C91.6371 33.0933 90.3984 34.3086 90.3984 35.8278V46.9993V47.0928Z" fill="#E6E6E6"/>
<path fill-rule="evenodd" clip-rule="evenodd" d="M59.5495 75.699V1.8457H1.8457V63.546L13.8819 75.5822C29.0967 75.6056 44.3347 75.6523 59.5495 75.699Z" fill="#FDB614"/>
<path fill-rule="evenodd" clip-rule="evenodd" d="M13.8819 75.6056V63.5693C9.88543 63.5693 5.86557 63.5693 1.8457 63.5693L13.8819 75.6056Z" fill="#F6851F"/>
<path fill-rule="evenodd" clip-rule="evenodd" d="M10.8906 10.9141H50.692V22.0855H20.2859L14.4197 27.9517V22.0855H10.8906V10.9141Z" fill="white"/>
<path fill-rule="evenodd" clip-rule="evenodd" d="M56.5588 1.8457V71.9129C42.3257 71.8895 28.1159 71.8428 13.8828 71.8428V75.6056C29.0975 75.6289 44.3356 75.6523 59.5504 75.699V1.8457H56.5588Z" fill="#F6851F"/>
<path d="M50.5054 58.3815C51.5337 58.3815 52.3751 59.2229 52.3751 60.2512C52.3751 61.2796 51.5337 62.1209 50.5054 62.1209H23.792C22.7637 62.1209 21.9223 61.2796 21.9223 60.2512C21.9223 59.2229 22.7637 58.3815 23.792 58.3815H50.5054ZM50.5054 50.1081C51.5337 50.1081 52.3751 50.9495 52.3751 51.9778C52.3751 53.0061 51.5337 53.8475 50.5054 53.8475H10.891C9.86269 53.8475 9.02133 53.0061 9.02133 51.9778C9.02133 50.9495 9.86269 50.1081 10.891 50.1081H50.5054ZM10.891 9.0447H50.5054C51.5337 9.0447 52.3751 9.88607 52.3751 10.9144V22.0158C52.3751 23.0441 51.5337 23.8855 50.5054 23.8855H21.0108L15.7055 29.1908C14.537 30.3593 12.5037 29.518 12.5037 27.8586V23.8855H10.8677C9.83932 23.8855 8.99795 23.0441 8.99795 22.0158V10.9144C9.02133 9.88607 9.86269 9.0447 10.891 9.0447ZM48.6357 12.7841H12.7607V20.1461H14.3967C15.4251 20.1461 16.2664 20.9874 16.2664 22.0158V23.3479L18.9074 20.707C19.2346 20.3564 19.7254 20.1461 20.2396 20.1461H48.6357V12.7841ZM50.5054 42.1852C51.5337 42.1852 52.3751 43.0266 52.3751 44.0549C52.3751 45.0833 51.5337 45.9246 50.5054 45.9246H10.891C9.86269 45.9246 9.02133 45.0833 9.02133 44.0549C9.02133 43.0266 9.86269 42.1852 10.891 42.1852H50.5054ZM50.5054 33.9351C51.5337 33.9351 52.3751 34.7765 52.3751 35.8049C52.3751 36.8332 51.5337 37.6746 50.5054 37.6746H10.891C9.86269 37.6746 9.02133 36.8332 9.02133 35.8049C9.02133 34.7765 9.86269 33.9351 10.891 33.9351H50.5054ZM12.0129 71.0955V65.4397C10.5872 65.4397 11.3117 65.4397 12.0129 65.4397H6.357L12.0129 71.0955ZM15.7523 63.57V73.7365L57.6804 73.8066V3.71604H3.71604V61.7003H13.8826C14.9109 61.7003 15.7523 62.5416 15.7523 63.57ZM14.0462 77.4759C13.5086 77.5226 12.9711 77.3357 12.5738 76.9384L0.53754 64.9021C0.163599 64.5282 0 64.0608 0 63.57V1.8697C0 0.841367 0.841367 0 1.8697 0H59.5735C60.6018 0 61.4432 0.841367 61.4432 1.8697V75.6997C61.4432 76.728 60.6018 77.5694 59.5735 77.5694L14.0462 77.4759ZM66.3745 43.2837C65.3462 43.2837 64.5048 42.4423 64.5048 41.414C64.5048 40.3856 65.3462 39.5443 66.3745 39.5443H72.3809V13.2515C72.3809 12.2232 73.2223 11.3818 74.2506 11.3818H82.8279C83.8563 11.3818 84.6976 12.2232 84.6976 13.2515C84.6976 14.2799 83.8563 15.1212 82.8279 15.1212H76.1204V39.5443H82.8279C83.8563 39.5443 84.6976 40.3856 84.6976 41.414C84.6976 42.4423 83.8563 43.2837 82.8279 43.2837H76.1204V67.7067H82.8279C83.8563 67.7067 84.6976 68.5481 84.6976 69.5764C84.6976 70.6047 83.8563 71.4461 82.8279 71.4461H74.2506C73.2223 71.4461 72.3809 70.6047 72.3809 69.5764V43.2837H66.3745ZM92.2699 7.43208V18.5802C92.2699 19.0476 92.6672 19.4449 93.1347 19.4449H104.306C104.774 19.4449 105.171 19.0476 105.171 18.5802V7.43208C105.171 6.96465 104.774 6.56734 104.306 6.56734H93.1347C92.6439 6.56734 92.2699 6.96465 92.2699 7.43208ZM88.5305 18.5802V7.43208C88.5305 4.8846 90.5872 2.82793 93.1347 2.82793H104.306C106.83 2.82793 108.91 4.8846 108.91 7.43208V18.5802C108.91 21.1277 106.854 23.1843 104.306 23.1843H93.1347C90.5872 23.1843 88.5305 21.1277 88.5305 18.5802ZM92.2699 64.2244V75.3959C92.2699 75.8633 92.6672 76.2606 93.1347 76.2606H104.306C104.774 76.2606 105.171 75.8633 105.171 75.3959V64.2244C105.171 63.7569 104.774 63.3596 104.306 63.3596H93.1347C92.6439 63.3596 92.2699 63.7569 92.2699 64.2244ZM88.5305 75.3959V64.2244C88.5305 61.7003 90.5872 59.6202 93.1347 59.6202H104.306C106.83 59.6202 108.91 61.6769 108.91 64.2244V75.3959C108.91 77.92 106.854 80 104.306 80H93.1347C90.5872 80 88.5305 77.92 88.5305 75.3959ZM92.2699 35.8282V46.9997C92.2699 47.4671 92.6672 47.8644 93.1347 47.8644H104.306C104.774 47.8644 105.171 47.4905 105.171 46.9997V35.8282C105.171 35.3608 104.774 34.9635 104.306 34.9635H93.1347C92.6439 34.9635 92.2699 35.3608 92.2699 35.8282ZM88.5305 46.9997V35.8282C88.5305 33.2807 90.5872 31.2241 93.1347 31.2241H104.306C106.83 31.2241 108.91 33.2807 108.91 35.8282V46.9997C108.91 49.5238 106.854 51.6039 104.306 51.6039H93.1347C90.5872 51.5805 88.5305 49.5238 88.5305 46.9997Z" fill="black"/>
</svg>
