<svg width="70" height="80" viewBox="0 0 70 80" fill="none" xmlns="http://www.w3.org/2000/svg">
<path fill-rule="evenodd" clip-rule="evenodd" d="M67.9694 24.8721V47.9599C67.9694 49.4705 66.5618 50.7236 64.8281 50.7236H29.5011C27.7845 50.7236 26.377 49.4877 26.377 47.9599V24.8721H67.9694Z" fill="#E6E6E6"/>
<path fill-rule="evenodd" clip-rule="evenodd" d="M15.6988 40.3036C20.5052 31.9782 31.1479 29.1287 39.4733 33.9351C45.1894 37.2309 47.8501 43.977 50.5451 49.6761L41.2757 65.726C34.9587 66.2409 27.8349 67.3911 22.0673 64.0781C13.7419 59.2717 10.8924 48.6118 15.6988 40.3036Z" fill="#FCB13B"/>
<path fill-rule="evenodd" clip-rule="evenodd" d="M45.3785 39.7204C47.4728 42.8274 49.0005 46.415 50.5282 49.6765L41.2588 65.7264C34.959 66.2414 27.8695 67.3743 22.119 64.1128C18.8575 58.8258 18.5142 51.9767 21.8272 46.2262C26.6164 37.9866 37.0875 35.1028 45.3785 39.7204Z" fill="#FBCC5D"/>
<path fill-rule="evenodd" clip-rule="evenodd" d="M49.6016 69.7431L55.1632 70.7044C57.4463 71.0992 59.0942 70.6357 59.8152 69.3826L62.9565 63.9583C63.6774 62.7223 63.2483 61.0573 61.772 59.272L58.1501 54.9463L49.6016 69.7431Z" fill="#506E7A"/>
<path fill-rule="evenodd" clip-rule="evenodd" d="M40.8292 66.4986L50.9569 48.9553C52.7936 45.7797 60.7757 50.3972 58.939 53.5729L48.8112 71.1162C46.9745 74.2919 38.9924 69.6743 40.8292 66.4986Z" fill="#506E7A"/>
<path d="M38.5975 47.0844C38.2198 47.7367 37.3787 47.9598 36.7264 47.5822C36.0741 47.2046 35.8509 46.3634 36.2286 45.7111C36.8294 44.6812 36.4689 43.3594 35.4218 42.7243C33.7052 41.6944 32.4521 42.9303 32.2633 44.3894C32.1432 45.2133 32.4178 46.0544 33.2246 46.5008L46.5452 53.8648L49.017 49.5906C46.4937 44.1834 43.9188 38.0552 38.8034 35.1027C31.1475 30.674 21.3288 33.3003 16.9 40.9734L16.8828 40.9906C12.4884 48.6465 15.0633 58.3794 22.7707 62.8768C27.5084 65.6062 33.4649 65.0569 39.0094 64.5419L40.4513 64.4046L42.5456 60.7826L29.2936 53.4185C26.2725 51.7363 24.9336 55.9419 27.2509 57.2808C28.2294 57.8473 29.4996 57.3495 30.0489 56.3882C30.4266 55.7359 31.2677 55.5127 31.92 55.8904C32.5723 56.268 32.7954 57.1092 32.4178 57.7615C31.0617 60.1132 27.9376 61.0401 25.6374 59.5124C22.3587 57.3495 22.7707 52.8349 25.4657 51.0153C26.8046 50.1227 28.607 49.9167 30.5982 51.0153L43.9016 58.3966L45.1547 56.2165L31.8857 48.8696C28.5727 47.0329 28.9332 42.5183 31.4737 40.5099C32.8126 39.48 34.6322 39.1367 36.6749 40.2868C39.0781 41.5914 39.9879 44.6812 38.5975 47.0844ZM50.8538 47.1187C52.5703 46.003 55.2997 46.6381 57.0849 47.7539C57.926 48.286 58.4753 48.6808 59.1276 49.3674H64.8438C65.7192 49.3674 66.5947 48.801 66.5947 47.977V26.2452H27.7487V30.468C31.8685 29.7985 36.2458 30.4852 40.1595 32.7339C45.5839 35.8752 48.3476 41.7115 50.8538 47.1187ZM60.5695 52.0968C60.724 53.2297 60.3464 53.8648 59.8143 54.7918L62.8182 58.3966C64.346 60.2333 65.3244 62.5678 64.14 64.6449L60.9987 70.0693C59.8142 72.1291 57.2909 72.4553 54.9392 72.0433L50.3045 71.2537L49.9955 71.7858C48.5192 74.3607 45.0689 73.7084 42.7516 72.3523C40.9148 71.288 39.0266 69.3655 39.1639 67.2712C33.2074 67.8205 26.839 68.387 21.3631 65.2457C12.3683 60.0788 9.29561 48.4576 14.4968 39.6001C16.9172 35.4117 20.7108 32.4935 24.9851 31.1203V18.5722L23.3543 12.4955C23.1655 11.7574 23.5946 11.0193 24.3328 10.8133L64.5005 0.0503857C65.2386 -0.155603 65.9767 0.290705 66.1827 1.01166L67.865 7.25998C68.0709 7.9981 67.6246 8.73623 66.9037 8.94222L36.7951 17.0101H67.968C68.7232 17.0101 69.3412 17.6281 69.3412 18.3833V47.9427C69.3412 50.3115 67.2127 52.0796 64.8438 52.0796H60.5695V52.0968ZM52.1412 49.6421L42.0134 67.1854C41.5156 68.0609 43.215 69.4685 44.142 70.0006C44.6054 70.2581 45.1033 70.4812 45.5839 70.6186C46.5108 70.8932 47.352 70.8932 47.6438 70.4126L56.9819 54.2425L57.7715 52.8692C58.3037 51.9594 56.3811 50.4489 55.7288 50.0884C55.1795 49.7794 54.8019 49.5906 54.2182 49.4189C53.2741 49.1614 52.4158 49.1443 52.1412 49.6421ZM1.03891 43.6684C0.300789 43.4968 -0.145519 42.7415 0.043304 42.0205C0.214961 41.2824 0.970252 40.8361 1.70838 41.0249L7.95669 42.5526C8.69481 42.7415 9.14112 43.4796 8.9523 44.2177C8.78064 44.9558 8.02535 45.4022 7.28723 45.2133L1.03891 43.6684ZM24.6761 78.9611C24.5044 79.6992 23.7491 80.1455 23.011 79.9567C22.2729 79.7679 21.8266 79.0298 22.0154 78.3088L23.5603 72.0605C23.732 71.3224 24.4873 70.876 25.2254 71.0477C25.9635 71.2365 26.4098 71.9746 26.221 72.7128L24.6761 78.9611ZM5.53633 66.207C4.88403 66.6018 4.04291 66.3786 3.66527 65.7435C3.27045 65.0912 3.47644 64.2501 4.12874 63.8553L9.63893 60.5251C10.2912 60.1303 11.1323 60.3363 11.5272 60.9886C11.922 61.6409 11.6988 62.482 11.0637 62.8768L5.53633 66.207ZM13.793 24.5458C13.3982 23.8935 13.6042 23.0524 14.2565 22.6576C14.9088 22.2628 15.7499 22.4859 16.1447 23.1211L19.4749 28.6313C19.8697 29.2836 19.6465 30.1247 19.0114 30.5195C18.3591 30.9143 17.518 30.6912 17.1232 30.056L13.793 24.5458ZM51.7635 68.7303L55.3855 69.3483C56.5013 69.5371 58.0977 69.5886 58.6298 68.696L61.7711 63.2716C62.2689 62.3962 61.4278 61.0058 60.7069 60.1475L58.3552 57.3323L51.7635 68.7303ZM54.922 23.4987C55.1108 23.2756 59.0761 20.2201 59.6426 19.7738H53.0853L48.3304 23.4987H54.922ZM64.0713 19.7738L64.0027 19.8424L59.3164 23.4987H66.5947V19.7738H64.0713ZM43.9188 23.4987C44.1248 23.2756 48.0729 20.2201 48.6565 19.7738H42.0993L37.3444 23.4987H43.9188ZM32.9328 23.4987C33.1216 23.2756 37.0869 20.2201 37.6705 19.7738H27.7659V23.4987H32.9328ZM53.154 5.97255C53.1368 5.97255 53.1196 5.95538 53.1025 5.95538L46.7168 7.67195L52.1583 10.0752L58.544 8.35858L53.154 5.97255ZM57.3424 4.82245L62.7839 7.22565L64.861 6.65918L63.8997 3.05438L57.3424 4.82245ZM42.5456 8.82206C42.5284 8.82206 42.5112 8.80489 42.4941 8.80489L36.1084 10.5215L41.55 12.9247L47.9356 11.2081L42.5456 8.82206ZM31.92 11.6716C31.9028 11.6544 31.8857 11.6544 31.8685 11.6544L26.3755 13.1306L27.3368 16.7354L37.3272 14.0576L31.92 11.6716Z" fill="black"/>
</svg>
