<svg width="1920" height="471" viewBox="0 0 1920 471" fill="none" xmlns="http://www.w3.org/2000/svg">
<mask id="mask0_511_874" style="mask-type:alpha" maskUnits="userSpaceOnUse" x="0" y="0" width="1920" height="471">
<path d="M116.713 22.1685C82.1497 22.1685 0 2.96188 0 2.96188L0.00015 471H1920V0.124529C1920 0.124529 1881.43 -1.18781 1847.37 4.708C1813.31 10.6038 1792.77 22.1685 1740.17 22.1685C1687.58 22.1685 1642.82 -0.134223 1575.87 0.124529C1510.79 0.376068 1482.16 21.9662 1417.08 22.1685C1350.51 22.3755 1321.36 0.124529 1254.79 0.124529C1189.17 0.124529 1156.56 21.6331 1091.49 22.1685C1022.31 22.7378 995.834 -1.02804 926.689 0.124529C865.368 1.1467 840.286 22.1685 778.92 22.1685C706.788 22.1685 678.057 0.245887 609.611 0.124529C540.229 0.00151034 515.671 22.9895 446.314 22.1685C382.744 21.4161 357.6 0.964943 294.036 0.124529C223.935 -0.802314 186.846 22.1685 116.713 22.1685Z" fill="#3256D2"/>
</mask>
<g mask="url(#mask0_511_874)">
<g opacity="0.04">
<path d="M103.443 483.303H0L157.617 26.1185H282.017L439.411 483.303H335.968L221.601 130.592H218.034L103.443 483.303ZM96.9781 303.599H341.318V379.052H96.9781V303.599Z" fill="#FEF6E0"/>
<path d="M571.948 140.415L634.817 260.292L699.246 140.415H796.67L697.462 311.859L799.345 483.303H702.367L634.817 364.765L568.381 483.303H470.288L571.948 311.859L473.855 140.415H571.948Z" fill="#FEF6E0"/>
<path d="M853.073 483.303V140.415H948.045V483.303H853.073ZM900.782 96.2141C886.663 96.2141 874.55 91.5262 864.443 82.1503C854.485 72.6257 849.506 61.2407 849.506 47.9954C849.506 34.899 854.485 23.6629 864.443 14.287C874.55 4.76235 886.663 0 900.782 0C914.901 0 926.94 4.76235 936.898 14.287C947.004 23.6629 952.058 34.899 952.058 47.9954C952.058 61.2407 947.004 72.6257 936.898 82.1503C926.94 91.5262 914.901 96.2141 900.782 96.2141Z" fill="#FEF6E0"/>
<path d="M1024.12 483.303V140.415H1114.64V200.911H1118.65C1125.78 180.82 1137.67 164.97 1154.32 153.362C1170.96 141.754 1190.88 135.95 1214.07 135.95C1237.55 135.95 1257.54 141.828 1274.04 153.585C1290.53 165.194 1301.53 180.969 1307.03 200.911H1310.6C1317.58 181.267 1330.22 165.566 1348.5 153.809C1366.93 141.903 1388.7 135.95 1413.82 135.95C1445.77 135.95 1471.71 146.144 1491.62 166.533C1511.69 186.773 1521.72 215.496 1521.72 252.702V483.303H1426.97V271.453C1426.97 252.404 1421.92 238.117 1411.81 228.592C1401.71 219.068 1389.07 214.305 1373.91 214.305C1356.67 214.305 1343.22 219.812 1333.56 230.825C1323.9 241.689 1319.07 256.05 1319.07 273.909V483.303H1227V269.444C1227 252.627 1222.17 239.233 1212.51 229.262C1202.99 219.291 1190.43 214.305 1174.83 214.305C1164.28 214.305 1154.76 216.984 1146.29 222.342C1137.97 227.551 1131.36 234.917 1126.45 244.442C1121.55 253.818 1119.09 264.831 1119.09 277.481V483.303H1024.12Z" fill="#FEF6E0"/>
<path d="M1751.46 490C1716.83 490 1686.88 482.633 1661.61 467.9C1636.5 453.017 1617.1 432.331 1603.43 405.841C1589.75 379.201 1582.92 348.32 1582.92 313.198C1582.92 277.778 1589.75 246.823 1603.43 220.333C1617.1 193.693 1636.5 173.007 1661.61 158.273C1686.88 143.391 1716.83 135.95 1751.46 135.95C1786.09 135.95 1815.96 143.391 1841.08 158.273C1866.35 173.007 1885.82 193.693 1899.49 220.333C1913.16 246.823 1920 277.778 1920 313.198C1920 348.32 1913.16 379.201 1899.49 405.841C1885.82 432.331 1866.35 453.017 1841.08 467.9C1815.96 482.633 1786.09 490 1751.46 490ZM1751.9 416.333C1767.66 416.333 1780.81 411.868 1791.36 402.939C1801.92 393.86 1809.87 381.508 1815.22 365.882C1820.72 350.255 1823.47 332.471 1823.47 312.529C1823.47 292.586 1820.72 274.802 1815.22 259.175C1809.87 243.549 1801.92 231.197 1791.36 222.118C1780.81 213.04 1767.66 208.501 1751.9 208.501C1736 208.501 1722.63 213.04 1711.78 222.118C1701.07 231.197 1692.97 243.549 1687.48 259.175C1682.12 274.802 1679.45 292.586 1679.45 312.529C1679.45 332.471 1682.12 350.255 1687.48 365.882C1692.97 381.508 1701.07 393.86 1711.78 402.939C1722.63 411.868 1736 416.333 1751.9 416.333Z" fill="#FEF6E0"/>
</g>
</g>
</svg>
