<svg width="1920" height="328" viewBox="0 0 1920 328" fill="none" xmlns="http://www.w3.org/2000/svg">
<path d="M116.713 50.7853C82.1497 50.7853 0 6.78528 0 6.78528L0.00015 328H1920V0.285281C1920 0.285281 1881.43 -2.72113 1847.37 10.7854C1813.31 24.292 1792.77 50.7853 1740.17 50.7853C1687.58 50.7853 1642.82 -0.307488 1575.87 0.285281C1510.79 0.861523 1482.16 50.3217 1417.08 50.7853C1350.51 51.2595 1321.36 0.285281 1254.79 0.285281C1189.17 0.285281 1156.56 49.5587 1091.49 50.7853C1022.31 52.0894 995.834 -2.35512 926.689 0.285281C865.368 2.62693 840.286 50.7853 778.92 50.7853C706.788 50.7853 678.057 0.563295 609.611 0.285281C540.229 0.00345999 515.671 52.6659 446.314 50.7853C382.744 49.0616 357.6 2.21056 294.036 0.285281C223.935 -1.838 186.846 50.7853 116.713 50.7853Z" fill="#3256D2"/>
</svg>
