<svg width="284" height="153" viewBox="0 0 284 153" fill="none" xmlns="http://www.w3.org/2000/svg">
<path d="M282.178 2.1742C282.178 2.1742 282.404 55.3244 256.084 80.0177C229.764 104.711 153.034 116.978 130.403 78.0875C124.438 67.8356 121.711 52.3219 129.755 44.9578C138.828 36.6508 154.328 42.687 160.749 53.1796C169.729 67.8545 166.255 93.3576 145.375 121.26C103.709 176.941 2.31356 131.125 2.31356 131.125M2.31356 131.125C2.31356 131.125 9.28285 135.93 12.7177 139.886C15.528 143.123 14.4657 150.537 14.4657 150.537M2.31356 131.125C6.33407 131.02 11.0337 132.731 15.886 130.588C19.2985 129.08 20.089 127.879 23.3299 124.601" stroke="#BFF747" stroke-width="3" stroke-linecap="round"/>
</svg>
