<svg width="446" height="327" viewBox="0 0 446 327" fill="none" xmlns="http://www.w3.org/2000/svg">
<path d="M361.429 212.737C361.429 212.737 193.747 280.102 161.198 207.362C146.344 174.168 157.667 143.047 193.407 129.168C201.749 125.928 210.403 127.261 215.701 134.475C223.266 144.775 211.462 161.204 198.744 162.465C171.605 165.156 126.235 140.49 109.068 108.362C88.8952 70.6066 99.769 10.8043 99.769 10.8043" stroke="black" stroke-width="3" stroke-linecap="round"/>
<path d="M423.615 172.915L348.908 177.399L367.174 200.67L385.441 223.941L423.615 172.915Z" fill="#EAFE07"/>
<path d="M363.616 212.678L366.91 199.809L374.282 208.65L363.616 212.678Z" fill="#EAFE07"/>
<path d="M349.001 176.883C348.224 176.947 347.456 177.084 346.705 177.292C346.474 177.339 346.258 177.441 346.074 177.589C345.89 177.736 345.745 177.926 345.649 178.142C345.506 178.545 345.612 179.016 345.963 179.539C346.26 179.952 346.597 180.336 346.968 180.684C347.25 180.963 347.541 181.234 347.831 181.505C348.248 181.893 348.678 182.292 349.067 182.711C354.339 188.386 359.162 193.457 364.725 198C364.65 198.223 364.575 198.445 364.499 198.667C364.285 199.292 364.065 199.938 363.89 200.588C363.625 201.569 363.358 202.55 363.089 203.531C362.238 206.642 361.358 209.859 360.613 213.055C360.345 214.207 360.535 215.134 361.149 215.663C361.795 216.219 362.803 216.266 363.99 215.794C364.418 215.623 364.863 215.423 365.352 215.179C367.495 214.112 369.636 213.041 371.798 211.96L373.758 210.98C373.767 210.993 373.776 211.005 373.785 211.017L374.91 212.671C376.192 214.554 377.517 216.5 378.803 218.426C379.17 218.974 379.54 219.52 379.913 220.065C381.05 221.732 382.226 223.456 383.221 225.232C383.749 226.173 384.362 226.713 385.212 226.94C385.58 227.033 385.958 227.077 386.338 227.07C387.668 227.064 388.672 226.519 389.591 225.306C393.055 220.734 396.589 216.094 400.006 211.608C402.813 207.923 405.618 204.237 408.421 200.549C414.453 192.637 420.037 184.393 425.146 175.854C425.752 174.868 426.271 173.829 426.696 172.752C426.807 172.506 426.862 172.238 426.857 171.967C426.851 171.697 426.784 171.432 426.663 171.191C426.504 170.945 426.292 170.738 426.043 170.585C425.794 170.432 425.514 170.337 425.223 170.307C424.842 170.253 424.456 170.237 424.072 170.262L424.02 170.264C423.165 170.288 422.309 170.306 421.454 170.323C419.466 170.363 417.41 170.405 415.39 170.539C400.802 171.512 385.915 172.838 371.144 174.481C366.884 174.954 362.55 175.421 358.359 175.872C355.239 176.206 352.119 176.543 349.001 176.883ZM370.686 197.744C371.587 197.325 372.441 196.929 373.304 196.573C376.687 195.177 380.072 193.784 383.458 192.396C390.114 189.663 396.996 186.837 403.745 184.008C405.808 183.144 407.829 182.093 409.782 181.079C410.452 180.731 411.123 180.381 411.796 180.039C412.333 179.767 413.231 179.31 413.17 177.933C413.168 177.888 413.157 177.843 413.137 177.803C413.117 177.763 413.09 177.727 413.055 177.698C413.021 177.669 412.981 177.647 412.938 177.635C412.895 177.622 412.85 177.618 412.805 177.623C412.619 177.646 412.441 177.663 412.27 177.677C411.915 177.702 411.562 177.751 411.215 177.826C399.329 180.694 388.321 185.68 377.677 190.503C375.269 191.594 372.962 192.766 370.521 194.005C369.485 194.532 368.439 195.059 367.384 195.588L350.754 179.803C350.884 179.764 351.018 179.735 351.154 179.719C354.6 179.376 358.047 179.028 361.494 178.676C369.931 177.82 378.658 176.935 387.247 176.17C394.896 175.488 402.686 174.93 410.22 174.39C412.725 174.211 415.23 174.03 417.735 173.847C418.705 173.776 419.666 173.774 420.684 173.772C420.953 173.772 421.224 173.771 421.496 173.77C414.425 184.882 406.363 195.48 398.561 205.734C394.462 211.123 390.227 216.691 386.158 222.299C381.059 215.305 376.236 208.063 371.57 201.056C370.94 200.108 370.309 199.161 369.675 198.212C370.02 198.052 370.356 197.896 370.685 197.744L370.686 197.744ZM371.822 207.97L364.97 211.216L367.292 200.778L371.822 207.97Z" fill="black"/>
</svg>
