<svg width="504" height="454" viewBox="0 0 504 454" fill="none" xmlns="http://www.w3.org/2000/svg">
<path d="M359.5 324.5C359.5 324.5 170.805 348.15 154.745 258.344C147.416 217.362 168.595 185.917 212.135 180.374C222.299 179.08 231.545 182.952 235.437 192.43C240.996 205.964 223.341 220.954 208.863 218.841C177.969 214.33 134.381 174.39 124.188 133.953C112.209 86.4333 140.816 22.9998 140.816 22.9998" stroke="black" stroke-width="4" stroke-linecap="round"/>
<path d="M426.203 300.706L373.988 318.917L368.098 321.216L431.822 316.839L434.808 327.619L457.973 301.064L424.474 285.498L426.203 300.706Z" fill="#EAFE07"/>
<path fill-rule="evenodd" clip-rule="evenodd" d="M455.6 296.377C451.538 294.668 443.538 290.432 436.113 286.852C422.621 280.32 423.519 280.663 422.544 282.235C421.091 284.578 421.78 290.554 424.264 297.216L424.804 298.617C410.479 302.239 407.177 303.435 387.498 309.839C363.956 317.519 361.798 320.448 354.428 322.834C349.259 324.494 352.466 328.062 358.095 326.901C365.633 325.345 381.332 323.429 393.613 322.552C396.857 322.345 429.936 319.385 429.936 319.385C432.379 330.034 432.48 331.249 434.27 331.804C434.982 332.032 435.208 331.873 436.29 330.197C439.713 325.022 453.644 310.955 458.458 304.295C462.199 299.018 460.101 298.272 455.6 296.377ZM454.538 302.632C450.272 306.345 440.225 317.315 436.834 321.956L434.841 324.689C434.182 316.598 434.443 314.113 426.506 314.867C416.762 315.782 387.12 318.226 384.279 318.471C375.608 319.239 375.608 319.239 381.296 317.431C393.321 313.664 424.086 303.422 426.88 302.978C427.278 302.542 430.642 304.757 427.48 294.302C426.589 291.402 426.02 289.086 426.212 289.12C426.913 289.298 446.32 298.816 452.637 301.154C454.982 302.054 455.105 302.13 454.538 302.632Z" fill="black"/>
</svg>
