<svg width="178" height="234" viewBox="0 0 178 234" fill="none" xmlns="http://www.w3.org/2000/svg">
<path d="M145.735 101.983C129.262 108.873 110.526 107.931 94 99.5C78 91.3367 73.5 70.9037 84 59.5C94.9259 47.6338 109.573 52.216 122 62.5C135.019 73.2742 142.984 87.2853 145.735 101.983C149.113 120.026 144.633 139.104 132 154.5C121.308 167.531 107.923 175.217 93.2954 177.575C81.5794 179.465 69.066 177.937 56.5 173C42.5 167.5 31.3668 151.461 40 138.5C48.0102 126.474 64.5 130 73.5 138.5C84.9504 149.314 91.7856 163.263 93.2954 177.575C107.923 175.217 121.308 167.531 132 154.5C144.633 139.104 149.113 120.026 145.735 101.983Z" fill="#EAFE07"/>
<path d="M160.5 2C160.5 2 189.877 61.9619 167.5 86.5C147.859 108.038 118.5 112 94 99.5C78 91.3367 73.5 70.9037 84 59.5C94.9259 47.6338 109.573 52.216 122 62.5C151 86.5 154.925 126.562 132 154.5C112.744 177.968 84.7547 184.1 56.5 173C42.5 167.5 31.3668 151.461 40 138.5C48.0102 126.474 64.5 130 73.5 138.5C96.4542 160.179 100.862 194.456 81 219C60.8698 243.876 2 225.5 2 225.5" stroke="black" stroke-width="3" stroke-linecap="round"/>
</svg>
