<svg width="35" height="35" viewBox="0 0 35 35" fill="none" xmlns="http://www.w3.org/2000/svg">
<path d="M33.0556 15.5556H24.7567L31.9444 11.4056C32.3909 11.1477 32.7166 10.7231 32.8501 10.2251C32.9835 9.72714 32.9138 9.19655 32.6561 8.75C32.3983 8.30357 31.9737 7.97781 31.4757 7.84435C30.9777 7.7109 30.4471 7.78067 30.0006 8.03833L22.8122 12.1878L26.9617 5C27.2193 4.55345 27.2891 4.02286 27.1556 3.52488C27.0222 3.0269 26.6964 2.6023 26.25 2.34444C25.8035 2.08656 25.2728 2.0166 24.7747 2.14996C24.2766 2.28332 23.8518 2.60906 23.5939 3.05556L19.4444 10.2433V1.94444C19.4444 1.42875 19.2396 0.934169 18.8749 0.569515C18.5103 0.204861 18.0157 0 17.5 0C16.9843 0 16.4897 0.204861 16.1251 0.569515C15.7604 0.934169 15.5556 1.42875 15.5556 1.94444V10.2433L11.4061 3.05556C11.1483 2.60912 10.7237 2.28336 10.2257 2.14991C9.7277 2.01645 9.1971 2.08623 8.75056 2.34389C8.52938 2.47152 8.33551 2.64147 8.18002 2.84403C8.02453 3.04658 7.91046 3.27779 7.84432 3.52443C7.77819 3.77108 7.76128 4.02833 7.79457 4.28151C7.82786 4.53469 7.91069 4.77883 8.03833 5L12.1872 12.1872L5 8.03833C4.55345 7.78067 4.02286 7.7109 3.52488 7.84435C3.0269 7.97781 2.6023 8.30357 2.34444 8.75C2.08674 9.19648 2.01688 9.72703 2.15023 10.225C2.28357 10.723 2.60921 11.1476 3.05556 11.4056L10.2433 15.5556H1.94444C1.42875 15.5556 0.934169 15.7604 0.569515 16.1251C0.204861 16.4897 0 16.9843 0 17.5C0 18.0157 0.204861 18.5103 0.569515 18.8749C0.934169 19.2396 1.42875 19.4444 1.94444 19.4444H10.2433L3.05556 23.5944C2.60921 23.8524 2.28357 24.277 2.15023 24.775C2.01688 25.273 2.08674 25.8035 2.34444 26.25C2.6023 26.6964 3.0269 27.0222 3.52488 27.1556C4.02286 27.2891 4.55345 27.2193 5 26.9617L12.1872 22.8128L8.03833 30C7.78067 30.4465 7.7109 30.9771 7.84435 31.4751C7.97781 31.9731 8.30357 32.3977 8.75 32.6556C9.19653 32.9134 9.72721 32.9834 10.2253 32.85C10.7234 32.7167 11.1482 32.3909 11.4061 31.9444L15.5556 24.7572V33.0556C15.5556 33.5713 15.7604 34.0658 16.1251 34.4305C16.4897 34.7951 16.9843 35 17.5 35C18.0157 35 18.5103 34.7951 18.8749 34.4305C19.2396 34.0658 19.4444 33.5713 19.4444 33.0556V24.7572L23.5939 31.9444C23.8517 32.3909 24.2763 32.7166 24.7743 32.8501C25.2723 32.9835 25.8029 32.9138 26.2494 32.6561C26.6959 32.3983 27.0216 31.9737 27.1551 31.4757C27.2885 30.9777 27.2188 30.4471 26.9611 30.0006L22.8122 22.8128L30 26.9617C30.4465 27.2193 30.9771 27.2891 31.4751 27.1556C31.9731 27.0222 32.3977 26.6964 32.6556 26.25C32.9133 25.8035 32.9831 25.273 32.8498 24.775C32.7164 24.277 32.3908 23.8524 31.9444 23.5944L24.7567 19.4444H33.0556C33.5713 19.4444 34.0658 19.2396 34.4305 18.8749C34.7951 18.5103 35 18.0157 35 17.5C35 16.9843 34.7951 16.4897 34.4305 16.1251C34.0658 15.7604 33.5713 15.5556 33.0556 15.5556Z" fill="#FEF6E0"/>
</svg>
