<svg width="1822" height="15" viewBox="0 0 1822 15" fill="none" xmlns="http://www.w3.org/2000/svg">
<path d="M1 1.31708C1 1.31708 14.1631 13.4432 24.1944 13.8159C34.9743 14.2163 38.713 1.12402 49.4974 1.31708C59.9059 1.5034 63.3363 13.8159 73.7461 13.8159C84.156 13.8159 87.5915 0.901291 97.9948 1.31708C107.656 1.70319 110.474 13.4297 120.135 13.8159C130.538 14.2316 133.974 1.31708 144.384 1.31708C154.793 1.31708 158.223 13.9141 168.632 13.8159C178.855 13.7193 182.131 1.31708 192.354 1.31708C202.577 1.31708 205.853 13.7193 216.075 13.8159C226.485 13.9141 229.915 1.21879 240.324 1.31708C250.547 1.41361 253.823 13.8159 264.046 13.8159C274.269 13.8159 277.545 1.41361 287.767 1.31708C298.177 1.21879 301.607 13.9141 312.016 13.8159C322.239 13.7193 325.515 1.21696 335.738 1.31708C345.774 1.41537 348.896 13.7176 358.932 13.8159C369.155 13.916 372.431 1.31708 382.654 1.31708C392.876 1.31708 396.155 13.5364 406.375 13.8159C417.158 14.1107 420.895 1.0222 431.678 1.31708C441.898 1.59657 445.177 13.8159 455.4 13.8159C465.623 13.8159 468.899 1.21696 479.121 1.31708C489.158 1.41537 492.279 13.7176 502.316 13.8159C512.538 13.916 515.818 1.00524 526.037 1.31708C535.7 1.61195 538.523 13.2569 548.177 13.8159C558.949 14.4395 562.698 1.0222 573.48 1.31708C583.7 1.59657 586.979 13.916 597.202 13.8159C607.238 13.7176 610.365 1.68973 620.396 1.31708C631.176 0.916616 634.919 14.2163 645.699 13.8159C655.731 13.4432 658.858 1.51013 668.894 1.31708C679.302 1.11685 682.733 13.9141 693.142 13.8159C703.365 13.7193 706.641 1.41361 716.864 1.31708C727.273 1.21879 730.704 14.0161 741.113 13.8159C751.148 13.6228 754.271 1.41537 764.307 1.31708C774.53 1.21696 777.806 13.916 788.029 13.8159C798.065 13.7176 801.186 1.31708 811.223 1.31708C821.26 1.31708 824.384 13.5314 834.417 13.8159C845.011 14.1162 848.596 1.22055 859.193 1.31708C869.603 1.4119 873.032 13.8159 883.442 13.8159C893.852 13.8159 897.281 1.21879 907.691 1.31708C917.913 1.41361 921.191 14.0199 931.412 13.8159C941.262 13.6193 944.237 1.78289 954.079 1.31708C964.856 0.807081 968.6 14.1107 979.382 13.8159C989.602 13.5364 992.888 0.893237 1003.1 1.31708C1012.58 1.71025 1015.24 13.4227 1024.72 13.8159C1034.93 14.2397 1038.22 1.68332 1048.44 1.31708C1059.41 0.923909 1063.3 14.3164 1074.27 13.8159C1084.3 13.3581 1087.43 1.10918 1097.46 1.31708C1107.13 1.51731 1109.96 13.0958 1119.6 13.8159C1130.74 14.6474 1134.81 0.603082 1145.96 1.31708C1155.8 1.94712 1158.78 13.8159 1168.63 13.8159C1178.48 13.8159 1181.45 1.78289 1191.3 1.31708C1202.07 0.807081 1205.81 14.0089 1216.6 13.8159C1227.01 13.6295 1230.44 1.4119 1240.85 1.31708C1251.44 1.22055 1255.05 14.5722 1265.62 13.8159C1274.9 13.1521 1277.43 2.06238 1286.71 1.31708C1297.47 0.452739 1301.23 14.2163 1312.01 13.8159C1322.04 13.4432 1325.17 1.41537 1335.21 1.31708C1345.43 1.21696 1351.51 13.9233 1363.64 13.8159C1375.53 13.7105 1379.55 0.439394 1391.41 1.31708C1401.62 2.0729 1404.22 13.538 1414.46 13.8159C1425.24 14.1084 1428.31 0.920041 1439.08 1.31708C1449.14 1.6875 1451.55 13.6242 1461.61 13.8159C1472.03 14.0144 1474.77 1.50229 1485.19 1.31708C1495.97 1.12541 1499.02 13.8159 1509.81 13.8159C1520.59 13.8159 1523.65 1.22288 1534.43 1.31708C1545.03 1.40968 1547.93 13.7233 1558.53 13.8159C1569.31 13.9101 1572.37 1.12541 1583.15 1.31708C1593.57 1.50229 1596.31 13.7217 1606.73 13.8159C1617.33 13.9117 1620.23 1.0193 1630.83 1.31708C1640.88 1.59966 1643.31 13.2785 1653.35 13.8159C1664.49 14.4114 1667.9 0.60972 1679.03 1.31708C1688.89 1.94401 1691.15 13.6208 1701.03 13.8159C1711.27 14.018 1713.85 1.84571 1724.08 1.31708C1735.4 0.731955 1738.95 14.1926 1750.27 13.8159C1760.87 13.4634 1763.77 1.31708 1774.37 1.31708C1784.98 1.31708 1787.88 14.1136 1798.47 13.8159C1808.53 13.5333 1821 1.31708 1821 1.31708" stroke="#EBDECE" stroke-width="2" stroke-linecap="round"/>
</svg>
