<svg width="125" height="109" viewBox="0 0 125 109" fill="none" xmlns="http://www.w3.org/2000/svg">
<rect x="5" y="7" width="113" height="81" fill="#8D7DFF"/>
<path fill-rule="evenodd" clip-rule="evenodd" d="M26.1926 0.501019C18.5252 1.75046 23.6861 6.82177 30.0264 7.70373C35.3346 8.4387 45.5085 8.43871 67.4048 8.36522C94.0933 8.29172 105.521 8.58565 107.216 9.32062C111.419 11.2315 113.262 18.5813 114.442 38.4989C114.884 45.5545 115.768 56.1381 116.432 62.0178C118.496 80.9064 116.58 82.7439 92.3241 83.6993C82.961 84.0668 70.7963 84.8017 65.3406 85.3162C39.8318 87.7416 23.9808 87.3005 15.1338 83.7727C7.76129 80.8328 8.13006 78.481 7.90888 73.5567C7.39281 64.0022 7.61391 44.5255 8.57234 26.8128C9.38331 11.9664 10.3417 9.02662 15.1338 6.82171C18.0828 5.49878 17.0507 3.95538 13.3645 4.10237C7.83509 4.39636 3.5591 6.23376 2.74813 14.8329C1.71598 25.4164 -4.84577 83.5523 6.95024 88.4766C14.6914 91.7104 28.1831 94.8708 33.4913 94.8708C37.1775 94.8708 37.0303 98.9866 33.344 100.089C24.8657 102.514 30.8372 108.394 42.0435 108.835C64.7508 109.57 97.9272 107.733 98.2221 105.601C98.517 103.47 93.7249 98.6192 91.2182 98.6192C90.4072 98.6192 89.891 97.6636 89.891 96.2671C89.891 94.2827 89.891 91.4898 92.1765 91.4898C101.982 91.4898 107.216 91.0489 110.165 90.3874C124.542 87.3005 125.132 77.5991 124.984 71.9398C124.468 48.7884 120.118 26.6659 120.118 21.4477C120.045 12.4076 114.737 3.5144 103.383 1.89747C98.9594 0.574533 33.7862 -0.748425 26.1926 0.501019ZM64.6772 45.481C63.7925 44.5256 55.2404 35.0445 52.8812 32.6191C49.9322 29.6058 46.9093 30.5611 40.569 36.3673C37.325 39.3807 32.2381 43.8641 29.2154 46.4365C18.7464 55.2561 17.9354 59.2249 26.5612 59.2249C29.5102 59.2249 30.9112 58.1959 39.6845 49.2293C51.0381 37.6168 50.0059 37.6903 59.8851 47.2449C66.5203 53.6391 65.7093 53.7127 76.4732 45.3341C85.7626 36.735 91.0707 31.0022 97.7797 24.314C104.415 17.6993 94.2408 14.6859 88.8589 19.2427C82.5185 24.4609 64.7509 45.4075 64.6772 45.481ZM88.564 42.0267C87.237 45.4076 87.9006 67.971 89.3751 69.3675C92.9876 72.9688 95.1995 65.2515 94.9783 49.9642C94.8308 41.5121 90.7021 36.441 88.564 42.0267ZM45.8773 51.2138C43.5918 57.2405 45.5085 73.7038 50.1532 72.8953C54.7979 72.0869 51.6278 53.9331 50.5956 51.2872C49.9321 49.3763 46.6146 49.3029 45.8773 51.2138ZM75.8832 52.9041C74.6299 54.4475 73.3767 65.8395 74.1877 68.9264C75.5884 74.4387 81.4126 72.0134 81.4126 65.9131C81.4126 55.6971 78.7585 49.4497 75.8832 52.9041ZM33.9337 60.7684C32.8278 61.8708 33.2701 70.1023 34.5971 71.8663C36.9563 75.1001 39.0207 73.0423 39.0207 67.3831C38.9469 61.5033 36.4403 58.196 33.9337 60.7684ZM59.3688 60.7684C57.452 62.6793 58.779 70.5433 61.1382 71.6457C64.8982 73.3362 66.1516 68.7059 63.8661 61.3562C63.4975 60.0333 60.4747 59.6659 59.3688 60.7684ZM78.3901 92.7394C81.3391 93.5479 80.2332 96.1938 80.5281 98.6192L46.467 99.207C46.467 98.9865 47.057 93.1803 47.057 93.5478C49.4162 93.4743 71.0176 92.5924 73.9666 92.3719C75.1462 92.225 77.2105 92.4454 78.3901 92.7394Z" fill="black"/>
</svg>
