<svg width="160" height="251" viewBox="0 0 160 251" fill="none" xmlns="http://www.w3.org/2000/svg">
<path d="M108.578 137.889C109.983 134.454 113.054 132.111 116.75 131.643L158.807 126.386C159.432 126.334 159.432 125.449 158.807 125.345L116.75 120.088C113.054 119.619 109.983 117.277 108.578 113.842C107.173 110.406 107.641 106.606 109.931 103.64L135.957 70.1709C136.321 69.7025 135.696 69.0779 135.228 69.4422L102.904 94.6348C99.8855 96.9771 95.9296 97.4976 92.4422 95.884C88.9028 94.3225 86.6646 91.0953 86.4043 87.2436L80.7308 1.98438C80.6787 1.41182 80.2103 0.943359 79.6377 0.943359C79.0652 0.943359 78.5447 1.41182 78.5447 1.98438L72.8191 87.3477C72.5588 91.1994 70.3206 94.4266 66.7812 95.9881C63.2417 97.5496 59.3379 97.0812 56.319 94.7389L23.9954 69.5463C23.527 69.182 22.9023 69.8066 23.2667 70.275L49.2921 103.744C51.5823 106.711 52.1029 110.51 50.6454 113.946C49.2401 117.381 46.1691 119.723 42.4735 120.192L0.468457 125.397C-0.156152 125.449 -0.156152 126.334 0.468457 126.438L42.4735 131.695C46.1691 132.163 49.2401 134.506 50.6454 137.941C52.0508 141.376 51.5823 145.176 49.2921 148.143L23.2667 181.612C22.9023 182.08 23.527 182.705 23.9954 182.34L56.319 157.148C59.3379 154.806 63.2938 154.285 66.7812 155.899C70.3206 157.46 72.5588 160.687 72.8191 164.539L78.5447 249.902C78.5967 250.475 79.0652 250.943 79.6377 250.943C80.2103 250.943 80.7308 250.475 80.7308 249.902L86.4564 164.539C86.7166 160.687 88.9548 157.46 92.4943 155.899C96.0337 154.337 99.9375 154.806 102.956 157.148L135.28 182.34C135.748 182.705 136.373 182.08 136.009 181.612L109.983 148.143C107.693 145.176 107.173 141.376 108.578 137.889Z" fill="#F8C600"/>
<path d="M94.2006 131.737C94.9078 130.008 96.4531 128.83 98.3127 128.594L119.475 125.949C119.79 125.922 119.79 125.477 119.475 125.425L98.3127 122.779C96.4531 122.544 94.9078 121.365 94.2006 119.636C93.4935 117.908 93.7292 115.996 94.8816 114.503L107.977 97.6619C108.161 97.4262 107.846 97.1119 107.611 97.2952L91.3458 109.972C89.8267 111.15 87.8361 111.412 86.0813 110.6C84.3003 109.815 83.1741 108.191 83.0431 106.253L80.1883 63.3512C80.1621 63.0631 79.9263 62.8274 79.6382 62.8274C79.3501 62.8274 79.0882 63.0631 79.0882 63.3512L76.2072 106.305C76.0762 108.243 74.95 109.867 73.169 110.653C71.388 111.439 69.4236 111.203 67.9045 110.024L51.6397 97.3476C51.4039 97.1643 51.0896 97.4786 51.273 97.7143L64.3687 114.555C65.5211 116.048 65.783 117.96 65.0496 119.689C64.3425 121.417 62.7972 122.596 60.9376 122.832L39.8012 125.451C39.4869 125.477 39.4869 125.922 39.8012 125.975L60.9376 128.62C62.7972 128.856 64.3425 130.034 65.0496 131.763C65.7568 133.492 65.5211 135.404 64.3687 136.897L51.273 153.738C51.0896 153.973 51.4039 154.288 51.6397 154.104L67.9045 141.428C69.4236 140.249 71.4141 139.987 73.169 140.799C74.95 141.585 76.0762 143.209 76.2072 145.147L79.0882 188.101C79.1144 188.389 79.3501 188.625 79.6382 188.625C79.9263 188.625 80.1883 188.389 80.1883 188.101L83.0693 145.147C83.2003 143.209 84.3265 141.585 86.1075 140.799C87.8885 140.013 89.8529 140.249 91.372 141.428L107.637 154.104C107.873 154.288 108.187 153.973 108.003 153.738L94.9078 136.897C93.7554 135.404 93.4935 133.492 94.2006 131.737Z" fill="#F8FCDD"/>
</svg>
