<svg width="132" height="135" viewBox="0 0 132 135" fill="none" xmlns="http://www.w3.org/2000/svg">
<path d="M81.6138 10.9585C82.2485 8.60091 85.5934 8.60092 86.2282 10.9585L89.8991 24.5925C90.1205 25.4148 90.7628 26.0571 91.5851 26.2785L105.219 29.9494C107.577 30.5842 107.577 33.9291 105.219 34.5639L91.5851 38.2348C90.7628 38.4562 90.1205 39.0985 89.8991 39.9208L86.2282 53.5548C85.5934 55.9124 82.2485 55.9124 81.6138 53.5548L77.9428 39.9208C77.7214 39.0985 77.0791 38.4562 76.2568 38.2348L62.6228 34.5639C60.2652 33.9291 60.2653 30.5842 62.6228 29.9494L76.2568 26.2785C77.0791 26.0571 77.7214 25.4148 77.9428 24.5925L81.6138 10.9585Z" fill="#2C2C2C"/>
<path d="M79.8009 8.72439C80.277 6.95623 82.7857 6.95623 83.2617 8.7244L86.9327 22.3584C87.2094 23.3863 88.0123 24.1892 89.0402 24.4659L102.674 28.1368C104.442 28.6129 104.442 31.1216 102.674 31.5977L89.0402 35.2686C88.0123 35.5453 87.2094 36.3482 86.9327 37.3761L83.2617 51.0101C82.7857 52.7783 80.277 52.7783 79.8009 51.0101L76.13 37.3761C75.8532 36.3482 75.0503 35.5453 74.0225 35.2686L60.3885 31.5977C58.6203 31.1216 58.6203 28.6129 60.3885 28.1368L74.0225 24.4659C75.0503 24.1892 75.8532 23.3863 76.13 22.3584L79.8009 8.72439Z" fill="#D68BE7" stroke="#2C2C2C" stroke-width="1.19469"/>
<path d="M105.721 93.6739C106.234 91.7697 108.935 91.7697 109.448 93.6739L112.413 104.686C112.592 105.35 113.111 105.869 113.775 106.048L124.787 109.013C126.691 109.525 126.691 112.227 124.787 112.74L113.775 115.705C113.111 115.884 112.592 116.402 112.413 117.067L109.448 128.079C108.935 129.983 106.234 129.983 105.721 128.079L102.756 117.067C102.577 116.402 102.058 115.884 101.394 115.705L90.3821 112.74C88.4779 112.227 88.4779 109.525 90.3821 109.013L101.394 106.048C102.058 105.869 102.577 105.35 102.756 104.686L105.721 93.6739Z" fill="#2C2C2C"/>
<path d="M104.257 91.8699C104.642 90.4417 106.668 90.4417 107.052 91.8699L110.017 102.882C110.241 103.712 110.889 104.361 111.72 104.584L122.732 107.549C124.16 107.934 124.16 109.96 122.732 110.344L111.72 113.309C110.889 113.533 110.241 114.181 110.017 115.012L107.052 126.024C106.668 127.452 104.642 127.452 104.257 126.024L101.292 115.012C101.069 114.181 100.42 113.533 99.59 113.309L88.5779 110.344C87.1497 109.96 87.1497 107.934 88.5779 107.549L99.59 104.584C100.42 104.361 101.069 103.712 101.292 102.882L104.257 91.8699Z" fill="#D68BE7" stroke="#2C2C2C" stroke-width="0.964942"/>
<path d="M36.5766 62.2587C37.3456 59.4024 41.3981 59.4024 42.1671 62.2586L46.6146 78.7768C46.8828 79.773 47.661 80.5512 48.6573 80.8194L65.1754 85.2669C68.0317 86.036 68.0317 90.0884 65.1754 90.8575L48.6573 95.3049C47.661 95.5732 46.8828 96.3514 46.6146 97.3476L42.1671 113.866C41.3981 116.722 37.3456 116.722 36.5766 113.866L32.1291 97.3476C31.8609 96.3514 31.0827 95.5732 30.0864 95.3049L13.5683 90.8575C10.7121 90.0884 10.712 86.036 13.5683 85.2669L30.0864 80.8194C31.0827 80.5512 31.8609 79.773 32.1291 78.7768L36.5766 62.2587Z" fill="#2C2C2C"/>
<path d="M34.3809 59.5524C34.9576 57.4102 37.997 57.4102 38.5738 59.5524L43.0213 76.0705C43.3566 77.3158 44.3293 78.2885 45.5746 78.6238L62.0927 83.0713C64.2349 83.6481 64.2349 86.6874 62.0927 87.2642L45.5746 91.7117C44.3293 92.047 43.3566 93.0197 43.0213 94.265L38.5738 110.783C37.997 112.925 34.9576 112.925 34.3809 110.783L29.9334 94.265C29.5981 93.0197 28.6254 92.047 27.3801 91.7117L10.8619 87.2642C8.71973 86.6874 8.71974 83.6481 10.8619 83.0713L27.3801 78.6238C28.6254 78.2885 29.5981 77.3158 29.9334 76.0705L34.3809 59.5524Z" fill="#D68BE7" stroke="#2C2C2C" stroke-width="1.44741"/>
</svg>
