<svg width="74" height="70" viewBox="0 0 74 70" fill="none" xmlns="http://www.w3.org/2000/svg">
<path d="M12.2393 62.9806L27.3735 43.8643C28.1507 43.0589 28.6253 42.0059 28.7143 40.8859C28.7258 40.5329 28.6489 40.1823 28.4922 39.8664C28.3356 39.5505 28.1046 39.279 27.8175 39.0765C27.1161 38.5894 26.2759 38.3478 25.4251 38.389C25.0488 38.4008 24.6734 38.4329 24.3005 38.4854L0 41.7899V28.2099L24.3005 31.5504C24.6733 31.6036 25.0487 31.6357 25.4251 31.6468C26.2792 31.6856 27.121 31.4356 27.8175 30.9357C28.1032 30.7291 28.3329 30.4552 28.4893 30.1378C28.6458 29.8203 28.7235 29.4689 28.7143 29.1146C28.6392 28.0113 28.1829 26.9694 27.4231 26.1716L12.1926 6.77845L24.467 0.000244141L33.6071 22.6743C33.8811 23.5209 34.3648 24.2837 35.0092 24.8929C35.2396 25.1397 35.5155 25.3364 35.8242 25.4708C36.1328 25.6052 36.4665 25.6747 36.8027 25.6747C37.1389 25.6747 37.4726 25.6052 37.7813 25.4708C38.0899 25.3364 38.3658 25.1397 38.5963 24.8929C39.2308 24.2778 39.7097 23.5166 39.9867 22.6743L49.0538 0.000244141L61.5472 6.77845L46.1706 26.1716C45.3917 26.9952 44.9177 28.0641 44.8299 29.1985C44.8236 29.5413 44.8998 29.8812 45.0519 30.1878C45.204 30.4945 45.4274 30.7595 45.7033 30.96C46.4287 31.4535 47.2948 31.6942 48.1687 31.6468C48.5697 31.656 48.9718 31.6237 49.3663 31.5504L73.5354 28.2099V41.7899L49.3663 38.4854C48.9361 38.4079 48.4974 38.3757 48.0606 38.389C47.2173 38.3386 46.3804 38.5581 45.6682 39.0162C45.3967 39.2117 45.1757 39.471 45.0256 39.7714C44.8755 40.0719 44.8006 40.4045 44.8065 40.7409C44.9102 41.9021 45.3851 42.9978 46.159 43.8643L61.4742 62.9806L49.0304 70.0002L39.9137 47.3498C39.6296 46.5108 39.1546 45.7513 38.5262 45.1311C38.2957 44.8843 38.0169 44.6877 37.7083 44.5533C37.3996 44.4188 37.0659 44.3494 36.7297 44.3494C36.3935 44.3494 36.0627 44.4188 35.7541 44.5533C35.4454 44.6877 35.1666 44.8843 34.9362 45.1311C34.3033 45.7569 33.812 46.5137 33.499 47.3498L24.3589 70.0002L12.2393 62.9806Z" fill="#BFF747"/>
</svg>
