<svg width="678" height="139" viewBox="0 0 678 139" fill="none" xmlns="http://www.w3.org/2000/svg">
<path d="M522.139 21.2749C414.911 -5.47038 208.725 -0.945586 102.889 22.4579C54.6888 33.1167 -34.1915 64.0007 19.8925 93.1591C29.4316 98.3021 41.0267 102.48 53.0233 106.096C185.051 145.883 369.195 141.831 510.89 118.024C532.023 114.474 552.817 110.259 571.949 104.53C586.258 100.245 600.092 94.9348 611.234 88.7375C643.852 70.5947 635.332 52.3363 600.237 36.9551C559.548 19.1217 503.906 13.5953 451.405 10.5687C405.496 7.9222 359.643 7.414 313.517 8.49411C227.01 10.5195 127.317 13.7423 54.7628 38.1237C23.0732 48.7731 -10.9731 71.5292 16.1905 89.947C45.6258 109.905 115.031 116.367 161.713 120.579C287.648 131.94 486.912 126.307 601.623 96.4919C613.992 93.2767 626.524 90.2804 637.59 86.0525C646.333 82.7117 654.705 78.9025 661.968 74.78C713.435 45.5642 598.589 27.1947 558.087 24.0401C430.671 14.1161 242.089 -0.20517 124.746 26.1945" stroke="#FF8064" stroke-width="5" stroke-miterlimit="1.5" stroke-linecap="round" stroke-linejoin="round"/>
</svg>
