<svg width="145" height="183" viewBox="0 0 145 183" fill="none" xmlns="http://www.w3.org/2000/svg">
<path d="M28.3975 128.418C29.0467 129.081 34.3759 128.868 42.2122 127.871C69.0046 124.412 68.3675 126.219 69.4971 123.871C70.7063 121.358 69.6438 121.313 52.3228 122.71C33.7487 124.217 26.1491 126.01 28.3975 128.418Z" fill="#FF8064"/>
<path d="M63.1286 146.951C63.3313 147.563 63.7862 147.493 66.075 146.711C69.477 145.524 72.2555 142.215 70.5331 141.422C69.1082 140.806 62.6763 145.586 63.1286 146.951Z" fill="#FF8064"/>
<path d="M71.0578 156.853C58.6193 170.196 54.7874 175.04 54.9541 177.375C55.0596 179.286 56.1134 178.664 59.1695 174.888C61.7449 171.641 66.8324 165.912 72.0125 160.384C76.2619 155.853 77.0379 154.706 77.2264 152.971C77.4313 150.57 76.1139 151.426 71.0578 156.853Z" fill="#FF8064"/>
<path d="M32.6092 99.12C33.23 99.7735 41.3111 101.428 46.5241 102.003C47.7835 102.136 51.0034 102.727 53.6494 103.298C58.7818 104.446 59.117 104.397 60.0288 102.496C60.8925 100.694 60.9559 100.724 52.1407 99.3C36.7899 96.8133 30.3965 96.7531 32.6092 99.12Z" fill="#FF8064"/>
<path d="M48.3959 152.559C51.8088 151.05 54.1033 151.145 55.2701 148.722C57.1464 144.826 56.9739 144.547 50.2431 147.13C37.7723 151.912 28.0192 157.505 28.2358 159.764C28.4996 161.925 35.4221 157.35 48.3959 152.559Z" fill="#FF8064"/>
<path d="M96.5576 32.8408C95.7441 29.4224 94.4571 26.8277 93.3243 26.3068C91.7509 25.5833 90.2993 27.3992 90.6894 29.7016C93.2008 44.9965 99.3935 62.1446 101.93 60.9479C104.42 59.7694 104.156 57.2847 100.27 45.163C98.5776 39.8184 96.9018 34.2809 96.5576 32.8408Z" fill="#FF8064"/>
<path d="M49.4791 65.8084C52.2027 68.3313 59.2776 72.9057 73.3121 84.4888C76.0999 86.7966 76.1633 86.8259 77.6317 86.1995C78.8128 85.6851 79.9001 84.1486 79.7901 83.0783C79.7117 82.1857 60.0693 66.2983 53.0268 61.4126C50.2542 59.5604 46.3413 62.9311 49.4791 65.8084Z" fill="#FF8064"/>
<path d="M116.82 24.7249C114.721 35.8197 113.011 57.0145 114.111 58.7528C114.855 59.9692 117.298 57.5653 117.581 55.315L118.572 46.9234C120.099 34.0168 121.087 17.7267 120.373 17.3969C118.898 16.7556 117.948 18.7375 116.82 24.7249Z" fill="#FF8064"/>
<path d="M67.1197 44.4439C67.7669 45.4263 69.4557 48.2569 73.747 56.4325C75.6717 60.1368 80.1552 66.8706 80.9141 67.2197C82.4321 67.918 79.3413 61.0195 72.5249 48.5412C71.0417 45.8454 69.7166 43.2224 69.5908 42.6813C68.8984 40.1882 65.92 42.6034 67.1197 44.4439Z" fill="#FF8064"/>
</svg>
