<svg width="110" height="164" viewBox="0 0 110 164" fill="none" xmlns="http://www.w3.org/2000/svg">
<path fill-rule="evenodd" clip-rule="evenodd" d="M39.8138 5.96484C39.8632 19.5917 35.2288 44.241 70.8789 50.1988C48.7485 53.393 40.2916 70.4982 39.818 92.439C39.2753 75.8773 41.5468 56.7536 5.24121 51.5119C40.0864 48.7568 39.6031 19.9688 39.8138 5.96484Z" fill="#FFF7EA" stroke="#FF8064" stroke-width="4" stroke-miterlimit="1.5" stroke-linecap="round" stroke-linejoin="round"/>
<path fill-rule="evenodd" clip-rule="evenodd" d="M74.4132 72.4395C74.4626 86.0663 65.1802 111.368 100.83 117.325C78.6999 120.52 74.891 136.973 74.4174 158.914C73.8747 142.351 72.7648 123.082 47.5825 117.555C71.9916 114.642 71.5799 91.0352 74.4132 72.4395Z" fill="#FFF7EA" stroke="#FF8064" stroke-width="4" stroke-miterlimit="1.5" stroke-linecap="round" stroke-linejoin="round"/>
<path d="M2 2C7.75409 8.65695 12.3164 16.3789 18.2214 22.892" stroke="#FF8064" stroke-width="4" stroke-miterlimit="1.5" stroke-linecap="round" stroke-linejoin="round"/>
<path d="M57.8491 27.8241C62.1565 24.2743 66.2293 20.2325 69.7193 15.8696" stroke="#FF8064" stroke-width="4" stroke-miterlimit="1.5" stroke-linecap="round" stroke-linejoin="round"/>
<path d="M19.6992 73.6846C13.9091 79.051 8.53217 85.0256 3.29541 90.9334" stroke="#FF8064" stroke-width="4" stroke-miterlimit="1.5" stroke-linecap="round" stroke-linejoin="round"/>
<path d="M55.6997 85.9863C56.3317 86.9528 57.0942 87.8335 57.7828 88.7609" stroke="#FF8064" stroke-width="4" stroke-miterlimit="1.5" stroke-linecap="round" stroke-linejoin="round"/>
<path d="M48.5249 141.116C49.9025 139.744 51.3291 138.422 52.6857 137.028" stroke="#FF8064" stroke-width="4" stroke-miterlimit="1.5" stroke-linecap="round" stroke-linejoin="round"/>
<path d="M89.0527 96.4725C95.1494 90.9552 100.452 84.8938 105.586 78.4863" stroke="#FF8064" stroke-width="4" stroke-miterlimit="1.5" stroke-linecap="round" stroke-linejoin="round"/>
<path d="M90.5381 141.593C97.7258 146.065 102.728 155.273 107.701 162" stroke="#FF8064" stroke-width="4" stroke-miterlimit="1.5" stroke-linecap="round" stroke-linejoin="round"/>
</svg>
