<svg width="341" height="371" viewBox="0 0 341 371" fill="none" xmlns="http://www.w3.org/2000/svg">
<path fill-rule="evenodd" clip-rule="evenodd" d="M43.5885 368.116C124.703 359.764 152.487 332.28 170.75 241.864C181.63 188.06 195.133 173.784 248.076 159.799C303.933 145.134 322.586 130.955 334.34 94.2448C340.169 76.0835 342.402 37.2364 338.905 16.4533C337.254 6.45016 334.34 1.30293 329.774 0.428852C321.906 -1.02791 267.311 1.40034 226.025 5.09081C209.899 6.54757 209.413 6.93565 208.15 18.784C205.041 48.1135 196.881 59.0881 175.121 62.7785C170.07 63.6526 149.475 67.3431 147.047 67.6344C81.2803 76.6664 67.9716 92.1082 49.4171 180.679C40.9656 221.08 30.2798 233.899 2.78818 236.327C-0.611847 236.618 -0.611847 236.036 1.23386 252.158C1.91388 258.082 2.78818 284.498 3.2739 310.914C4.43961 375.983 1.81674 372.39 43.5885 368.116ZM15.1254 266.046C13.474 242.155 13.1835 244.291 18.6236 243.515C34.458 241.378 42.4228 235.162 51.2629 218.458C56.8972 207.872 61.7544 189.42 65.4459 165.238C74.7716 104.539 94.2975 86.7666 163.561 75.4038C189.887 71.1307 196.493 69.3826 202.127 65.3037C217.281 54.3294 216.505 35.7797 217.282 16.9389C217.282 16.9389 240.791 15.385 244.483 14.9965C252.351 14.3167 252.059 13.1516 248.465 30.827C243.316 56.2718 236.904 68.5084 223.013 79.1913C208.733 90.1659 197.95 93.4679 148.504 101.723C100.32 109.784 85.4574 131.829 76.1317 208.941C69.8173 260.704 57.0915 277.797 21.634 282.264L16.2911 282.943L15.1254 266.046ZM16.5826 290.908C20.7598 289.937 29.3084 287.703 33.3884 287.023C70.6916 280.516 82.6403 263.228 89.7318 205.249C96.2404 152.029 99.7386 142.803 119.653 126.584C129.465 118.62 138.693 114.057 148.796 112.212C163.853 109.395 140.441 113.086 199.99 101.529C241.859 93.3708 267.214 60.2534 262.94 18.9784L262.356 13.8314C274.305 11.9862 298.202 11.8887 323.751 9.65504C323.751 9.75216 325.888 53.2609 323.751 71.4219C318.505 115.222 289.653 141.638 234.476 153.195C185.613 163.393 164.241 185.827 155.304 236.522C144.812 295.861 130.144 322.957 98.0862 342.283C85.7489 349.761 50.2914 358.987 29.9884 360.056L19.1093 360.637L16.5826 290.908Z" fill="#FFFCF2"/>
</svg>
