<svg width="432" height="471" viewBox="0 0 432 471" fill="none" xmlns="http://www.w3.org/2000/svg">
<path d="M12.4328 1C12.4328 1 -13.291 74.6414 12.4328 145.621C30.705 196.04 108.58 239.884 150.81 206.841C165.038 195.708 169.828 182.666 162.785 166.028C155.087 147.841 128.284 146.883 109.563 153.163C57.0998 170.76 64.9637 257.578 91.3788 306.212C128.204 374.013 255.321 404.052 280.317 331.055C288.68 306.635 274.995 283.588 255.037 283.588C231.333 283.588 207.58 304.882 207.58 335.048C207.58 365.214 227.281 407.13 270.116 438.856C328.217 481.887 389.422 480.113 432 434.863" stroke="#F8C600" stroke-width="2"/>
</svg>
