<svg width="133" height="145" viewBox="0 0 133 145" fill="none" xmlns="http://www.w3.org/2000/svg">
<path fill-rule="evenodd" clip-rule="evenodd" d="M128.932 24.2292C111.924 -4.60281 67.3149 -7.7991 55.5763 18.9345C53.593 23.4273 53.432 23.651 50.7572 23.9275C35.2183 25.6381 20.4428 45.6209 20.2406 65.2345C20.1802 68.7577 20.0191 68.9814 16.4778 71.2943C-15.5642 92.0929 4.19513 143.169 44.607 144.122C56.6401 144.386 55.3349 131.609 41.646 130.424C8.88222 127.643 -4.11687 99.2523 20.3689 83.9907L22.0946 82.9327L25.1677 89.9953C33.1418 108.315 52.9089 114.778 57.203 100.377C62.2292 83.5839 46.3097 64.3541 29.3756 66.9167C26.4415 67.3724 26.4415 67.3724 28.2092 61.6584C31.923 49.1862 51.5224 30.7211 52.0825 39.1387C54.0335 68.3598 85.3128 86.9233 88.311 60.638C89.7078 48.3073 81.4329 34.8223 68.0265 27.6693C62.4957 24.7088 62.5758 24.2716 68.8532 19.4612C85.9684 6.329 118.038 15.07 128.716 35.7889C133.392 44.9332 134.565 33.7449 128.932 24.2292ZM81.8401 56.4854C80.6468 65.2389 61.4597 55.5452 59.0285 44.9843C57.2073 37.1238 58.0031 36.4165 65.5201 39.4418C74.8805 43.2369 82.5614 51.2475 81.8401 56.4854ZM51.2743 91.38C49.6947 97.5929 37.1764 94.0937 31.1769 85.7744C27.5504 80.7115 27.658 80.3455 32.4711 80.3205C41.9813 80.3959 52.5684 86.5773 51.2743 91.38Z" fill="#131313"/>
</svg>
